<svg width="92" height="99" viewBox="0 0 92 99" fill="none" xmlns="http://www.w3.org/2000/svg">
<path fill-rule="evenodd" clip-rule="evenodd" d="M46.4888 45.7569C47.1767 39.8981 50.8054 34.4496 54.3002 32.6722C51.7602 29.3915 50.3087 25.0756 49.8884 21.7946H45.9925H42.1156C41.6763 25.0756 40.2249 29.3915 37.6848 32.6722C41.1797 34.4496 44.8276 39.8981 45.5151 45.7569V32.3208C44.9421 32.1257 44.5218 31.5591 44.5218 30.8951C44.5218 30.0749 45.1904 29.3916 45.9925 29.3916C46.8138 29.3916 47.4632 30.0749 47.4632 30.8951C47.4632 31.5591 47.0619 32.1257 46.4888 32.3208V45.7569ZM45.9925 15.1353L56.153 17.9474L49.8884 19.6658V21.1502H42.1156V19.6658L41.027 19.3728L46.0496 18.2987C46.1645 18.2794 46.2408 18.1623 46.2027 18.0254V18.0058C46.1834 18.0841 46.1259 18.1426 46.0496 18.1622L40.1867 19.4121V21.6383C40.2823 21.7164 40.3587 21.8335 40.3587 21.9897C40.3587 22.0875 40.3202 22.1853 40.263 22.2633L40.3202 22.4388L40.683 23.7084H39.9573H39.2316L39.5945 22.4388L39.6519 22.2436C39.5945 22.1656 39.5566 22.0875 39.5566 21.9897C39.5566 21.8335 39.633 21.7164 39.7472 21.6383V19.4511C39.7472 19.2753 39.7283 19.0604 39.8046 19.0407L35.832 17.9473L45.9925 15.1353Z" fill="white"/>
<path fill-rule="evenodd" clip-rule="evenodd" d="M60.0298 48.3347C58.8459 48.1979 57.7381 48.7057 57.0506 49.604C57.5091 50.639 58.4831 51.4008 59.6669 51.5373C60.8511 51.6934 61.959 51.1662 62.6462 50.268C62.188 49.2329 61.214 48.4712 60.0298 48.3347ZM55.5228 50.7561C54.396 50.3654 53.1929 50.6193 52.3523 51.3614C52.601 52.4749 53.3838 53.4314 54.5106 53.8222C55.6566 54.2129 56.8404 53.9393 57.7 53.1972C57.4519 52.1038 56.6688 51.1468 55.5228 50.7561ZM61.042 11.2682C61.6725 12.1471 62.6462 12.6159 63.6206 12.6352L63.7733 12.8111C66.5998 16.2482 68.3185 20.3493 68.8723 24.6262C69.4264 28.8835 68.8152 33.3166 66.9627 37.3787C65.1099 41.4407 62.188 44.7608 58.6547 47.0848C55.8092 48.9203 52.5435 50.1312 49.125 50.5412V51.2052C52.6773 50.7952 56.0576 49.5649 58.9986 47.651C62.6462 45.2686 65.664 41.8312 67.5546 37.652C69.4645 33.4728 70.0947 28.9225 69.5217 24.5285C68.9487 20.1344 67.1918 15.9162 64.2889 12.3813L64.1169 12.1861C64.3652 11.2291 64.1936 10.1744 63.5632 9.33491C62.8563 8.35825 61.7107 7.88981 60.6028 7.98722C60.2018 9.04199 60.3163 10.2919 61.042 11.2682ZM61.5005 16.2872C62.7037 16.2482 63.7159 15.5645 64.27 14.5685C63.6585 13.6115 62.5891 13.0063 61.4049 13.0453C60.2018 13.0844 59.1703 13.768 58.6358 14.7641C59.247 15.721 60.3163 16.3263 61.5005 16.2872ZM63.7541 20.3296C64.9193 20.5835 66.0651 20.1734 66.8289 19.3533C66.4661 18.2792 65.5687 17.42 64.4034 17.1661C63.2385 16.9122 62.0736 17.3222 61.3097 18.1424C61.6914 19.2165 62.5699 20.0757 63.7541 20.3296ZM64.9572 24.8017C66.0458 25.3486 67.2492 25.2315 68.204 24.6262C68.0895 23.4935 67.4208 22.4387 66.3515 21.8922C65.2821 21.3646 64.0598 21.4624 63.1239 22.0874C63.2385 23.2202 63.8878 24.2552 64.9572 24.8017ZM65.091 29.4498C66.0079 30.2309 67.2107 30.4264 68.2615 30.0747C68.4331 28.9422 68.0513 27.7508 67.1344 26.9696C66.2178 26.1885 64.9957 25.9933 63.9449 26.3447C63.7733 27.4774 64.1744 28.6493 65.091 29.4498ZM64.1169 33.9806C64.8044 34.9766 65.9315 35.4648 67.058 35.367C67.4783 34.3126 67.383 33.0824 66.6762 32.0864C65.9694 31.0904 64.843 30.6019 63.7349 30.6997C63.3148 31.7544 63.4104 32.9846 64.1169 33.9806ZM62.0928 38.1405C62.532 39.273 63.5057 40.0347 64.6136 40.2106C65.2822 39.312 65.4728 38.0621 65.0335 36.9296C64.5754 35.7968 63.6013 35.0547 62.5128 34.8595C61.8441 35.7774 61.6532 37.0077 62.0928 38.1405ZM59.1514 41.675C59.3041 42.8859 60.0872 43.8622 61.0995 44.3116C61.959 43.5889 62.4364 42.4368 62.2834 41.2259C62.1118 40.015 61.3478 39.0581 60.3163 38.5896C59.4568 39.312 58.9797 40.4641 59.1514 41.675ZM55.4464 44.3897C55.3126 45.6003 55.8474 46.7331 56.7259 47.4168C57.7381 46.9283 58.4639 45.9323 58.5977 44.7218C58.7311 43.5109 58.1966 42.3781 57.3181 41.675C56.3248 42.1631 55.5802 43.1592 55.4464 44.3897ZM51.2259 46.0887C50.8055 47.2409 51.0535 48.4712 51.7414 49.35C52.83 49.1352 53.7848 48.354 54.2051 47.2019C54.6058 46.0497 54.3768 44.8192 53.6895 43.9406C52.5817 44.1552 51.6266 44.9366 51.2259 46.0887ZM65.2437 11.7564C65.2247 12.9672 65.8549 14.061 66.7907 14.6663C67.7458 14.0804 68.3952 13.0062 68.4141 11.7954C68.4141 10.5651 67.803 9.49107 66.8671 8.88578C65.8931 9.47137 65.263 10.5261 65.2437 11.7564ZM68.0702 16.0724C67.803 17.2635 68.1851 18.4551 68.9871 19.2556C70.0372 18.8845 70.8968 17.9863 71.1451 16.7951C71.4123 15.6036 71.0306 14.4124 70.2285 13.6116C69.1781 13.9829 68.3186 14.8811 68.0702 16.0724ZM69.942 20.9155C69.4453 22.0286 69.5791 23.2592 70.2095 24.2162C71.3171 24.0794 72.3293 23.3763 72.8259 22.2632C73.3226 21.1501 73.1888 19.9001 72.5583 18.9625C71.4509 19.0994 70.4386 19.8024 69.942 20.9155ZM70.8015 26.0323C70.0947 27.0086 69.9609 28.2585 70.3812 29.3133C71.4887 29.4107 72.6347 28.9422 73.3415 27.9656C74.0483 26.9893 74.1818 25.7393 73.7618 24.6846C72.654 24.5872 71.508 25.0557 70.8015 26.0323ZM70.5913 31.2268C69.6936 32.0276 69.3307 33.2385 69.5217 34.3516C70.5913 34.6837 71.7944 34.4687 72.6921 33.668C73.5895 32.8478 73.9524 31.6566 73.7618 30.5435C72.6922 30.1918 71.4887 30.4264 70.5913 31.2268ZM69.35 36.2656C68.2993 36.8708 67.7074 37.9449 67.6499 39.0971C68.6243 39.6439 69.8466 39.683 70.8967 39.0971C71.9282 38.4918 72.5394 37.398 72.5772 36.2656C71.6036 35.699 70.3812 35.66 69.35 36.2656ZM67.0965 40.9329C65.9505 41.2846 65.1484 42.2219 64.8619 43.335C65.7021 44.0771 66.8863 44.3897 68.0323 44.0187C69.178 43.6476 69.9801 42.71 70.2666 41.6166C69.4264 40.8549 68.2422 40.5619 67.0965 40.9329ZM63.9449 45.0147C62.7611 45.1121 61.7678 45.8738 61.2711 46.8892C61.9397 47.8072 63.0476 48.354 64.2314 48.2369C65.4156 48.1198 66.4086 47.3777 66.9053 46.362C66.237 45.4441 65.1291 44.8972 63.9449 45.0147Z" fill="white"/>
<path fill-rule="evenodd" clip-rule="evenodd" d="M36.4629 50.7561C37.5897 50.3654 38.7927 50.6193 39.6523 51.3614C39.404 52.4749 38.6211 53.4314 37.4751 53.8222C36.3484 54.2129 35.1453 53.9393 34.3047 53.1972C34.5533 52.1038 35.3361 51.1468 36.4629 50.7561ZM30.9625 11.2682C30.3324 12.1471 29.3584 12.6159 28.365 12.6352L28.2123 12.8111C25.405 16.2482 23.6671 20.3493 23.1133 24.6262C22.5592 28.8835 23.1897 33.3166 25.0229 37.3787C26.8757 41.4407 29.7976 44.7608 33.3498 47.0848C36.1953 48.9203 39.4421 50.1312 42.8799 50.5412V51.2052C39.3084 50.7952 35.9473 49.5649 32.987 47.651C29.3394 45.2686 26.3406 41.8312 24.431 37.652C22.5403 33.4728 21.8909 28.9225 22.464 24.5285C23.037 20.1345 24.8128 15.9162 27.7157 12.3813L27.8687 12.1861C27.6394 11.2291 27.8113 10.1744 28.4225 9.33491C29.1482 8.35825 30.275 7.88981 31.3829 7.98722C31.8032 9.04199 31.6693 10.2919 30.9625 11.2682ZM30.4851 16.2872C29.3009 16.2482 28.2697 15.5645 27.7157 14.5685C28.3461 13.6115 29.3966 13.0063 30.5996 13.0453C31.7838 13.0844 32.8153 13.768 33.3687 14.7641C32.758 15.721 31.6883 16.3263 30.4851 16.2872ZM28.2509 20.3296C27.0855 20.5835 25.9206 20.1734 25.1567 19.3533C25.5196 18.2792 26.417 17.42 27.5822 17.1661C28.7472 16.9122 29.9121 17.3222 30.676 18.1424C30.3131 19.2165 29.4158 20.0757 28.2509 20.3296ZM27.0285 24.8017C25.9588 25.3486 24.7364 25.2315 23.8005 24.6262C23.8962 23.4935 24.5648 22.4387 25.6341 21.8922C26.7035 21.3646 27.9259 21.4624 28.8617 22.0874C28.7664 23.2202 28.0978 24.2552 27.0285 24.8017ZM26.9136 29.4498C25.9969 30.2309 24.7749 30.4264 23.7242 30.0747C23.5526 28.9422 23.9533 27.7508 24.8702 26.9696C25.7872 26.1885 26.9899 25.9933 28.0407 26.3447C28.2123 27.4774 27.8113 28.6493 26.9136 29.4498ZM27.888 33.9806C27.1812 34.9766 26.0541 35.4648 24.9466 35.367C24.5263 34.3126 24.6219 33.0824 25.3284 32.0864C26.0163 31.0904 27.143 30.6019 28.2509 30.6997C28.6901 31.7544 28.5944 32.9846 27.888 33.9806ZM29.9121 38.1405C29.4536 39.273 28.4799 40.0347 27.3914 40.2106C26.7227 39.312 26.5318 38.0621 26.9711 36.9296C27.4103 35.7968 28.3843 35.0547 29.4922 34.8595C30.1605 35.7774 30.3517 37.0077 29.9121 38.1405ZM32.8532 41.675C32.6816 42.8859 31.9174 43.8622 30.8862 44.3116C30.0267 43.5889 29.5493 42.4368 29.7213 41.2259C29.874 40.015 30.6572 39.0581 31.6694 38.5896C32.5289 39.312 33.0252 40.4641 32.8532 41.675ZM36.5393 44.3897C36.6731 45.6003 36.1575 46.7331 35.279 47.4168C34.2668 46.9283 33.5218 45.9323 33.4073 44.7218C33.2735 43.5109 33.789 42.3781 34.6675 41.675C35.6797 42.1631 36.4247 43.1592 36.5393 44.3897ZM40.7791 46.0887C41.1801 47.2409 40.9511 48.4712 40.2635 49.35C39.1556 49.1352 38.2009 48.354 37.7998 47.2019C37.3798 46.0497 37.6279 44.8192 38.3154 43.9406C39.404 44.1552 40.3591 44.9366 40.7791 46.0887ZM26.7609 11.7564C26.7609 12.9672 26.15 14.061 25.2142 14.6663C24.2398 14.0804 23.6097 13.0062 23.5904 11.7954C23.5715 10.5651 24.2019 9.49107 25.1378 8.88578C26.0926 9.47137 26.742 10.5261 26.7609 11.7564ZM23.9344 16.0724C24.202 17.2635 23.8005 18.4551 23.0178 19.2556C21.9484 18.8845 21.1078 17.9863 20.8406 16.7951C20.5733 15.6036 20.974 14.4124 21.7761 13.6116C22.8269 13.9829 23.6671 14.8811 23.9344 16.0724ZM22.0437 20.9155C22.5592 22.0286 22.4066 23.2592 21.7953 24.2162C20.6875 24.0794 19.6753 23.3763 19.1789 22.2632C18.6823 21.1501 18.8161 19.9001 19.4272 18.9625C20.5348 19.0994 21.547 19.8024 22.0437 20.9155ZM21.2034 26.0323C21.9099 27.0086 22.0247 28.2585 21.6045 29.3133C20.497 29.4107 19.3699 28.9422 18.6631 27.9656C17.9374 26.9893 17.8232 25.7393 18.2431 24.6846C19.3509 24.5872 20.4777 25.0557 21.2034 26.0323ZM21.3943 31.2268C22.292 32.0276 22.6549 33.2385 22.4829 34.3516C21.4132 34.6837 20.2104 34.4687 19.3124 33.668C18.4151 32.8478 18.0333 31.6566 18.2238 30.5435C19.2935 30.1918 20.4969 30.4264 21.3943 31.2268ZM22.6549 36.2656C23.6863 36.8708 24.2972 37.9449 24.3357 39.0971C23.3614 39.6439 22.139 39.683 21.1078 39.0971C20.0574 38.4918 19.4654 37.398 19.4083 36.2656C20.3821 35.699 21.6045 35.66 22.6549 36.2656ZM24.9084 40.9329C26.0541 41.2846 26.8565 42.2219 27.1238 43.335C26.2835 44.0771 25.0993 44.3897 23.9533 44.0187C22.8269 43.6476 22.0055 42.71 21.7383 41.6166C22.5785 40.8549 23.7627 40.5619 24.9084 40.9329ZM28.0596 45.0147C29.2435 45.1121 30.2368 45.8738 30.7145 46.8892C30.0459 47.8072 28.9573 48.354 27.7542 48.2369C26.57 48.1198 25.596 47.3777 25.0993 46.362C25.7679 45.4441 26.8565 44.8972 28.0596 45.0147ZM31.9748 48.3347C33.159 48.1782 34.2668 48.7057 34.954 49.604C34.4959 50.639 33.5218 51.4008 32.3377 51.5373C31.1537 51.6934 30.0267 51.1662 29.3395 50.268C29.8165 49.2329 30.7716 48.4712 31.9748 48.3347Z" fill="white"/>
<path fill-rule="evenodd" clip-rule="evenodd" d="M45.994 0L46.9681 3.1051L50.1575 3.08579L47.5793 4.99938L48.5722 8.10448L45.994 6.1712L43.4347 8.10448L44.409 4.99938L41.8305 3.08579L45.0199 3.1051L45.994 0ZM38.431 4.90191L37.8009 6.91325H35.7383L37.3999 8.14348L36.7694 10.1552L38.431 8.92493L40.1115 10.1552L39.4622 8.14348L41.143 6.91325H39.0804L38.431 4.90191ZM53.5571 4.90191L54.2064 6.91325H56.2688L54.5883 8.14348L55.2376 10.1552L53.5571 8.92493L51.8955 10.1552L52.5259 8.14348L50.8644 6.91325H52.9267L53.5571 4.90191Z" fill="white"/>
<path fill-rule="evenodd" clip-rule="evenodd" d="M45.994 49.5454C46.7197 49.5454 47.2928 50.1313 47.2928 50.8734C47.2928 51.6154 46.7197 52.2014 45.994 52.2014C45.2876 52.2014 44.6953 51.6154 44.6953 50.8734C44.6953 50.1313 45.2876 49.5454 45.994 49.5454Z" fill="white"/>
<g clip-path="url(#clip0_2002_2207)">
<mask id="mask0_2002_2207" style="mask-type:luminance" maskUnits="userSpaceOnUse" x="0" y="65" width="92" height="19">
<path d="M91.2459 65H0V83.5455H91.2459V65Z" fill="white"/>
</mask>
<g mask="url(#mask0_2002_2207)">
<path d="M9.04593 83.3217C7.74632 83.3217 6.64081 83.186 5.72941 82.9147C4.818 82.6434 4.06694 82.228 3.47621 81.6684C2.90236 81.092 2.48042 80.3544 2.21037 79.4557C1.94033 78.557 1.80531 77.4719 1.80531 76.2002V66.7897H0.0078125V65.2637H7.14714V66.7897H5.34965V76.3783C5.34965 77.2429 5.41717 77.9975 5.55219 78.6418C5.68721 79.2862 5.90662 79.8203 6.21043 80.2441C6.53111 80.6511 6.94461 80.9648 7.45095 81.1852C7.97413 81.3887 8.61549 81.4904 9.37502 81.4904C10.9109 81.4904 11.9911 81.0835 12.6155 80.2696C13.2401 79.4387 13.5523 78.1586 13.5523 76.4291V66.7897H11.7548V65.2637H17.1726V66.7897H15.3751V76.1747C15.3751 78.5485 14.8772 80.3374 13.8814 81.5413C12.9025 82.7282 11.2907 83.3217 9.04593 83.3217ZM19.2692 81.4904H21.0666V66.7897H19.2692V65.2637H25.3452L33.244 78.3875H33.3706V66.7897H31.5731V65.2637H36.9909V66.7897H35.1934V83.0165H32.0794L23.0161 68.0868H22.8894V81.4904H24.6869V83.0165H19.2692V81.4904ZM39.1962 81.4904H40.9938V66.7897H39.1962V65.2637H46.3356V66.7897H44.5381V81.4904H46.3356V83.0165H39.1962V81.4904ZM48.6158 81.4904H50.4134V66.7897H48.6158V65.2637H57.9326C59.7216 65.2637 61.0635 65.6706 61.958 66.4845C62.8525 67.2984 63.2998 68.5022 63.2998 70.0961C63.2998 71.6899 62.8187 72.9362 61.8567 73.8348C60.8946 74.7166 59.5275 75.1574 57.7554 75.1574H53.9578V81.4904H56.363V83.0165H48.6158V81.4904ZM53.9578 73.4788H56.8946C57.7723 73.4788 58.4474 73.2499 58.92 72.792C59.4094 72.3343 59.6542 71.6815 59.6542 70.8337V69.562C59.6542 68.7142 59.4094 68.0614 58.92 67.6036C58.4474 67.1458 57.7723 66.9169 56.8946 66.9169H53.9578V73.4788ZM65.4527 81.4904H67.2503V66.7897H65.4527V65.2637H72.5921V66.7897H70.7946V81.4904H72.5921V83.0165H65.4527V81.4904ZM74.2899 81.4904H75.9103L81.0751 74.4707L76.0369 66.7897H74.5937V65.2637H81.8088V66.7897H80.0872L83.4037 71.9528H83.5304L87.0498 66.7897H85.3787V65.2637H90.8474V66.7897H89.2269L84.4165 73.4025L89.708 81.4904H91.1506V83.0165H83.9354V81.4904H85.657L82.0878 75.9204H81.9355L78.0873 81.4904H79.7584V83.0165H74.2899V81.4904Z" fill="white"/>
</g>
<path d="M4.3107 93.2549C4.27642 92.9431 4.13503 92.7017 3.88652 92.5304C3.638 92.357 3.32522 92.2703 2.94818 92.2703C2.67825 92.2703 2.44473 92.3142 2.24763 92.402C2.05054 92.4876 1.89737 92.6062 1.78811 92.7577C1.68099 92.907 1.62743 93.0771 1.62743 93.2681C1.62743 93.4283 1.66386 93.5666 1.73669 93.6829C1.81167 93.7993 1.90915 93.897 2.02912 93.976C2.15123 94.0528 2.28191 94.1176 2.42117 94.1703C2.56042 94.2208 2.69431 94.2625 2.82285 94.2954L3.46555 94.4666C3.6755 94.5193 3.8908 94.5907 4.11146 94.6807C4.33212 94.7707 4.53671 94.8893 4.72524 95.0363C4.91376 95.1834 5.06586 95.3656 5.18155 95.5829C5.29938 95.8003 5.35829 96.0604 5.35829 96.3634C5.35829 96.7453 5.26189 97.0845 5.06908 97.3808C4.87841 97.6772 4.60098 97.911 4.23679 98.0822C3.87474 98.2535 3.43663 98.3391 2.92247 98.3391C2.42973 98.3391 2.00341 98.259 1.6435 98.0987C1.28359 97.9384 1.00188 97.7112 0.798354 97.4171C0.594833 97.1207 0.482361 96.7694 0.460938 96.3634H1.45712C1.4764 96.607 1.55352 96.8101 1.68849 96.9725C1.8256 97.1328 2.0002 97.2524 2.21229 97.3315C2.42652 97.4083 2.66111 97.4467 2.91604 97.4467C3.19669 97.4467 3.44626 97.4017 3.66479 97.3117C3.88544 97.2195 4.05897 97.0921 4.18537 96.9297C4.31177 96.7651 4.37497 96.573 4.37497 96.3535C4.37497 96.1537 4.31926 95.9902 4.20787 95.8628C4.09861 95.7355 3.94972 95.6301 3.76119 95.5467C3.57481 95.4633 3.36379 95.3897 3.12813 95.3261L2.35047 95.1088C1.82345 94.9617 1.40571 94.7454 1.09721 94.4601C0.790859 94.1747 0.637679 93.7971 0.637679 93.3273C0.637679 92.9387 0.740511 92.5996 0.946173 92.3098C1.15184 92.02 1.43034 91.795 1.78168 91.6348C2.13303 91.4723 2.52935 91.3911 2.97067 91.3911C3.41627 91.3911 3.80939 91.4712 4.15002 91.6315C4.4928 91.7918 4.76272 92.0124 4.95982 92.2933C5.15691 92.5721 5.25974 92.8927 5.26832 93.2549H4.3107ZM12.011 93.6764H11.0084C10.9699 93.4568 10.8981 93.2637 10.7931 93.0968C10.6881 92.93 10.5596 92.7884 10.4075 92.6721C10.2554 92.5557 10.0851 92.4679 9.89657 92.4086C9.71015 92.3494 9.51198 92.3197 9.30203 92.3197C8.92287 92.3197 8.5833 92.4174 8.2834 92.6128C7.98561 92.8081 7.74995 93.0947 7.57643 93.4722C7.40502 93.8498 7.31932 94.3108 7.31932 94.8552C7.31932 95.404 7.40502 95.8672 7.57643 96.2448C7.74995 96.6224 7.98666 96.9078 8.28657 97.1009C8.58647 97.2941 8.92393 97.3907 9.29887 97.3907C9.50662 97.3907 9.70374 97.3622 9.89008 97.3051C10.0786 97.2458 10.249 97.1591 10.4011 97.045C10.5532 96.9308 10.6817 96.7914 10.7867 96.6268C10.8938 96.46 10.9677 96.269 11.0084 96.0538L12.011 96.0571C11.9574 96.3886 11.8535 96.6937 11.6993 96.9725C11.5472 97.2492 11.3511 97.4884 11.1113 97.6904C10.8734 97.8901 10.6013 98.0449 10.295 98.1546C9.98864 98.2644 9.65442 98.3193 9.29238 98.3193C8.72251 98.3193 8.21485 98.181 7.76918 97.9044C7.32361 97.6256 6.97226 97.2272 6.71519 96.7091C6.46025 96.1911 6.33278 95.573 6.33278 94.8552C6.33278 94.1351 6.46132 93.5172 6.7184 93.0013C6.97548 92.4833 7.32682 92.0859 7.77242 91.8093C8.21802 91.5305 8.7247 91.3911 9.29238 91.3911C9.64161 91.3911 9.96723 91.4427 10.2693 91.5459C10.5735 91.6469 10.8467 91.7962 11.0887 91.9937C11.3309 92.1891 11.5311 92.4283 11.6897 92.7116C11.8482 92.9926 11.9553 93.3141 12.011 93.6764ZM13.1992 98.2271V91.4833H14.1921V94.4139H17.4731V91.4833H18.4693V98.2271H17.4731V95.2866H14.1921V98.2271H13.1992ZM25.6322 94.8552C25.6322 95.5753 25.5036 96.1943 25.2465 96.7124C24.9895 97.2283 24.6371 97.6256 24.1893 97.9044C23.7437 98.181 23.2371 98.3193 22.6693 98.3193C22.0995 98.3193 21.5907 98.181 21.143 97.9044C20.6974 97.6256 20.346 97.2272 20.0889 96.7091C19.8318 96.1911 19.7033 95.573 19.7033 94.8552C19.7033 94.1351 19.8318 93.5172 20.0889 93.0013C20.346 92.4833 20.6974 92.0859 21.143 91.8093C21.5907 91.5305 22.0995 91.3911 22.6693 91.3911C23.2371 91.3911 23.7437 91.5305 24.1893 91.8093C24.6371 92.0859 24.9895 92.4833 25.2465 93.0013C25.5036 93.5172 25.6322 94.1351 25.6322 94.8552ZM24.6488 94.8552C24.6488 94.3064 24.5621 93.8443 24.3886 93.4689C24.2172 93.0913 23.9815 92.806 23.6816 92.6128C23.3838 92.4174 23.0464 92.3197 22.6693 92.3197C22.2902 92.3197 21.9517 92.4174 21.6539 92.6128C21.3561 92.806 21.1204 93.0913 20.9469 93.4689C20.7756 93.8443 20.6898 94.3064 20.6898 94.8552C20.6898 95.404 20.7756 95.8672 20.9469 96.2448C21.1204 96.6202 21.3561 96.9056 21.6539 97.1009C21.9517 97.2941 22.2902 97.3907 22.6693 97.3907C23.0464 97.3907 23.3838 97.2941 23.6816 97.1009C23.9815 96.9056 24.2172 96.6202 24.3886 96.2448C24.5621 95.8672 24.6488 95.404 24.6488 94.8552ZM32.587 94.8552C32.587 95.5753 32.4584 96.1943 32.2014 96.7124C31.9443 97.2283 31.5919 97.6256 31.1441 97.9044C30.6985 98.181 30.1918 98.3193 29.6242 98.3193C29.0543 98.3193 28.5455 98.181 28.0977 97.9044C27.6521 97.6256 27.3008 97.2272 27.0437 96.7091C26.7866 96.1911 26.6581 95.573 26.6581 94.8552C26.6581 94.1351 26.7866 93.5172 27.0437 93.0013C27.3008 92.4833 27.6521 92.0859 28.0977 91.8093C28.5455 91.5305 29.0543 91.3911 29.6242 91.3911C30.1918 91.3911 30.6985 91.5305 31.1441 91.8093C31.5919 92.0859 31.9443 92.4833 32.2014 93.0013C32.4584 93.5172 32.587 94.1351 32.587 94.8552ZM31.6037 94.8552C31.6037 94.3064 31.5169 93.8443 31.3433 93.4689C31.1719 93.0913 30.9363 92.806 30.6364 92.6128C30.3386 92.4174 30.0012 92.3197 29.6242 92.3197C29.2449 92.3197 28.9065 92.4174 28.6087 92.6128C28.3109 92.806 28.0752 93.0913 27.9017 93.4689C27.7303 93.8443 27.6446 94.3064 27.6446 94.8552C27.6446 95.404 27.7303 95.8672 27.9017 96.2448C28.0752 96.6202 28.3109 96.9056 28.6087 97.1009C28.9065 97.2941 29.2449 97.3907 29.6242 97.3907C30.0012 97.3907 30.3386 97.2941 30.6364 97.1009C30.9363 96.9056 31.1719 96.6202 31.3433 96.2448C31.5169 95.8672 31.6037 95.404 31.6037 94.8552ZM33.8249 98.2271V91.4833H34.8179V97.3512H37.8001V98.2271H33.8249ZM43.1658 98.3226C42.7244 98.3226 42.3442 98.2403 42.025 98.0757C41.7079 97.911 41.4637 97.6871 41.2923 97.4039C41.1209 97.1185 41.0352 96.7958 41.0352 96.4358C41.0352 96.1614 41.0909 95.9178 41.2024 95.7048C41.3137 95.4897 41.4691 95.291 41.6683 95.1088C41.8675 94.9266 42.0978 94.7433 42.3592 94.5588L43.4196 93.7916C43.5996 93.6709 43.7399 93.5435 43.8406 93.4096C43.9413 93.2736 43.9916 93.1056 43.9916 92.9058C43.9916 92.7478 43.9253 92.5963 43.7924 92.4514C43.6596 92.3066 43.4818 92.2341 43.2589 92.2341C43.1047 92.2341 42.9687 92.2725 42.8508 92.3494C42.7351 92.4262 42.6441 92.5249 42.5777 92.6457C42.5134 92.7642 42.4813 92.8894 42.4813 93.0211C42.4813 93.1747 42.522 93.3295 42.6034 93.4854C42.687 93.6412 42.7941 93.8026 42.9248 93.9695C43.0555 94.1341 43.1926 94.3053 43.3361 94.4831L46.3921 98.2271H45.3059L42.7769 95.1812C42.5649 94.9244 42.3677 94.6829 42.1856 94.4568C42.0036 94.2285 41.8557 93.998 41.7422 93.7653C41.6308 93.5304 41.5751 93.2769 41.5751 93.0046C41.5751 92.6951 41.6437 92.4207 41.7808 92.1814C41.92 91.9399 42.1139 91.7511 42.3624 91.615C42.6109 91.4789 42.9022 91.4109 43.2365 91.4109C43.575 91.4109 43.8652 91.4789 44.1073 91.615C44.3515 91.749 44.539 91.9278 44.6697 92.1518C44.8025 92.3735 44.8689 92.616 44.8689 92.8795C44.8689 93.2 44.7907 93.4832 44.6343 93.7291C44.4801 93.9727 44.2669 94.1967 43.9949 94.4008L42.6741 95.3986C42.4171 95.5917 42.2381 95.7827 42.1374 95.9715C42.0389 96.1581 41.9896 96.3041 41.9896 96.4094C41.9896 96.6026 42.0378 96.7816 42.1343 96.9462C42.2328 97.1108 42.3699 97.2426 42.5456 97.3413C42.7234 97.4401 42.9312 97.4896 43.169 97.4896C43.4132 97.4896 43.651 97.4358 43.8823 97.3281C44.1159 97.2184 44.3269 97.0615 44.5154 96.8573C44.7061 96.6532 44.8572 96.4084 44.9686 96.123C45.0799 95.8376 45.1357 95.5182 45.1357 95.1647H46.0032C46.0032 95.5994 45.9551 95.9671 45.8587 96.2679C45.7622 96.5665 45.6455 96.8101 45.5084 96.9989C45.3734 97.1855 45.246 97.3315 45.126 97.4369C45.0875 97.4719 45.051 97.5071 45.0167 97.5422C44.9825 97.5773 44.9461 97.6124 44.9075 97.6476C44.6847 97.8781 44.4147 98.0482 44.0977 98.158C43.7827 98.2678 43.4721 98.3226 43.1658 98.3226ZM55.083 93.6764H54.0804C54.0418 93.4568 53.9701 93.2637 53.8651 93.0968C53.7601 92.93 53.6316 92.7884 53.4795 92.6721C53.3274 92.5557 53.1571 92.4679 52.9686 92.4086C52.7821 92.3494 52.584 92.3197 52.374 92.3197C51.9949 92.3197 51.6553 92.4174 51.3553 92.6128C51.0576 92.8081 50.8219 93.0947 50.6483 93.4722C50.477 93.8498 50.3913 94.3108 50.3913 94.8552C50.3913 95.404 50.477 95.8672 50.6483 96.2448C50.8219 96.6224 51.0586 96.9078 51.3586 97.1009C51.6585 97.2941 51.9959 97.3907 52.3708 97.3907C52.5786 97.3907 52.7757 97.3622 52.9621 97.3051C53.1506 97.2458 53.3209 97.1591 53.473 97.045C53.6251 96.9308 53.7536 96.7914 53.8587 96.6268C53.9658 96.46 54.0397 96.269 54.0804 96.0538L55.083 96.0571C55.0294 96.3886 54.9255 96.6937 54.7713 96.9725C54.6192 97.2492 54.4231 97.4884 54.1832 97.6904C53.9454 97.8901 53.6733 98.0449 53.367 98.1546C53.0606 98.2644 52.7264 98.3193 52.3644 98.3193C51.7945 98.3193 51.2868 98.181 50.8412 97.9044C50.3956 97.6256 50.0442 97.2272 49.7872 96.7091C49.5322 96.1911 49.4048 95.573 49.4048 94.8552C49.4048 94.1351 49.5333 93.5172 49.7904 93.0013C50.0475 92.4833 50.3988 92.0859 50.8444 91.8093C51.29 91.5305 51.7967 91.3911 52.3644 91.3911C52.7136 91.3911 53.0392 91.4427 53.3413 91.5459C53.6455 91.6469 53.9186 91.7962 54.1607 91.9937C54.4028 92.1891 54.6031 92.4283 54.7616 92.7116C54.9202 92.9926 55.0273 93.3141 55.083 93.6764ZM61.9879 94.8552C61.9879 95.5753 61.8594 96.1943 61.6024 96.7124C61.3453 97.2283 60.9928 97.6256 60.5451 97.9044C60.0995 98.181 59.5929 98.3193 59.0252 98.3193C58.4553 98.3193 57.9465 98.181 57.4987 97.9044C57.0531 97.6256 56.7018 97.2272 56.4447 96.7091C56.1876 96.1911 56.0591 95.573 56.0591 94.8552C56.0591 94.1351 56.1876 93.5172 56.4447 93.0013C56.7018 92.4833 57.0531 92.0859 57.4987 91.8093C57.9465 91.5305 58.4553 91.3911 59.0252 91.3911C59.5929 91.3911 60.0995 91.5305 60.5451 91.8093C60.9928 92.0859 61.3453 92.4833 61.6024 93.0013C61.8594 93.5172 61.9879 94.1351 61.9879 94.8552ZM61.0047 94.8552C61.0047 94.3064 60.9179 93.8443 60.7444 93.4689C60.573 93.0913 60.3373 92.806 60.0374 92.6128C59.7396 92.4174 59.4022 92.3197 59.0252 92.3197C58.6459 92.3197 58.3075 92.4174 58.0097 92.6128C57.7119 92.806 57.4763 93.0913 57.3027 93.4689C57.1313 93.8443 57.0457 94.3064 57.0457 94.8552C57.0457 95.404 57.1313 95.8672 57.3027 96.2448C57.4763 96.6202 57.7119 96.9056 58.0097 97.1009C58.3075 97.2941 58.6459 97.3907 59.0252 97.3907C59.4022 97.3907 59.7396 97.2941 60.0374 97.1009C60.3373 96.9056 60.573 96.6202 60.7444 96.2448C60.9179 95.8672 61.0047 95.404 61.0047 94.8552ZM63.2259 98.2271V91.4833H64.2189V97.3512H67.201V98.2271H63.2259ZM68.3338 98.2271V91.4833H69.3268V97.3512H72.3089V98.2271H68.3338ZM74.3334 98.2271H73.2794L75.6478 91.4833H76.7948L79.1634 98.2271H78.1092L76.2488 92.7083H76.1976L74.3334 98.2271ZM74.5101 95.5863H77.929V96.4424H74.5101V95.5863ZM84.2581 93.6138C84.1963 93.414 84.1126 93.2352 84.0078 93.0771C83.9045 92.9168 83.7815 92.7807 83.6383 92.6687C83.4942 92.5546 83.3306 92.4679 83.1466 92.4086C82.9641 92.3494 82.7643 92.3197 82.5456 92.3197C82.1746 92.3197 81.8405 92.4174 81.5426 92.6128C81.2448 92.8081 81.0095 93.0947 80.836 93.4722C80.6649 93.8476 80.5789 94.3075 80.5789 94.8519C80.5789 95.3986 80.6656 95.8606 80.8391 96.2382C81.0125 96.6158 81.2508 96.9023 81.5524 97.0977C81.8548 97.293 82.1987 97.3907 82.584 97.3907C82.9415 97.3907 83.2537 97.3161 83.5191 97.1668C83.7868 97.0176 83.9934 96.8068 84.139 96.5346C84.2875 96.2601 84.3614 95.9375 84.3614 95.5665L84.6178 95.6158H82.7349V94.7762H85.3222V95.5434C85.3222 96.1098 85.2038 96.6015 84.9685 97.0187C84.7347 97.4335 84.4112 97.7541 83.998 97.9802C83.587 98.2063 83.1157 98.3193 82.584 98.3193C81.9883 98.3193 81.4657 98.1788 81.0155 97.8979C80.5683 97.6168 80.2192 97.2184 79.9681 96.7025C79.7177 96.1844 79.5925 95.5698 79.5925 94.8585C79.5925 94.3207 79.6649 93.8377 79.8105 93.4096C79.9568 92.9815 80.1611 92.6183 80.4243 92.3197C80.6905 92.019 81.0019 91.7895 81.3594 91.6315C81.7198 91.4712 82.1127 91.3911 82.5388 91.3911C82.8947 91.3911 83.2258 91.4449 83.5319 91.5525C83.8404 91.66 84.1149 91.8126 84.3547 92.0101C84.5967 92.2077 84.7973 92.4426 84.9557 92.7149C85.114 92.9849 85.2211 93.2845 85.2769 93.6138H84.2581ZM86.5823 98.2271V91.4833H90.7087V92.3592H87.5754V94.4139H90.493V95.2866H87.5754V97.3512H90.7472V98.2271H86.5823Z" fill="white"/>
</g>
<defs>
<clipPath id="clip0_2002_2207">
<rect width="92" height="34" fill="white" transform="translate(0 65)"/>
</clipPath>
</defs>
</svg>
