<?xml version="1.0" standalone="no"?>
<!DOCTYPE svg PUBLIC "-//W3C//DTD SVG 1.1//EN" "http://www.w3.org/Graphics/SVG/1.1/DTD/svg11.dtd" >
<svg xmlns="http://www.w3.org/2000/svg" xmlns:xlink="http://www.w3.org/1999/xlink" version="1.1">
<metadata>
Created by FontForge 20201107 at Mon Feb 19 14:12:42 2024
 By 
Copyright (C)2016 Commercial Type.
</metadata>
<defs>
<font id="Canela-Medium" horiz-adv-x="1241" >
  <font-face 
    font-family="Canela Medium Trial"
    font-weight="500"
    font-stretch="normal"
    units-per-em="2048"
    panose-1="0 0 0 0 0 0 0 0 0 0"
    ascent="1587"
    descent="-461"
    x-height="987"
    cap-height="1499"
    bbox="-16 -465 2095 1593"
    underline-thickness="40"
    underline-position="-163"
    unicode-range="U+0020-201D"
  />
<missing-glyph horiz-adv-x="329" 
 />
    <glyph glyph-name=".notdef" horiz-adv-x="329" 
 />
    <glyph glyph-name=".null" horiz-adv-x="0" 
 />
    <glyph glyph-name="nonmarkingreturn" horiz-adv-x="682" 
 />
    <glyph glyph-name="space" unicode=" " horiz-adv-x="346" 
 />
    <glyph glyph-name="exclam" unicode="!" horiz-adv-x="485" 
d="M385 1499v-4l-125 -1003h-35l-125 1003v4h285zM244 -10q-65 0 -110.5 45.5t-45.5 109.5q0 66 45 112t111 46q65 0 110 -46t45 -112q0 -63 -45.5 -109t-109.5 -46z" />
    <glyph glyph-name="quotedbl" unicode="&#x22;" horiz-adv-x="675" 
d="M174 1022l-117 477h254l-116 -477h-21zM481 1022l-116 477h253l-116 -477h-21z" />
    <glyph glyph-name="quotesingle" unicode="'" horiz-adv-x="368" 
d="M174 1022l-117 477h254l-116 -477h-21z" />
    <glyph glyph-name="comma" unicode="," horiz-adv-x="528" 
d="M78 -287l-10 17q65 53 103 115.5t38 117.5q0 61 -121 187v6l221 161q52 -33 85.5 -87.5t33.5 -110.5q0 -80 -54 -162.5t-131.5 -143.5t-164.5 -100z" />
    <glyph glyph-name="hyphen" unicode="-" horiz-adv-x="563" 
d="M508 510h-453v139h453v-139z" />
    <glyph glyph-name="period" unicode="." horiz-adv-x="518" 
d="M260 -10q-63 0 -108.5 45t-45.5 108t45.5 108.5t108.5 45.5q62 0 107 -45.5t45 -108.5t-45 -108t-107 -45z" />
    <glyph glyph-name="zero" unicode="0" horiz-adv-x="1421" 
d="M707 -31q-129 0 -246.5 60.5t-202.5 164t-135.5 248.5t-50.5 308q0 219 85 398.5t230.5 280.5t319.5 101q131 0 249.5 -59.5t205 -162.5t137.5 -248.5t51 -309.5q0 -162 -51.5 -307.5t-138 -249t-205 -164t-248.5 -60.5zM707 12q323 0 323 738q0 737 -323 737
q-88 0 -151 -54.5t-98 -156.5t-51 -230.5t-16 -295.5q0 -738 316 -738z" />
    <glyph glyph-name="one" unicode="1" horiz-adv-x="745" 
d="M645 0h-502v4q63 81 83 143.5t20 171.5v863h-180v20q256 122 452 324h25v-1207q0 -111 19.5 -172.5t82.5 -142.5v-4z" />
    <glyph glyph-name="two" unicode="2" horiz-adv-x="1107" 
d="M932 0h-924v29q269 247 424 435.5t220 342t65 313.5q0 171 -61 269t-175 98q-108 0 -198 -100.5t-185 -290.5l-20 6l53 362q168 66 358 66q263 0 394 -111t131 -293q0 -107 -46.5 -211.5t-145 -214t-229.5 -218t-321 -242.5h383q130 0 222 49.5t167 136.5l17 -4z" />
    <glyph glyph-name="three" unicode="3" horiz-adv-x="1157" 
d="M510 -31q-114 0 -224.5 25.5t-176.5 64.5l-50 342l21 5q37 -60 60 -96t55.5 -83t56.5 -74.5t56.5 -58t61.5 -46t64.5 -26t73.5 -10.5q96 0 164 60t99.5 159t31.5 228q0 207 -81 310t-233 103q-140 0 -266 -88l-18 27l543 451h-635l102 237h866v-20l-696 -578
q79 27 178 27q81 0 157 -17.5t145 -55t120.5 -91.5t82 -132.5t30.5 -172.5q0 -221 -162.5 -355.5t-425.5 -134.5z" />
    <glyph glyph-name="four" unicode="4" horiz-adv-x="1193" 
d="M571 0v4q50 81 66 143t16 172v70h-649v27l668 1083h340l-949 -1059h590v453h299v-453h189l-17 -51h-172v-70q0 -111 15.5 -172.5t66.5 -142.5v-4h-463z" />
    <glyph glyph-name="five" unicode="5" horiz-adv-x="1103" 
d="M463 -31q-217 0 -363 90l-51 342l21 5q43 -75 74 -125.5t72.5 -106t78 -87.5t82 -53.5t92.5 -21.5q128 0 207.5 120.5t79.5 330.5q0 214 -87 323t-257 109q-138 0 -260 -78l-17 8l113 674h770l-45 -237h-717l-66 -390q128 76 295 76q86 0 165.5 -17.5t151 -55.5
t124 -92.5t83.5 -134.5t31 -175q0 -120 -47.5 -217.5t-128.5 -159t-184 -94.5t-217 -33z" />
    <glyph glyph-name="six" unicode="6" 
d="M631 -31q-167 0 -296 82t-197 219.5t-68 304.5q0 74 13 148t43.5 154t76.5 155t115.5 149t156.5 137t204.5 118.5t254.5 93.5l8 -23q-117 -47 -212 -123t-159 -169.5t-106 -192.5t-66 -209q38 80 115 131t195 51q131 0 238.5 -56.5t173 -168.5t65.5 -260
q0 -158 -75 -282.5t-201.5 -191.5t-278.5 -67zM637 12q119 0 185.5 120t66.5 343q0 426 -260 426q-80 0 -145.5 -39.5t-96.5 -116.5q-18 -114 -18 -221q0 -104 15 -193t46 -162t84 -115t123 -42z" />
    <glyph glyph-name="seven" unicode="7" horiz-adv-x="1054" 
d="M455 0h-287q178 607 700 1247h-815l58 252h952v-20q-485 -755 -608 -1479z" />
    <glyph glyph-name="eight" unicode="8" horiz-adv-x="1181" 
d="M578 -31q-148 0 -267 46t-190.5 136.5t-71.5 210.5q0 124 82 218.5t252 146.5q-262 145 -262 389q0 182 133.5 298t343.5 116q197 0 330 -98.5t133 -251.5q0 -37 -8 -72t-29 -72t-52.5 -69t-82 -60.5t-115.5 -48.5q359 -184 359 -459q0 -128 -74 -227t-199.5 -151
t-281.5 -52zM580 12q137 0 220 77.5t83 203.5q0 47 -11.5 85.5t-39.5 73.5t-60 63t-88.5 60.5t-109 58.5t-136.5 64l-14 7q-166 -120 -166 -338q0 -161 85 -258t237 -97zM723 883l8 -4q119 109 119 301q0 145 -65 226t-183 81q-115 0 -180.5 -69t-65.5 -175
q0 -114 84.5 -192.5t282.5 -167.5z" />
    <glyph glyph-name="nine" unicode="9" 
d="M307 -31l-6 23q114 49 207.5 125t158 168t107.5 191t68 208q-40 -79 -118.5 -129.5t-199.5 -50.5q-95 0 -179.5 33.5t-149 94t-102.5 153.5t-38 204q0 158 75 282.5t201.5 191.5t280.5 67q165 0 293.5 -81.5t197 -219t68.5 -305.5q0 -104 -26 -208.5t-89.5 -217
t-159.5 -209t-247.5 -182t-341.5 -138.5zM614 598q77 0 141 38t99 114q20 111 20 227q0 102 -15.5 191.5t-47 162t-84 114.5t-121.5 42q-120 0 -187 -120t-67 -341q0 -428 262 -428z" />
    <glyph glyph-name="question" unicode="?" horiz-adv-x="880" 
d="M289 492h-33q10 80 45 148.5t76.5 120.5t82.5 109t68 139.5t27 184.5q0 139 -49 218t-135 79q-43 0 -81.5 -21.5t-75 -67.5t-64 -90.5t-66.5 -117.5l-14 4l41 281q126 51 290 51q213 0 327 -82.5t114 -245.5q0 -76 -25 -141t-67 -112.5t-94 -89.5t-108 -82.5
t-105.5 -80.5t-91.5 -92.5t-62 -111.5zM291 -10q-65 0 -110.5 45.5t-45.5 109.5q0 66 45 112t111 46q65 0 110 -46t45 -112q0 -63 -45.5 -109t-109.5 -46z" />
    <glyph glyph-name="A" unicode="A" horiz-adv-x="1366" 
d="M784 610l-221 598l-221 -598h442zM324 4v-4h-324v4q66 66 111.5 149.5t95.5 217.5l424 1140h114l433 -1157q48 -128 91 -209t97 -141v-4h-500v4q40 60 43 153.5t-39 219.5l-69 188h-475l-41 -108q-42 -111 -44.5 -205t20 -150.5t63.5 -97.5z" />
    <glyph glyph-name="B" unicode="B" horiz-adv-x="1327" 
d="M698 0h-604v4q48 104 65 182.5t17 212.5v701q0 135 -16.5 213t-65.5 182v4q116 0 331.5 3t262.5 3q122 1 215.5 -19t150 -52.5t92.5 -79.5t49 -94.5t13 -102.5q0 -126 -70.5 -222.5t-224.5 -143.5q190 -32 279.5 -134.5t89.5 -246.5q0 -188 -143 -299t-441 -111zM471 803
h184q74 1 129 30.5t85 79t44.5 106t14.5 120.5q0 150 -76.5 236.5t-228.5 86.5q-86 0 -152 -16v-643zM629 41q171 0 258.5 99.5t87.5 267.5q0 160 -75 255t-230 95h-199v-699q77 -18 158 -18z" />
    <glyph glyph-name="C" unicode="C" horiz-adv-x="1554" 
d="M1462 508l-41 -389q-21 -15 -66 -37t-117 -49t-171.5 -45.5t-200.5 -18.5q-233 0 -418 101t-287 277t-102 394q0 163 63 308.5t172.5 251.5t266 167.5t334.5 61.5q254 0 518 -88l41 -355l-18 -6q-83 115 -145 186.5t-129 124t-134.5 74t-150.5 21.5q-132 0 -228.5 -54.5
t-154 -156.5t-84.5 -234.5t-27 -300.5q0 -165 30 -298t89 -229.5t152 -149t214 -52.5q79 0 148.5 24.5t124.5 65t109.5 108t97.5 136.5t96 168z" />
    <glyph glyph-name="D" unicode="D" horiz-adv-x="1589" 
d="M94 0v4q49 95 65.5 165t16.5 191v779q0 121 -16.5 191t-65.5 165v4q115 0 277.5 4t302.5 4q401 0 627.5 -195.5t226.5 -555.5q0 -363 -222.5 -559.5t-631.5 -196.5h-580zM662 1462q-39 0 -191 -4v-1413h197q151 2 256 46.5t166.5 133.5t88.5 210.5t27 291.5
q0 378 -130.5 557t-413.5 178z" />
    <glyph glyph-name="E" unicode="E" horiz-adv-x="1310" 
d="M1280 436l-96 -436h-1090v4q45 114 62.5 189.5t17.5 187.5v737q0 113 -18 189t-62 188v4h1000l77 -379l-18 -6q-27 28 -89 97t-103.5 113t-93.5 83t-87 41l-309 16v-680h152q36 0 77.5 24.5t65.5 47.5t71 74.5t58 62.5h18v-463h-18q-16 16 -57.5 61.5t-68.5 72t-68.5 51
t-77.5 24.5h-152v-704l334 14q174 9 457 393z" />
    <glyph glyph-name="F" unicode="F" horiz-adv-x="1236" 
d="M553 4v-4h-459v4q48 104 65 182.5t17 212.5v701q0 135 -16.5 213t-65.5 182v4h1043l77 -379l-20 -4q-26 27 -88.5 96t-104.5 113.5t-94 84t-86 40.5l-350 16v-669h180q29 0 59 13.5t60.5 39.5t53 49t54 58.5t46.5 50.5h18v-465h-18q-14 14 -57.5 61.5t-69.5 73t-68 50
t-78 24.5h-180v-353q0 -134 17 -212.5t65 -182.5z" />
    <glyph glyph-name="G" unicode="G" horiz-adv-x="1626" 
d="M1489 193l-12 -9q-41 -31 -69 -50.5t-91.5 -54.5t-122.5 -56t-147.5 -37.5t-182.5 -16.5q-180 0 -331.5 59t-255 162t-161 245t-57.5 306q0 165 58.5 309t166.5 250.5t271 168t360 61.5q80 0 154 -7.5t149.5 -25t107 -26t104.5 -29.5l40 -355l-20 -6
q-106 150 -190.5 235.5t-174 128t-194.5 42.5q-130 0 -229 -56t-159 -158t-90 -235.5t-30 -296.5q0 -165 28 -296t85 -229t151 -151t219 -53q158 0 256 82.5t99 237.5q1 113 -22 185t-83 165v4h455v-4q-49 -101 -65.5 -179.5t-16.5 -215.5v-94z" />
    <glyph glyph-name="H" unicode="H" horiz-adv-x="1599" 
d="M94 0v4q48 104 65 182.5t17 212.5v701q0 135 -16.5 213t-65.5 182v4h459v-4q-48 -104 -65 -182.5t-17 -210.5v-311h657v309q0 135 -17 214t-67 181v4h461v-4q-48 -105 -65 -184t-17 -209v-703q0 -132 17 -210.5t65 -184.5v-4h-461v4q50 102 67 181t17 214v349h-657v-349
q0 -134 17 -212.5t65 -182.5v-4h-459z" />
    <glyph glyph-name="I" unicode="I" horiz-adv-x="647" 
d="M94 0v4q49 104 65.5 182t16.5 213v701q0 135 -16.5 213t-65.5 182v4h459v-4q-48 -104 -65 -182.5t-17 -210.5v-703q0 -134 17 -212.5t65 -182.5v-4h-459z" />
    <glyph glyph-name="J" unicode="J" horiz-adv-x="903" 
d="M745 348q0 -179 -111 -279t-300 -100q-131 0 -252 47l-41 371l18 6q20 -33 46.5 -79t42 -71.5t36 -60t33 -53t29 -41t27.5 -34t24.5 -23t25.5 -15.5t25 -4q47 0 76 56.5t29 154.5v877q0 133 -17 211t-65 184v4h456v-4q-48 -105 -65 -184t-17 -209v-754z" />
    <glyph glyph-name="K" unicode="K" horiz-adv-x="1413" 
d="M94 0v4q48 104 65 182.5t17 212.5v701q0 135 -16.5 213t-65.5 182v4h459v-4q-48 -104 -65 -182.5t-17 -210.5v-703q0 -134 17 -212.5t65 -182.5v-4h-459zM1436 0h-422l-522 739l376 420q190 213 99 336v4h399v-4q-132 -62 -228.5 -138t-193.5 -183l-221 -246l455 -641
q70 -102 128 -167.5t128 -115.5z" />
    <glyph glyph-name="L" unicode="L" horiz-adv-x="1234" 
d="M1118 0h-1024v4q48 104 65 182.5t17 212.5v701q0 135 -16.5 213t-65.5 182v4h459v-4q-48 -104 -65 -182.5t-17 -210.5v-1065l274 12q56 3 120.5 40.5t124.5 97t111 123t95 132.5l18 -6z" />
    <glyph glyph-name="M" unicode="M" horiz-adv-x="1843" 
d="M387 0h-344v4q79 114 106 196.5t27 223.5v770q-6 99 -37 160.5t-108 140.5v4h418l487 -1098l471 1098h405v-4q-86 -87 -115.5 -157.5t-29.5 -200.5v-738q0 -132 17 -210.5t65 -184.5v-4h-459v4q48 104 65 182.5t17 212.5v887l-536 -1241h-52l-561 1247l6 -868
q1 -139 33.5 -223t124.5 -197v-4z" />
    <glyph glyph-name="N" unicode="N" horiz-adv-x="1447" 
d="M1194 -6l-971 1268l6 -838q1 -139 32 -223t118 -197v-4h-340v4q81 114 109 197t28 223v770q-6 99 -39.5 160.5t-116.5 140.5v4h388l811 -1069l-5 643q-1 142 -29.5 225t-107.5 197v4h324v-4q-79 -116 -107 -198.5t-28 -221.5v-1075z" />
    <glyph glyph-name="O" unicode="O" horiz-adv-x="1685" 
d="M842 -31q-153 0 -296.5 61t-250.5 164.5t-171.5 248.5t-64.5 305t64.5 305.5t171.5 249.5t250.5 165.5t296.5 61.5t297 -61.5t251 -165.5t171.5 -249.5t64.5 -305.5t-64.5 -305t-172 -248.5t-251 -164.5t-296.5 -61zM842 12q118 0 207.5 55t144.5 154.5t82 232t27 294.5
q0 163 -27 295t-81.5 232.5t-144 156t-208.5 55.5q-118 0 -207 -55.5t-143.5 -156.5t-81.5 -233t-27 -294t27 -293.5t81.5 -232t143.5 -155.5t207 -55z" />
    <glyph glyph-name="P" unicode="P" 
d="M94 0v4q48 104 65 182.5t17 212.5v701q0 135 -16.5 213t-65.5 182v4h537q132 0 235 -21.5t169 -58.5t108.5 -90t60 -112.5t17.5 -129.5q0 -102 -38 -187t-113.5 -149.5t-197 -100.5t-278.5 -36h-123v-215q0 -137 16.5 -215.5t65.5 -179.5v-4h-459zM571 1456
q-10 0 -100 -4v-793h96q94 0 164.5 37t111 99t60 135t19.5 155q0 189 -92.5 280t-258.5 91z" />
    <glyph glyph-name="Q" unicode="Q" horiz-adv-x="1685" 
d="M1384 -360q-107 0 -203 28t-157.5 65t-117 89t-79.5 83.5t-45 65.5q-144 12 -276.5 77t-231 166.5t-157 241.5t-58.5 292q0 160 64.5 305.5t171.5 249.5t250.5 165.5t296.5 61.5t297 -61.5t251 -165.5t171.5 -249.5t64.5 -305.5q0 -157 -63 -300.5t-167.5 -246
t-245 -164.5t-290.5 -66q101 -56 224.5 -82.5t242.5 -24t211 14t176 31.5l-104 -225q-82 -45 -226 -45zM842 12q118 0 207.5 55t144.5 154.5t82 232t27 294.5q0 163 -27 295t-81.5 232.5t-144 156t-208.5 55.5q-118 0 -207 -55.5t-143.5 -156.5t-81.5 -233t-27 -294
t27 -293.5t81.5 -232t143.5 -155.5t207 -55z" />
    <glyph glyph-name="R" unicode="R" horiz-adv-x="1394" 
d="M606 1456q-76 0 -135 -2v-700h137q71 0 126 21.5t89.5 56.5t56 85t30 103t8.5 115q0 151 -71.5 236t-240.5 85zM94 0v4q48 104 65 182.5t17 212.5v701q0 135 -16.5 213t-65.5 182v4h576q549 0 549 -362q0 -130 -71 -229.5t-216 -151.5l237 -473q62 -123 107 -177t125 -94
v-12h-420l-354 711h-156v-312q0 -134 17 -212.5t65 -182.5v-4h-459z" />
    <glyph glyph-name="S" unicode="S" horiz-adv-x="1161" 
d="M956 1475l48 -379l-21 -6q-203 397 -438 397q-98 0 -158.5 -59.5t-60.5 -157.5q0 -49 18.5 -91.5t46.5 -73.5t74 -61.5t88 -53t100 -51.5q23 -11 35 -17q52 -26 87.5 -45t82.5 -48.5t78 -57t65 -66.5t53.5 -80t32.5 -95t13 -114q0 -94 -29 -170t-79 -127t-120.5 -85
t-150 -49.5t-170.5 -15.5q-223 0 -434 86l-47 396l20 6q132 -232 255.5 -338.5t262.5 -106.5q125 0 194.5 75t69.5 187q0 55 -19 102.5t-47.5 82.5t-75.5 69.5t-89.5 58t-103.5 52.5q-44 22 -70.5 35.5t-67.5 36t-66 40t-59 43.5t-54.5 50t-43 56t-35 64.5t-20.5 73t-8 84.5
q0 86 28 156t76 116.5t114.5 77.5t140 44.5t155.5 13.5q169 0 329 -55z" />
    <glyph glyph-name="T" unicode="T" horiz-adv-x="1488" 
d="M975 4v-4h-461v4q49 105 66.5 184t17.5 211v1063l-168 -8q-22 -2 -47.5 -17t-55 -45t-55 -59.5t-60 -76.5t-56 -77t-56.5 -81.5t-49 -71.5l-18 6l84 467h1257l84 -467l-20 -6q-6 9 -36.5 54.5t-42.5 62.5t-42.5 60.5t-47 64t-44 55t-46.5 52.5t-42 38.5t-42 30t-36 10.5
l-166 8v-1063q0 -134 17 -212.5t65 -182.5z" />
    <glyph glyph-name="U" unicode="U" horiz-adv-x="1460" 
d="M758 -31q-126 0 -230 31.5t-184.5 95.5t-125 171t-44.5 249v584q0 135 -16.5 213t-65.5 182v4h461v-4q-45 -94 -63.5 -178t-18.5 -215v-592q0 -479 367 -479q106 0 184.5 40t123.5 111.5t66 159t21 193.5v538q0 143 -32.5 227t-127.5 195v4h363l8 -4q-94 -114 -126 -197
t-32 -225v-530q0 -100 -15 -182.5t-52.5 -157t-96.5 -125t-151.5 -80t-212.5 -29.5z" />
    <glyph glyph-name="V" unicode="V" horiz-adv-x="1376" 
d="M743 -12h-116l-437 1157q-47 134 -89 212.5t-101 137.5v4h524v-4q-47 -60 -53 -152.5t37 -220.5l303 -815l274 733q41 107 47 200.5t-15 154.5t-62 100v4h321v-4q-66 -67 -112 -152t-90 -210z" />
    <glyph glyph-name="W" unicode="W" horiz-adv-x="2103" 
d="M668 -12h-111l-373 1157q-39 128 -79.5 209.5t-96.5 140.5v4h518v-4q-45 -58 -50.5 -153.5t32.5 -219.5l244 -776l284 752l-16 47q-47 138 -85 216t-93 134v4h518v-4q-44 -59 -51 -153t32 -220l258 -755l222 682q36 110 39.5 201t-17.5 148t-61 97v4h313v-4
q-67 -68 -112.5 -156t-88.5 -223l-364 -1128h-111l-358 1038z" />
    <glyph glyph-name="X" unicode="X" horiz-adv-x="1452" 
d="M406 4v-4h-392v4q96 64 168 140t152 194l264 385l-270 465q-69 122 -125 192t-127 115v4h559v-4q-35 -38 -27.5 -121t56.5 -168l170 -288l129 198q57 86 74 158t5 119.5t-45 101.5v4h392v-4q-101 -64 -179.5 -143.5t-152.5 -190.5l-195 -295l324 -553q69 -123 125 -193.5
t127 -115.5v-4h-559v4q36 38 28.5 120.5t-57.5 168.5l-223 383l-199 -291q-19 -27 -32.5 -53.5t-23 -47.5t-13 -45.5t-6.5 -39.5t0.5 -39t4.5 -33.5t10 -33.5t11.5 -29.5t14 -31t12.5 -28.5z" />
    <glyph glyph-name="Y" unicode="Y" horiz-adv-x="1286" 
d="M403 0v4q48 90 65 156.5t17 177.5v360l-270 488q-67 125 -118 194t-113 115v4h551v-4q-45 -37 -47.5 -120.5t47.5 -182.5l231 -426l184 326q40 71 55 137t6 116t-26 85.5t-43 64.5v4h361v-4q-84 -72 -141.5 -148.5t-131.5 -209.5l-250 -437v-362q0 -113 17 -179.5
t65 -154.5v-4h-459z" />
    <glyph glyph-name="Z" unicode="Z" horiz-adv-x="1318" 
d="M1182 0h-1145v20l878 1442l-264 -10q-293 -9 -542 -371l-17 6l101 412h1073v-20l-877 -1444l322 12q301 9 559 416l16 -6z" />
    <glyph glyph-name="a" unicode="a" horiz-adv-x="1015" 
d="M432 111q76 0 131 41v321q-124 -30 -199 -88t-75 -143q0 -61 37.5 -96t105.5 -35zM762 -27q-83 0 -132.5 39.5t-60.5 104.5q-50 -64 -126 -106t-167 -42q-98 0 -160.5 48.5t-62.5 140.5q0 61 32.5 114t82.5 90t120 67.5t136 49t139 31.5v180q0 89 -43.5 132.5
t-148.5 43.5q-151 0 -269 -75l-10 14q75 95 188.5 154t254.5 59q150 0 220 -70t70 -186v-557q0 -90 84 -90q48 0 90 32l5 -6q-77 -168 -242 -168z" />
    <glyph glyph-name="b" unicode="b" horiz-adv-x="1171" 
d="M584 -31q-201 0 -340 103l-115 -86h-12v1200q0 100 -24.5 168t-72.5 125v4l359 110v-743h4q135 168 334 168q181 0 288 -141t107 -369q0 -114 -33 -210.5t-97 -170.5t-166 -116t-232 -42zM604 6q111 0 173.5 122.5t62.5 330.5q-3 411 -271 411q-113 0 -190 -65v-451
q0 -93 20.5 -163.5t54.5 -109t71.5 -57t78.5 -18.5z" />
    <glyph glyph-name="c" unicode="c" horiz-adv-x="983" 
d="M913 260l13 -8q-41 -131 -144.5 -207t-259.5 -76q-213 0 -342 138t-129 366q0 155 73 280.5t197.5 195t272.5 69.5q144 0 274 -51l27 -258l-18 -4q-69 114 -155.5 194t-158.5 80q-112 0 -182 -108t-70 -289q0 -203 95 -307.5t251 -104.5q77 0 146 23t110 67z" />
    <glyph glyph-name="d" unicode="d" horiz-adv-x="1202" 
d="M580 121q128 0 211 96v541q-21 116 -74.5 169.5t-126.5 53.5q-119 0 -189.5 -121.5t-70.5 -335.5q0 -194 64 -298.5t186 -104.5zM799 176h-4q-51 -89 -140 -148t-206 -59q-177 0 -283.5 134t-106.5 346q0 115 35 217t101 181t169.5 125t231.5 46q104 0 195 -31v197
q0 101 -24.5 169.5t-72.5 123.5v4l359 112v-1159q0 -126 11.5 -199t30 -107.5t56.5 -72.5v-4l-352 -78v203z" />
    <glyph glyph-name="e" unicode="e" horiz-adv-x="1003" 
d="M528 981q-95 0 -150 -96t-63 -246l377 8v47q0 287 -164 287zM952 283q-43 -141 -153 -227.5t-271 -86.5q-213 0 -345 144t-132 362q0 119 41 222t108.5 172.5t156 109t182.5 39.5t175.5 -38t133 -98t79.5 -133.5t25 -146.5l-637 2v-6q0 -220 94 -324t255 -104
q177 0 276 119z" />
    <glyph glyph-name="f" unicode="f" horiz-adv-x="692" 
d="M119 0v4q29 52 42 117t13 180v645h-129v41h129v96q0 229 132.5 369.5t326.5 140.5q88 0 166 -24l24 -244l-12 -4q-5 8 -19.5 30.5t-23 34.5t-23.5 34t-25.5 35t-26 31t-28.5 28.5t-27.5 21t-29 15.5t-28.5 5q-61 0 -102.5 -96.5t-41.5 -261.5v-211h238v-41h-238v-645
q0 -191 53 -297v-4h-370z" />
    <glyph glyph-name="g" unicode="g" horiz-adv-x="1105" 
d="M500 350q159 0 159 314q0 317 -161 317q-85 0 -120.5 -82t-35.5 -235q0 -314 158 -314zM1049 -131q-3 -147 -154 -240.5t-418 -93.5q-208 0 -335.5 59t-127.5 160q0 70 57 117t142 66q-137 54 -137 180q0 95 64 155.5t155 85.5q-96 45 -152.5 126.5t-56.5 179.5
q0 151 117.5 252.5t294.5 101.5q166 0 284 -94l271 161l4 -4v-204h-8l-232 16q96 -99 96 -229q0 -147 -118.5 -249t-294.5 -102q-94 0 -181 33q-65 -37 -65 -96q0 -52 47.5 -75t149.5 -28l194 -6q186 -8 296.5 -76.5t107.5 -195.5zM555 -401q162 0 250 44.5t88 118.5
q0 67 -69 97t-206 35l-212 10q-94 3 -164 24q-43 -47 -43 -118q0 -104 94.5 -157.5t261.5 -53.5z" />
    <glyph glyph-name="h" unicode="h" horiz-adv-x="1167" 
d="M446 0h-356v4q25 80 35 162.5t10 214.5v805q0 100 -24 168t-72 125v4l358 110v-768q66 87 146.5 140t189.5 53q138 0 218.5 -78.5t80.5 -212.5v-346q0 -140 9.5 -220t37.5 -157v-4h-356v4q27 77 37 161t10 214v313q0 83 -41.5 136t-124.5 53q-115 0 -207 -103v-397
q0 -135 10.5 -217.5t38.5 -159.5v-4z" />
    <glyph glyph-name="i" unicode="i" horiz-adv-x="536" 
d="M403 1346q0 -61 -43.5 -104.5t-105.5 -43.5t-105 43t-43 105q0 60 43.5 103.5t104.5 43.5t105 -43.5t44 -103.5zM94 0v4q49 179 49 377v231q0 99 -24.5 167t-73.5 124v12l358 113v-647q0 -132 10.5 -215.5t37.5 -161.5v-4h-357z" />
    <glyph glyph-name="j" unicode="j" horiz-adv-x="534" 
d="M399 1346q0 -62 -43 -105t-106 -43q-60 0 -103 43.5t-43 104.5q0 60 43 103.5t103 43.5q62 0 105.5 -43.5t43.5 -103.5zM-8 -440l-4 12q151 87 151 319v734q0 167 -96 278v12l358 113l-8 -983q0 -115 -31 -204.5t-86.5 -147t-126.5 -90.5t-157 -43z" />
    <glyph glyph-name="k" unicode="k" horiz-adv-x="1064" 
d="M90 0v4q24 59 35.5 123.5t11.5 173.5v885q0 100 -24 168t-72 123v4l358 112v-1290q0 -110 14 -175.5t42 -123.5v-4h-365zM1073 0h-338l-327 514l239 242q55 54 66.5 122t-17.5 105v4h310v-4q-61 -27 -121 -69t-94.5 -74t-92.5 -90l-88 -93l293 -454q40 -60 57 -84.5
t48 -58.5t65 -56v-4z" />
    <glyph glyph-name="l" unicode="l" horiz-adv-x="530" 
d="M88 0v4q24 56 35.5 121t11.5 176v885q0 100 -24 168t-72 123v4l358 112v-1290q0 -110 12 -175.5t37 -123.5v-4h-358z" />
    <glyph glyph-name="m" unicode="m" horiz-adv-x="1705" 
d="M446 4v-4h-356v4q26 80 36.5 162t10.5 215v237q0 100 -24 168t-72 125v4l350 113v-201l8 -2q55 88 136.5 140.5t185.5 52.5q107 0 174 -50.5t86 -142.5h4q124 193 324 193q128 0 197 -73t69 -202v-360q0 -141 9.5 -221.5t37.5 -157.5v-4h-356v4q27 77 37 161t10 214v332
q0 76 -31.5 123t-103.5 47q-55 0 -107 -28t-86 -81v-389q0 -138 10 -219.5t39 -159.5v-4h-356v4q27 77 37 161t10 214v332q0 170 -137 170q-55 0 -106 -28t-83 -81v-391q0 -138 9.5 -219.5t37.5 -157.5z" />
    <glyph glyph-name="n" unicode="n" horiz-adv-x="1173" 
d="M453 4v-4h-357v4q26 80 36.5 162t10.5 215v237q0 100 -24 168t-72 125v4l350 113v-201l9 -2q142 193 335 193q138 0 217.5 -78.5t79.5 -212.5v-344q0 -142 9.5 -222.5t39.5 -156.5v-4h-358v4q27 77 37 161t10 214v313q0 83 -41 136t-125 53q-118 0 -204 -103v-397
q0 -138 9.5 -219.5t37.5 -157.5z" />
    <glyph glyph-name="o" unicode="o" horiz-adv-x="1175" 
d="M588 -31q-108 0 -208 43t-172 114t-115 167t-42 199q1 139 73.5 260t196.5 193.5t267 72.5q108 0 207 -43t171 -114.5t115 -168t43 -200.5q0 -138 -72 -258.5t-196 -192.5t-268 -72zM588 8q88 0 148 67t86 173t26 244t-26.5 244.5t-86.5 173.5t-147 67t-146.5 -67
t-85.5 -173.5t-26 -244.5t25.5 -244t85 -173t147.5 -67z" />
    <glyph glyph-name="p" unicode="p" horiz-adv-x="1193" 
d="M623 6q110 0 174.5 122t64.5 331q0 411 -268 411q-114 0 -191 -65v-451q0 -179 65 -263.5t155 -84.5zM449 -461h-357v4q28 79 38.5 161t10.5 216v698q0 100 -24 168t-72 125v4l350 113v-176l13 -2q129 168 335 168q178 0 286 -141.5t108 -368.5q0 -114 -33 -211
t-96 -170.5t-163.5 -115.5t-228.5 -42q-110 0 -213 35v-84q0 -135 9.5 -217.5t36.5 -159.5v-4z" />
    <glyph glyph-name="q" unicode="q" horiz-adv-x="1183" 
d="M743 -461v4q27 81 37.5 163t10.5 214v250q-51 -86 -139.5 -143.5t-202.5 -57.5q-177 0 -283.5 134t-106.5 346q0 114 34.5 215t100 180.5t171.5 126.5t239 47q105 0 193.5 -27t142.5 -69l104 88h9v-1090q0 -134 10 -216.5t37 -160.5v-4h-357zM584 121q127 0 207 94v547
q-21 113 -75.5 166t-127.5 53q-117 0 -187.5 -121.5t-70.5 -331.5q0 -197 65 -302t189 -105z" />
    <glyph glyph-name="r" unicode="r" horiz-adv-x="786" 
d="M453 0h-357v4q26 80 36.5 162t10.5 215v237q0 100 -24 168t-72 125v4l350 113v-250h2q13 14 43 48.5t49.5 56t52.5 51t60.5 46t64.5 28t74 10.5l-18 -293h-10q-30 35 -93.5 61.5t-101.5 26.5q-25 0 -56 -19.5t-58 -54.5v-358q0 -138 9.5 -219.5t37.5 -157.5v-4z" />
    <glyph glyph-name="s" unicode="s" horiz-adv-x="845" 
d="M711 979l22 -238l-14 -4q-160 244 -318 244q-71 0 -115 -40.5t-44 -102.5q0 -17 4.5 -33t9.5 -28.5t18 -26t21.5 -22.5t28.5 -21t30 -18.5t36 -18t36.5 -16t40 -17t39.5 -16.5q50 -21 86 -40t77.5 -49.5t67 -64t43 -83t17.5 -108.5q0 -153 -112.5 -230t-289.5 -77
q-164 0 -315 58l-25 274l15 4q89 -153 176.5 -226t185.5 -73q86 0 128 46t42 110q0 40 -15.5 71t-50 57t-69.5 44.5t-94 44.5q-38 17 -61 27.5t-59 30.5t-57.5 37.5t-48 44.5t-41 55.5t-24.5 66.5t-10 82q0 79 31 137.5t86 92t122 49.5t146 16q135 0 254 -39z" />
    <glyph glyph-name="t" unicode="t" horiz-adv-x="714" 
d="M393 -31q-116 0 -185 62t-69 202v713h-112v15l354 260h20v-234h256v-41h-256v-704q0 -158 146 -158q75 0 127 35l6 -6q-41 -64 -115.5 -104t-171.5 -40z" />
    <glyph glyph-name="u" unicode="u" horiz-adv-x="1126" 
d="M717 219q-126 -250 -334 -250q-130 0 -200 90.5t-70 247.5v449q0 143 -82 225v6h342v-663q0 -89 40 -138t117 -49q118 0 179 119v502q0 142 -86 225v4h346v-604q0 -109 10.5 -171.5t29 -93.5t56.5 -63v-4l-346 -78v244z" />
    <glyph glyph-name="v" unicode="v" horiz-adv-x="948" 
d="M428 -18l-289 731q-45 115 -75.5 171.5t-69.5 98.5v4h424v-4q-25 -37 -28 -104t28 -158l153 -406l148 367q26 65 27.5 130t-11 104.5t-30.5 66.5v4h235v-4q-56 -62 -91 -118.5t-77 -159.5l-291 -723h-53z" />
    <glyph glyph-name="w" unicode="w" horiz-adv-x="1437" 
d="M389 -18l-258 731q-38 111 -68 168.5t-69 101.5v4h424v-4q-24 -35 -27 -104.5t23 -157.5l125 -385l147 383q-37 113 -66 167t-69 97v4h418v-4q-24 -35 -26.5 -101.5t24.5 -160.5l118 -371l125 332q26 67 28 131.5t-11 104t-33 65.5v4h236v-4q-58 -65 -94 -121.5
t-74 -156.5l-269 -723h-55l-233 682l-261 -682h-55z" />
    <glyph glyph-name="x" unicode="x" horiz-adv-x="1009" 
d="M258 4v-4h-252v4q72 59 126 118t130 161l125 170l-162 262q-71 118 -111.5 172t-88.5 96v4h434v-4q-58 -67 43 -231l102 -166l68 96q48 66 67 129t14 103.5t-24 68.5v4h254v-4q-72 -61 -124 -118.5t-126 -159.5l-108 -152l174 -285q67 -110 109.5 -163t95.5 -101v-4h-433
v4q27 46 15.5 95.5t-64.5 136.5l-114 184l-84 -115q-133 -174 -66 -301z" />
    <glyph glyph-name="y" unicode="y" horiz-adv-x="948" 
d="M63 -461l-2 230q293 -12 369 182l-297 762q-46 119 -75 175t-64 95v4h416v-4q-25 -37 -27 -110.5t33 -178.5l149 -393l156 397q24 58 24 118.5t-14 101t-35 65.5v4h246v-4q-57 -62 -93 -119.5t-77 -158.5l-299 -750q-49 -120 -96.5 -198t-100 -121.5t-98.5 -63
t-115 -33.5z" />
    <glyph glyph-name="z" unicode="z" horiz-adv-x="952" 
d="M836 0h-805v14l553 938l-203 -8q-26 0 -54 -12t-50 -26t-54.5 -43.5t-50 -47t-53.5 -56t-49 -52.5l-13 4l76 276h752v-16l-553 -938l233 6q86 4 161.5 70t174.5 198l12 -4z" />
    <glyph glyph-name="quoteleft" unicode="&#x2018;" horiz-adv-x="503" 
d="M399 1546l11 -16q-54 -44 -86.5 -97.5t-32.5 -103.5q0 -31 29.5 -76t68.5 -84v-6l-180 -141q-45 31 -74 78.5t-29 97.5q0 98 89.5 195t203.5 153z" />
    <glyph glyph-name="quoteright" unicode="&#x2019;" horiz-adv-x="503" 
d="M104 1022l-10 16q54 44 86.5 97.5t32.5 103.5q0 31 -29.5 76t-68.5 84v6l180 141q45 -31 73.5 -78t28.5 -98q0 -98 -89.5 -195t-203.5 -153z" />
    <glyph glyph-name="quotedblleft" unicode="&#x201c;" horiz-adv-x="862" 
d="M399 1546l11 -16q-53 -42 -86 -96t-33 -103q0 -60 98 -162v-4l-180 -143q-44 30 -72 78t-28 98q0 100 88 196t202 152zM758 1546l10 -16q-53 -42 -86 -96t-33 -103q0 -59 99 -162v-4l-181 -143q-44 30 -72 78t-28 98q0 100 88.5 196t202.5 152z" />
    <glyph glyph-name="quotedblright" unicode="&#x201d;" horiz-adv-x="862" 
d="M465 1022l-12 16q54 43 86 96.5t32 104.5q0 31 -29 76.5t-67 83.5v6l178 141q46 -30 74.5 -77.5t28.5 -98.5q0 -98 -88.5 -195.5t-202.5 -152.5zM104 1022l-10 16q54 44 86.5 97.5t32.5 103.5q0 31 -29.5 76t-68.5 84v6l180 141q45 -31 73.5 -78t28.5 -98
q0 -98 -89.5 -195t-203.5 -153z" />
    </font>
</defs>
</svg>
