<svg width="58" height="45" viewBox="0 0 58 45" fill="none" xmlns="http://www.w3.org/2000/svg">
<mask id="path-1-inside-1_723_2201" fill="white">
<path fill-rule="evenodd" clip-rule="evenodd" d="M52.6196 23.6297H38.7017C37.4483 23.6297 36.2462 23.1318 35.3599 22.2455C34.4736 21.3592 33.9757 20.1572 33.9757 18.9038V4.72594C33.9757 3.47255 34.4736 2.27048 35.3599 1.3842C36.2462 0.49791 37.4483 -3.8147e-06 38.7017 -3.8147e-06H52.8795C54.1329 -3.8147e-06 55.335 0.49791 56.2213 1.3842C57.1076 2.27048 57.6055 3.47255 57.6055 4.72594V20.4397C57.604 24.7182 56.5465 28.9301 54.5267 32.7018C52.5069 36.4735 49.5872 39.6883 46.0269 42.0609L41.7972 44.8965L39.1979 40.9739L43.4276 38.1384C45.8844 36.4921 47.9707 34.3514 49.5534 31.8533C51.1361 29.3551 52.1804 26.5543 52.6196 23.6297ZM19.5376 23.6297H5.61965C4.36625 23.6297 3.16419 23.1318 2.2779 22.2455C1.39162 21.3592 0.893707 20.1572 0.893707 18.9038V4.72594C0.893707 3.47255 1.39162 2.27048 2.2779 1.3842C3.16419 0.49791 4.36625 -3.8147e-06 5.61965 -3.8147e-06H19.7975C21.0509 -3.8147e-06 22.253 0.49791 23.1392 1.3842C24.0255 2.27048 24.5234 3.47255 24.5234 4.72594V20.4397C24.522 24.7182 23.4645 28.9301 21.4446 32.7018C19.4248 36.4735 16.5052 39.6883 12.9449 42.0609L8.69152 44.8965L6.11588 40.9739L10.3456 38.1384C12.8023 36.4921 14.8887 34.3514 16.4714 31.8533C18.0541 29.3551 19.0984 26.5543 19.5376 23.6297Z"/>
</mask>
<path d="M52.6196 23.6297L53.6085 23.7782L53.781 22.6297H52.6196V23.6297ZM35.3599 22.2455L36.067 21.5384V21.5384L35.3599 22.2455ZM35.3599 1.3842L36.067 2.0913L35.3599 1.3842ZM56.2213 1.3842L55.5142 2.0913L56.2213 1.3842ZM57.6055 20.4397L58.6055 20.44V20.4397H57.6055ZM54.5267 32.7018L53.6451 32.2297L54.5267 32.7018ZM46.0269 42.0609L45.4724 41.2288L45.4701 41.2303L46.0269 42.0609ZM41.7972 44.8965L40.9636 45.4489L41.5189 46.2869L42.354 45.7271L41.7972 44.8965ZM39.1979 40.9739L38.6411 40.1433L37.8149 40.6972L38.3643 41.5263L39.1979 40.9739ZM43.4276 38.1384L42.8709 37.3077L42.8708 37.3078L43.4276 38.1384ZM49.5534 31.8533L48.7087 31.3181L49.5534 31.8533ZM19.5376 23.6297L20.5265 23.7782L20.6989 22.6297H19.5376V23.6297ZM23.1392 1.3842L23.8463 0.677094V0.67709L23.1392 1.3842ZM24.5234 20.4397L25.5234 20.44V20.4397H24.5234ZM21.4446 32.7018L20.5631 32.2297L21.4446 32.7018ZM12.9449 42.0609L12.3903 41.2288L12.3902 41.2289L12.9449 42.0609ZM8.69152 44.8965L7.85561 45.4454L8.40834 46.2871L9.24622 45.7285L8.69152 44.8965ZM6.11588 40.9739L5.55904 40.1433L4.73632 40.6949L5.27997 41.5228L6.11588 40.9739ZM10.3456 38.1384L9.78891 37.3077L9.78876 37.3078L10.3456 38.1384ZM16.4714 31.8533L17.3161 32.3885L17.3161 32.3885L16.4714 31.8533ZM38.7017 24.6297H52.6196V22.6297H38.7017V24.6297ZM34.6528 22.9526C35.7267 24.0265 37.1831 24.6297 38.7017 24.6297V22.6297C37.7135 22.6297 36.7658 22.2372 36.067 21.5384L34.6528 22.9526ZM32.9757 18.9038C32.9757 20.4224 33.579 21.8788 34.6528 22.9526L36.067 21.5384C35.3683 20.8397 34.9757 19.892 34.9757 18.9038H32.9757ZM32.9757 4.72594V18.9038H34.9757V4.72594H32.9757ZM34.6528 0.67709C33.579 1.75092 32.9757 3.20733 32.9757 4.72594H34.9757C34.9757 3.73776 35.3683 2.79005 36.067 2.0913L34.6528 0.67709ZM38.7017 -1C37.1831 -1 35.7267 -0.396732 34.6528 0.67709L36.067 2.0913C36.7658 1.39255 37.7135 0.999996 38.7017 0.999996V-1ZM52.8795 -1H38.7017V0.999996H52.8795V-1ZM56.9284 0.67709C55.8546 -0.396732 54.3981 -1 52.8795 -1V0.999996C53.8677 0.999996 54.8154 1.39255 55.5142 2.0913L56.9284 0.67709ZM58.6055 4.72594C58.6055 3.20733 58.0022 1.75092 56.9284 0.67709L55.5142 2.0913C56.2129 2.79005 56.6055 3.73776 56.6055 4.72594H58.6055ZM58.6055 20.4397V4.72594H56.6055V20.4397H58.6055ZM55.4082 33.1739C57.5057 29.2571 58.604 24.8831 58.6055 20.44L56.6055 20.4394C56.6041 24.5532 55.5872 28.6032 53.6451 32.2297L55.4082 33.1739ZM46.5814 42.8931C50.2788 40.4292 53.3107 37.0907 55.4082 33.1739L53.6451 32.2297C51.703 35.8563 48.8957 38.9474 45.4724 41.2288L46.5814 42.8931ZM42.354 45.7271L46.5837 42.8915L45.4701 41.2303L41.2403 44.0659L42.354 45.7271ZM38.3643 41.5263L40.9636 45.4489L42.6308 44.3441L40.0315 40.4216L38.3643 41.5263ZM42.8708 37.3078L38.6411 40.1433L39.7547 41.8046L43.9845 38.969L42.8708 37.3078ZM48.7087 31.3181C47.2004 33.6988 45.2121 35.7388 42.8709 37.3077L43.9843 38.9691C46.5566 37.2454 48.741 35.0041 50.3982 32.3885L48.7087 31.3181ZM51.6307 23.4812C51.2122 26.2683 50.217 28.9374 48.7087 31.3181L50.3982 32.3885C52.0553 29.7728 53.1487 26.8403 53.6085 23.7782L51.6307 23.4812ZM5.61965 24.6297H19.5376V22.6297H5.61965V24.6297ZM1.5708 22.9526C2.64462 24.0265 4.10104 24.6297 5.61965 24.6297V22.6297C4.63147 22.6297 3.68376 22.2372 2.98501 21.5384L1.5708 22.9526ZM-0.106293 18.9038C-0.106293 20.4224 0.496975 21.8788 1.5708 22.9526L2.98501 21.5384C2.28626 20.8397 1.89371 19.892 1.89371 18.9038H-0.106293ZM-0.106293 4.72594V18.9038H1.89371V4.72594H-0.106293ZM1.5708 0.67709C0.496975 1.75092 -0.106293 3.20733 -0.106293 4.72594H1.89371C1.89371 3.73776 2.28626 2.79005 2.98501 2.0913L1.5708 0.67709ZM5.61965 -1C4.10104 -1 2.64462 -0.396732 1.5708 0.67709L2.98501 2.0913C3.68377 1.39255 4.63147 0.999996 5.61965 0.999996V-1ZM19.7975 -1H5.61965V0.999996H19.7975V-1ZM23.8463 0.67709C22.7725 -0.396732 21.3161 -1 19.7975 -1V0.999996C20.7857 0.999996 21.7334 1.39255 22.4321 2.0913L23.8463 0.67709ZM25.5234 4.72594C25.5234 3.20733 24.9202 1.75092 23.8463 0.677094L22.4321 2.0913C23.1309 2.79005 23.5234 3.73776 23.5234 4.72594H25.5234ZM25.5234 20.4397V4.72594H23.5234V20.4397H25.5234ZM22.3262 33.1739C24.4237 29.2571 25.5219 24.8831 25.5234 20.44L23.5234 20.4394C23.5221 24.5532 22.5052 28.6032 20.5631 32.2297L22.3262 33.1739ZM13.4994 42.8931C17.1967 40.4292 20.2287 37.0907 22.3262 33.1739L20.5631 32.2297C18.621 35.8563 15.8137 38.9474 12.3903 41.2288L13.4994 42.8931ZM9.24622 45.7285L13.4996 42.893L12.3902 41.2289L8.13682 44.0644L9.24622 45.7285ZM5.27997 41.5228L7.85561 45.4454L9.52742 44.3476L6.95178 40.4251L5.27997 41.5228ZM9.78876 37.3078L5.55904 40.1433L6.67271 41.8046L10.9024 38.969L9.78876 37.3078ZM15.6267 31.3181C14.1184 33.6988 12.1301 35.7388 9.78891 37.3077L10.9023 38.9691C13.4745 37.2454 15.659 35.0041 17.3161 32.3885L15.6267 31.3181ZM18.5486 23.4812C18.1301 26.2683 17.135 28.9374 15.6267 31.3181L17.3161 32.3885C18.9733 29.7728 20.0667 26.8403 20.5265 23.7782L18.5486 23.4812Z" fill="#001244" mask="url(#path-1-inside-1_723_2201)"/>
</svg>
