<svg width="40" height="40" viewBox="0 0 40 40" fill="none" xmlns="http://www.w3.org/2000/svg">
<g id="icon">
<path id="Vector" fill-rule="evenodd" clip-rule="evenodd" d="M18.556 33.8639V38.1915L19.6263 37.1949C19.8385 37.0012 20.1615 37.0012 20.3737 37.1949L21.4441 38.1915V33.8639C20.5121 34.0946 19.4879 34.0946 18.556 33.8639ZM34.113 32.2768H24.1753C23.7047 32.7566 23.1511 33.1626 22.5329 33.4579V39.4556C22.5329 39.9262 21.9516 40.1661 21.6102 39.8524L20.0046 38.3391L18.3899 39.8524C18.0485 40.1753 17.4671 39.917 17.4671 39.4556V33.4579C16.8489 33.1626 16.2953 32.7566 15.8247 32.2768H5.88698C3.64476 32.2768 1.827 30.4498 1.827 28.2168C1.827 25.9746 3.64476 24.1569 5.88698 24.1569H15.8247C18.0946 21.8224 21.9054 21.8224 24.1753 24.1569H34.113C36.3553 24.1569 38.173 25.9746 38.173 28.2168C38.173 30.4498 36.3553 32.2768 34.113 32.2768ZM24.4245 29.887C25.5594 26.8881 23.3818 23.4833 19.9954 23.4833C16.526 23.4833 14.4591 26.9435 15.5756 29.9054C17.0888 33.91 22.8835 33.9746 24.4245 29.887ZM25.015 31.1788H34.113C35.7463 31.1788 37.0842 29.8501 37.0842 28.2168C37.0842 26.5744 35.7463 25.2457 34.113 25.2457H25.015C26.0854 27.0634 26.0854 29.3702 25.015 31.1788ZM5.88698 25.2457C4.25376 25.2457 2.91581 26.5744 2.91581 28.2168C2.91581 29.8501 4.25376 31.1788 5.88698 31.1788H14.985C13.9054 29.3702 13.9147 27.0634 14.985 25.2457H5.88698ZM19.3679 14.1084C18.7866 14.0069 12.872 11.857 10.7313 11.0911L10.0761 14.0715C11.9216 14.0715 15.4279 14.5236 19.3679 17.3287C23.3172 14.5236 26.8235 14.0715 28.669 14.0715L28.0139 11.0911C25.8639 11.857 19.9677 14.0069 19.3679 14.1084ZM9.68859 10.722C5.63784 9.27336 1.67936 7.85236 0.867369 7.56632C0.387553 7.40023 0.387553 6.70819 0.867369 6.5421L19.1926 0.0276817C19.3034 -0.00922722 19.4325 -0.00922722 19.5525 0.0276817C21.3057 0.655133 37.8316 6.45905 38.0346 6.63437C38.1638 6.73587 38.2376 6.88351 38.2376 7.0496V14.2745C40.1569 15.0404 39.7693 18.8328 37.6932 18.8328C35.6079 18.8328 35.2203 15.0404 37.1396 14.2745V7.82468C36.3922 8.09227 32.8028 9.38408 29.0565 10.722L30.6805 18.1407C30.6805 18.4821 30.376 18.7497 30.0069 18.6759C27.8662 18.2422 23.7047 18.8789 19.7001 21.8501C19.5064 21.9885 19.2388 21.9885 19.045 21.8501C15.0404 18.8697 10.8881 18.2422 8.72896 18.6759C8.32296 18.7589 8.00001 18.3898 8.08306 18.0208L9.68859 10.722ZM37.6932 15.2618C37.3518 15.2618 36.9827 15.7878 36.9827 16.4983C36.9827 17.2088 37.3518 17.7347 37.6932 17.7347C38.0254 17.7347 38.4037 17.2088 38.4037 16.4983C38.4037 15.7878 38.0254 15.2618 37.6932 15.2618ZM34.519 7.60323H22.496C21.5917 10.0115 16.1476 9.61476 16.1476 7.0496C16.1476 4.49366 21.5917 4.09689 22.496 6.50519H34.519L19.3679 1.12572L2.68513 7.0496L19.3679 12.9827L34.519 7.60323ZM19.3679 5.97924C18.15 5.97924 17.2457 6.55133 17.2457 7.0496C17.2457 7.55709 18.15 8.11995 19.3679 8.11995C20.5952 8.11995 21.4994 7.55709 21.4994 7.0496C21.4994 6.55133 20.5952 5.97924 19.3679 5.97924ZM19.045 18.4452C15.0219 15.4648 11.4971 15.1234 9.827 15.1695L9.3195 17.4948C11.5064 17.3379 15.2803 17.827 19.3679 20.7336C23.4648 17.8178 27.2388 17.3379 29.4256 17.4948L28.9181 15.1695C27.2572 15.1234 23.7232 15.4648 19.7001 18.4452C19.5064 18.5928 19.2388 18.5928 19.045 18.4452ZM18.9343 30.8466C18.3253 30.8466 17.8547 30.2837 17.9562 29.684L18.0761 29.0104C17.6517 28.6044 17.1165 28.1892 17.3287 27.5248C17.5502 26.8512 18.2238 26.8328 18.8051 26.7497C19.0727 26.2145 19.2941 25.5779 19.9954 25.5779C20.7059 25.5779 20.9273 26.2145 21.1857 26.7497C21.7763 26.8328 22.4498 26.8512 22.6713 27.5156C22.8835 28.1892 22.3483 28.6044 21.9239 29.0104C22.0254 29.5917 22.2192 30.2468 21.6471 30.6528C21.0842 31.0681 20.5213 30.6897 19.9954 30.4129C19.6724 30.5882 19.3218 30.8466 18.9343 30.8466ZM18.4914 27.8939C19.3126 28.6967 19.2664 28.5398 19.0727 29.6655C20.0784 29.1303 19.9216 29.1303 20.9273 29.6655C20.7336 28.5398 20.6874 28.6967 21.5087 27.8939C20.3737 27.737 20.5029 27.8293 19.9954 26.8051C19.4971 27.8293 19.6263 27.737 18.4914 27.8939Z" fill="white"/>
</g>
</svg>
