<svg width="52" height="50" viewBox="0 0 52 50" fill="none" xmlns="http://www.w3.org/2000/svg">
<g clip-path="url(#clip0_1017_12013)">
<path d="M48.4555 49.9991H43.9766C43.5602 49.9991 43.2148 49.6542 43.2148 49.2384C43.2148 48.8226 43.5602 48.4778 43.9766 48.4778H48.4555C49.5727 48.4778 50.4766 47.5751 50.4766 46.4595V43.9544C50.4766 43.9342 50.4562 43.9139 50.4359 43.9139H1.56406C1.54375 43.9139 1.52344 43.9342 1.52344 43.9544V46.4595C1.52344 47.5751 2.42734 48.4778 3.54453 48.4778H40.3914C40.8078 48.4778 41.1531 48.8226 41.1531 49.2384C41.1531 49.6542 40.8078 49.9991 40.3914 49.9991H3.54453C1.59453 49.9991 0 48.4169 0 46.4595V43.9544C0 43.0924 0.700781 42.3926 1.56406 42.3926H50.4359C51.2992 42.3926 52 43.0924 52 43.9544V46.4595C52 48.4169 50.4055 49.9991 48.4555 49.9991Z" fill="white"/>
<path d="M29.9812 46.9565H22.0086C21.1961 46.9565 20.4344 46.5508 19.9773 45.8713L18.4437 43.5792C18.2914 43.3459 18.2711 43.0417 18.4031 42.7983C18.5351 42.5548 18.789 42.3926 19.0734 42.3926H32.8859C33.1703 42.3926 33.4242 42.5447 33.5562 42.7983C33.6883 43.0518 33.6781 43.3459 33.5156 43.5792L31.982 45.8713C31.5554 46.5508 30.8039 46.9565 29.9812 46.9565ZM20.5156 43.9139L21.257 45.0295C21.4297 45.283 21.714 45.4352 22.0187 45.4352H29.9914C30.2961 45.4352 30.5804 45.283 30.7531 45.0295L31.4945 43.9139H20.5156Z" fill="white"/>
<path d="M3.65625 19.1676C3.23984 19.1676 2.89453 18.8228 2.89453 18.407V15.1615C2.89453 13.3968 4.32656 11.9668 6.09375 11.9668H32.7031C33.1195 11.9668 33.4648 12.3116 33.4648 12.7274C33.4648 13.1433 33.1195 13.4881 32.7031 13.4881H6.09375C5.16953 13.4881 4.41797 14.2386 4.41797 15.1615V18.407C4.41797 18.8329 4.07266 19.1676 3.65625 19.1676Z" fill="white"/>
<path d="M45.9062 43.9141H6.09375C4.32656 43.9141 2.89453 42.484 2.89453 40.7193V22.1088C2.89453 21.693 3.23984 21.3481 3.65625 21.3481C4.07266 21.3481 4.41797 21.693 4.41797 22.1088V40.7193C4.41797 41.6423 5.16953 42.3928 6.09375 42.3928H45.9062C46.8305 42.3928 47.582 41.6423 47.582 40.7193V15.1615C47.582 14.2386 46.8305 13.4881 45.9062 13.4881H40.6961C40.2797 13.4881 39.9344 13.1433 39.9344 12.7274C39.9344 12.3116 40.2797 11.9668 40.6961 11.9668H45.9062C47.6734 11.9668 49.1055 13.3968 49.1055 15.1615V40.7193C49.1055 42.484 47.6734 43.9141 45.9062 43.9141Z" fill="white"/>
<path d="M7.13987 40.8718C6.81487 40.8718 6.52034 40.7501 6.28674 40.5169C6.06331 40.2937 5.93127 39.9895 5.93127 39.6649V16.2065C5.93127 15.5473 6.46956 15.0098 7.12971 15.0098H31.5149C31.9313 15.0098 32.2766 15.3546 32.2766 15.7704C32.2766 16.1862 31.9313 16.5311 31.5149 16.5311H7.46487V39.3505H44.5352V16.5311H35.3844C34.968 16.5311 34.6227 16.1862 34.6227 15.7704C34.6227 15.3546 34.968 15.0098 35.3844 15.0098H44.85C45.5102 15.0098 46.0485 15.5473 46.0485 16.2065V39.6649C46.0485 40.3242 45.5102 40.8617 44.85 40.8617H7.13987C7.13987 40.8718 7.13987 40.8718 7.13987 40.8718Z" fill="white"/>
<path d="M17.3773 36.0535C13.3148 36.0535 10.014 32.7574 10.014 28.7006C10.014 24.6438 13.3148 21.3477 17.3773 21.3477C21.4398 21.3477 24.7406 24.6438 24.7406 28.7006C24.7406 32.7574 21.4398 36.0535 17.3773 36.0535ZM17.3773 22.869C14.1578 22.869 11.5375 25.4856 11.5375 28.7006C11.5375 31.9156 14.1578 34.5322 17.3773 34.5322C20.5969 34.5322 23.2172 31.9156 23.2172 28.7006C23.2172 25.4856 20.5969 22.869 17.3773 22.869Z" fill="white"/>
<path d="M17.3773 31.0437C15.6101 31.0437 14.1781 29.6137 14.1781 27.849C14.1781 26.0843 15.6101 24.6543 17.3773 24.6543C19.1445 24.6543 20.5765 26.0843 20.5765 27.849C20.5765 29.6137 19.1344 31.0437 17.3773 31.0437ZM17.3773 26.1756C16.4531 26.1756 15.7015 26.9261 15.7015 27.849C15.7015 28.7719 16.4531 29.5225 17.3773 29.5225C18.3015 29.5225 19.0531 28.7719 19.0531 27.849C19.0531 26.9261 18.3015 26.1756 17.3773 26.1756Z" fill="white"/>
<path d="M13.0508 34.28C12.9797 34.28 12.9086 34.2699 12.8375 34.2496C12.4313 34.1279 12.1977 33.7121 12.3196 33.3064C12.9696 31.0752 15.0516 29.5234 17.3774 29.5234C19.7032 29.5234 21.7242 31.0143 22.4149 33.2253C22.5367 33.6309 22.3133 34.0569 21.9071 34.1786C21.5008 34.3003 21.0742 34.0772 20.9524 33.6715C20.4649 32.0995 19.0227 31.0346 17.3774 31.0346C15.7219 31.0346 14.2492 32.1401 13.7821 33.7222C13.6805 34.067 13.3758 34.28 13.0508 34.28Z" fill="white"/>
<path d="M15.6406 20.0397C15.3664 20.0397 15.1024 19.8977 14.9703 19.6442C14.3813 18.559 13.7211 17.3216 13.2946 15.9525C12.9696 14.8673 12.6649 13.2344 13.1016 11.5914C13.6906 9.40076 15.5289 7.64619 17.8953 7.00725C19.9469 6.45958 22.0797 6.7537 23.9586 7.00725C24.3547 7.05796 25.7258 7.2608 27.1883 7.47378C28.5696 7.67662 30.0016 7.8896 30.3977 7.94031C30.8141 8.00116 31.1086 8.37642 31.0477 8.79224C30.9867 9.20806 30.6008 9.50218 30.1946 9.44133C29.7985 9.39062 28.4274 9.18778 26.975 8.97479C25.5938 8.77195 24.1617 8.55897 23.7656 8.50826C21.9477 8.25471 20.0586 8.00116 18.3016 8.46769C16.8492 8.85309 15.1125 9.97885 14.5844 11.9768C14.2391 13.2649 14.493 14.6036 14.7672 15.4961C15.143 16.7233 15.7727 17.8795 16.3211 18.9038C16.5242 19.2689 16.3821 19.7354 16.0164 19.9383C15.8844 20.0093 15.7625 20.0397 15.6406 20.0397Z" fill="white"/>
<path d="M31.8093 18.2547C31.4843 18.2547 31.1695 18.133 30.9156 17.9098C30.4789 17.5244 30.3468 16.9261 30.5804 16.3885L33.607 9.279C33.6476 9.17758 33.6476 9.06602 33.607 8.9646L30.5804 1.85507C30.357 1.31754 30.489 0.719166 30.9156 0.33377C31.3523 -0.0516254 31.9515 -0.122619 32.4593 0.161356L46.414 7.91998C46.8507 8.16339 47.125 8.62992 47.125 9.12687C47.125 9.62383 46.8507 10.0904 46.414 10.3338L32.4593 18.0823C32.2562 18.204 32.0328 18.2547 31.8093 18.2547ZM32.1851 1.76379L35.0086 8.37637C35.2117 8.85304 35.2117 9.40071 35.0086 9.87738L32.1851 16.49L45.4492 9.12687L32.1851 1.76379Z" fill="white"/>
<path d="M45.9875 9.88849H34.6836C34.2672 9.88849 33.9219 9.54366 33.9219 9.12784C33.9219 8.71202 34.2672 8.36719 34.6836 8.36719H45.9977C46.4141 8.36719 46.7594 8.71202 46.7594 9.12784C46.7594 9.54366 46.4141 9.88849 45.9875 9.88849Z" fill="white"/>
<path d="M38.6039 25.9116H29.2804C28.6304 25.9116 28.1023 25.3842 28.1023 24.7351V22.5241C28.1023 21.875 28.6304 21.3477 29.2804 21.3477H38.6039C39.2539 21.3477 39.782 21.875 39.782 22.5241V24.7351C39.782 25.3842 39.2539 25.9116 38.6039 25.9116ZM29.6257 24.3903H38.2585V22.869H29.6257V24.3903Z" fill="white"/>
<path d="M35.039 29.5623H28.864C28.4476 29.5623 28.1023 29.2175 28.1023 28.8017C28.1023 28.3858 28.4476 28.041 28.864 28.041H35.039C35.4554 28.041 35.8007 28.3858 35.8007 28.8017C35.8007 29.2175 35.4656 29.5623 35.039 29.5623Z" fill="white"/>
<path d="M38.7968 32.4529H28.864C28.4476 32.4529 28.1023 32.1081 28.1023 31.6923C28.1023 31.2765 28.4476 30.9316 28.864 30.9316H38.7968C39.2132 30.9316 39.5585 31.2765 39.5585 31.6923C39.5585 32.1081 39.2132 32.4529 38.7968 32.4529Z" fill="white"/>
<path d="M38.7968 35.3338H28.864C28.4476 35.3338 28.1023 34.989 28.1023 34.5731C28.1023 34.1573 28.4476 33.8125 28.864 33.8125H38.7968C39.2132 33.8125 39.5585 34.1573 39.5585 34.5731C39.5585 34.989 39.2132 35.3338 38.7968 35.3338Z" fill="white"/>
</g>
<defs>
<clipPath id="clip0_1017_12013">
<rect width="52" height="50" fill="white"/>
</clipPath>
</defs>
</svg>
