<svg width="43" height="43" viewBox="0 0 43 43" fill="none" xmlns="http://www.w3.org/2000/svg">
<g clip-path="url(#clip0_765_5573)">
<path d="M41.6571 6.48925C40.9824 6.48925 40.3035 6.50471 39.6312 6.53477V3.73062C39.6312 3.40594 39.368 3.14273 39.0434 3.14273C36.242 3.14273 32.7722 3.87986 29.7617 5.1146C27.3897 6.08739 24.2809 7.78623 22.3661 10.49C20.4512 7.78623 17.3425 6.08747 14.9705 5.1146C11.96 3.87995 8.49017 3.14273 5.68879 3.14273C5.67132 3.14273 5.65402 3.14382 5.63697 3.14533L5.05605 2.1392C4.42063 1.03867 3.00835 0.660236 1.90773 1.29558C0.807199 1.93109 0.428765 3.34345 1.06419 4.44398L2.50436 6.93849C2.49361 6.983 2.48722 7.02927 2.48722 7.07715V36.6046C2.48722 36.9293 2.75043 37.1925 3.07511 37.1925C10.1305 37.1925 16.5234 38.7885 22.0762 41.9361C22.0868 41.9422 22.0981 41.9467 22.109 41.952C22.1202 41.9575 22.1312 41.9635 22.1427 41.9683C22.1558 41.9737 22.1693 41.9775 22.1827 41.982C22.1935 41.9855 22.2039 41.9897 22.2149 41.9926C22.2301 41.9967 22.2456 41.9991 22.261 42.0019C22.2706 42.0036 22.28 42.0062 22.2896 42.0074C22.315 42.0108 22.3405 42.0125 22.366 42.0125C22.3915 42.0125 22.417 42.0107 22.4423 42.0074C22.4519 42.0062 22.4612 42.0036 22.4707 42.002C22.4863 41.9991 22.5018 41.9967 22.5172 41.9926C22.5281 41.9897 22.5384 41.9856 22.5491 41.9821C22.5625 41.9776 22.5761 41.9737 22.5893 41.9683C22.6011 41.9634 22.6122 41.9573 22.6237 41.9517C22.6344 41.9464 22.6454 41.942 22.6558 41.936C28.2087 38.7884 34.6016 37.1924 41.6569 37.1924C41.9816 37.1924 42.2448 36.9292 42.2448 36.6045V7.07715C42.245 6.75238 41.9819 6.48925 41.6571 6.48925ZM38.4555 4.3301V33.0005C35.7664 33.094 32.5651 33.8123 29.7617 34.962C27.6193 35.8406 24.8759 37.3119 22.954 39.5808V11.7395C25.8728 6.88247 33.6597 4.51319 38.4555 4.3301ZM21.7783 11.7398V39.5808C19.8563 37.3119 17.113 35.8407 14.9706 34.962C12.1673 33.8123 8.96603 33.094 6.27677 33.0005V13.4725L7.77731 16.0715C7.82099 16.1471 7.88095 16.212 7.95293 16.2617L11.3877 18.6279C11.4879 18.6969 11.6045 18.7316 11.7213 18.7316C11.8257 18.7316 11.9303 18.7038 12.0236 18.6479C12.2212 18.5295 12.3314 18.3066 12.3054 18.0777L11.8443 13.9947C11.8352 13.9143 11.8097 13.8367 11.7692 13.7668L6.3222 4.3322C11.1217 4.5283 18.8685 6.89759 21.7783 11.7398ZM3.06336 5.55501L5.01885 4.42601L10.4429 13.8208L8.48749 14.9498L3.06336 5.55501ZM10.9922 16.9276L9.36042 15.8035L10.7731 14.9878L10.9922 16.9276ZM2.49562 2.3138C3.03472 2.00256 3.72658 2.188 4.03783 2.72709L4.43087 3.40778L2.47546 4.53679L2.08242 3.85601C1.77117 3.317 1.95653 2.62513 2.49562 2.3138ZM3.663 36.0204V8.94529L5.10098 11.4359V33.578C5.10098 33.9027 5.36419 34.1659 5.68887 34.1659C9.7732 34.1659 16.5571 35.9321 20.282 39.6859C17.9065 38.5678 15.3781 37.6957 12.7337 37.0862C9.83602 36.4183 6.78722 36.0603 3.663 36.0204ZM41.0692 36.0204C37.945 36.0603 34.8963 36.4183 31.9986 37.0861C29.3542 37.6956 26.8257 38.5678 24.4502 39.6858C28.1752 35.932 34.9591 34.1659 39.0434 34.1659C39.368 34.1659 39.6312 33.9027 39.6312 33.578V7.71182C40.1083 7.6899 40.5889 7.67537 41.0692 7.66898V36.0204ZM20.3113 33.9109C20.195 34.0485 20.029 34.1194 19.862 34.1194C19.728 34.1194 19.5932 34.0738 19.4828 33.9805C16.2591 31.2565 11.4973 29.8091 8.11586 29.3628C7.79394 29.3204 7.56752 29.025 7.61002 28.7031C7.65243 28.3813 7.94763 28.1544 8.26971 28.1973C12.8636 28.8036 17.3391 30.6298 20.2417 33.0826C20.4897 33.292 20.5209 33.6629 20.3113 33.9109ZM20.3113 29.9891C20.195 30.1267 20.029 30.1975 19.862 30.1975C19.728 30.1975 19.5932 30.1519 19.4828 30.0587C16.2592 27.3347 11.4973 25.8873 8.11586 25.441C7.79394 25.3985 7.56752 25.1032 7.61002 24.7813C7.65243 24.4595 7.94763 24.2329 8.26971 24.2754C12.8637 24.8817 17.3391 26.708 20.2417 29.1607C20.4897 29.3701 20.5209 29.7411 20.3113 29.9891ZM19.4828 14.371C17.5326 12.723 14.7379 11.3384 11.6136 10.4724C11.3008 10.3856 11.1175 10.0617 11.2042 9.74877C11.291 9.43585 11.6148 9.25276 11.9278 9.33935C14.2512 9.98343 17.5795 11.2234 20.2418 13.473C20.4898 13.6825 20.5209 14.0535 20.3114 14.3015C20.1951 14.439 20.0291 14.5099 19.8621 14.5099C19.7279 14.5099 19.5932 14.4643 19.4828 14.371ZM20.3113 26.0671C20.195 26.2047 20.029 26.2756 19.862 26.2756C19.728 26.2756 19.5932 26.2299 19.4828 26.1367C16.2592 23.4127 11.4973 21.9653 8.11586 21.519C7.79394 21.4766 7.56752 21.1812 7.61002 20.8593C7.65243 20.5375 7.94763 20.3107 8.26971 20.3535C12.8637 20.9598 17.3391 22.786 20.2417 25.2388C20.4897 25.4482 20.5209 25.8191 20.3113 26.0671ZM20.3113 18.2233C20.195 18.3609 20.029 18.4317 19.862 18.4317C19.728 18.4317 19.5932 18.3861 19.4828 18.2929C17.968 17.0128 15.9483 15.8897 13.6422 15.0449C13.3373 14.9332 13.1807 14.5955 13.2924 14.2907C13.4041 13.9859 13.7418 13.8294 14.0466 13.9409C16.4805 14.8325 18.6228 16.0269 20.2417 17.3949C20.4897 17.6044 20.5209 17.9754 20.3113 18.2233ZM20.3113 22.1453C20.195 22.2829 20.029 22.3537 19.862 22.3537C19.728 22.3537 19.5932 22.3081 19.4828 22.2149C18.0513 21.0052 16.2383 19.9698 14.0943 19.1373C13.7916 19.0198 13.6415 18.6792 13.759 18.3765C13.8766 18.0738 14.2172 17.9238 14.5198 18.0412C16.7855 18.9209 18.7106 20.0229 20.2417 21.3168C20.4897 21.5264 20.5209 21.8973 20.3113 22.1453ZM24.421 18.2233C24.2115 17.9753 24.2426 17.6043 24.4906 17.3948C27.3932 14.942 31.8687 13.1158 36.4626 12.5096C36.785 12.4671 37.0799 12.6936 37.1223 13.0154C37.1648 13.3373 36.9383 13.6327 36.6165 13.6752C33.2349 14.1214 28.4731 15.5689 25.2495 18.2928C25.1392 18.3861 25.0044 18.4317 24.8703 18.4317C24.7033 18.4318 24.5373 18.361 24.421 18.2233ZM24.421 14.3015C24.2115 14.0535 24.2426 13.6826 24.4906 13.473C27.3932 11.0202 31.8687 9.19397 36.4626 8.58769C36.785 8.54536 37.0799 8.77162 37.1223 9.09353C37.1648 9.41544 36.9383 9.71081 36.6165 9.75331C33.2349 10.1995 28.473 11.647 25.2495 14.371C25.1392 14.4642 25.0044 14.5098 24.8703 14.5098C24.7033 14.5099 24.5373 14.439 24.421 14.3015ZM24.421 22.1453C24.2115 21.8973 24.2426 21.5264 24.4906 21.3168C27.3932 18.864 31.8687 17.0378 36.4626 16.4315C36.785 16.3889 37.0799 16.6155 37.1223 16.9373C37.1648 17.2592 36.9383 17.5546 36.6165 17.597C33.2349 18.0433 28.473 19.4907 25.2495 22.2147C25.1392 22.308 25.0044 22.3536 24.8703 22.3536C24.7033 22.3537 24.5373 22.2829 24.421 22.1453ZM24.421 33.9109C24.2115 33.6629 24.2426 33.2919 24.4906 33.0824C27.3932 30.6296 31.8687 28.8034 36.4626 28.1971C36.785 28.1545 37.0799 28.3811 37.1223 28.703C37.1648 29.0249 36.9383 29.3202 36.6165 29.3627C33.2349 29.8089 28.4731 31.2563 25.2495 33.9804C25.1392 34.0736 25.0044 34.1192 24.8703 34.1192C24.7033 34.1194 24.5373 34.0486 24.421 33.9109ZM24.421 29.9891C24.2115 29.7411 24.2426 29.3702 24.4906 29.1606C27.3932 26.7078 31.8687 24.8816 36.4626 24.2753C36.785 24.2331 37.0799 24.4592 37.1223 24.7811C37.1648 25.103 36.9383 25.3984 36.6165 25.4408C33.2349 25.8871 28.473 27.3345 25.2495 30.0585C25.1392 30.1518 25.0044 30.1974 24.8703 30.1974C24.7033 30.1975 24.5373 30.1267 24.421 29.9891ZM24.421 26.0671C24.2115 25.8191 24.2426 25.4482 24.4906 25.2386C27.3932 22.7858 31.8687 20.9596 36.4626 20.3533C36.785 20.3109 37.0799 20.5372 37.1223 20.8591C37.1648 21.1811 36.9383 21.4764 36.6165 21.5188C33.2349 21.9651 28.473 23.4125 25.2495 26.1366C25.1392 26.2298 25.0044 26.2754 24.8703 26.2754C24.7033 26.2756 24.5373 26.2048 24.421 26.0671Z" fill="#001244"/>
</g>
<defs>
<clipPath id="clip0_765_5573">
<rect width="43" height="43" fill="white"/>
</clipPath>
</defs>
</svg>
