<svg width="43" height="43" viewBox="0 0 43 43" fill="none" xmlns="http://www.w3.org/2000/svg">
<g clip-path="url(#clip0_726_2616)">
<path d="M41.6591 6.48925C40.9843 6.48925 40.3055 6.50471 39.6332 6.53477V3.73062C39.6332 3.40594 39.37 3.14273 39.0453 3.14273C36.2439 3.14273 32.7741 3.87986 29.7636 5.1146C27.3916 6.08739 24.2829 7.78623 22.368 10.49C20.4532 7.78623 17.3444 6.08747 14.9724 5.1146C11.9619 3.87995 8.49213 3.14273 5.69074 3.14273C5.67328 3.14273 5.65597 3.14382 5.63893 3.14533L5.05801 2.1392C4.42258 1.03867 3.0103 0.660236 1.90968 1.29558C0.809152 1.93109 0.430719 3.34345 1.06614 4.44398L2.50631 6.93849C2.49556 6.983 2.48918 7.02927 2.48918 7.07715V36.6046C2.48918 36.9293 2.75238 37.1925 3.07707 37.1925C10.1324 37.1925 16.5253 38.7885 22.0781 41.9361C22.0888 41.9422 22.1 41.9467 22.1109 41.952C22.1222 41.9575 22.1331 41.9635 22.1446 41.9683C22.1577 41.9737 22.1712 41.9775 22.1847 41.982C22.1954 41.9855 22.2059 41.9897 22.2169 41.9926C22.2321 41.9967 22.2476 41.9991 22.263 42.0019C22.2725 42.0036 22.2819 42.0062 22.2916 42.0074C22.317 42.0108 22.3424 42.0125 22.3679 42.0125C22.3935 42.0125 22.4189 42.0107 22.4443 42.0074C22.4539 42.0062 22.4632 42.0036 22.4727 42.002C22.4882 41.9991 22.5037 41.9967 22.5191 41.9926C22.53 41.9897 22.5404 41.9856 22.551 41.9821C22.5645 41.9776 22.5781 41.9737 22.5913 41.9683C22.603 41.9634 22.6142 41.9573 22.6256 41.9517C22.6364 41.9464 22.6474 41.942 22.6578 41.936C28.2106 38.7884 34.6035 37.1924 41.6589 37.1924C41.9836 37.1924 42.2468 36.9292 42.2468 36.6045V7.07715C42.247 6.75238 41.9838 6.48925 41.6591 6.48925ZM38.4575 4.3301V33.0005C35.7683 33.094 32.567 33.8123 29.7637 34.962C27.6212 35.8406 24.8779 37.3119 22.9559 39.5808V11.7395C25.8748 6.88247 33.6617 4.51319 38.4575 4.3301ZM21.7802 11.7398V39.5808C19.8582 37.3119 17.115 35.8407 14.9725 34.962C12.1693 33.8123 8.96798 33.094 6.27872 33.0005V13.4725L7.77927 16.0715C7.82294 16.1471 7.8829 16.212 7.95488 16.2617L11.3897 18.6279C11.4899 18.6969 11.6064 18.7316 11.7233 18.7316C11.8276 18.7316 11.9322 18.7038 12.0255 18.6479C12.2231 18.5295 12.3333 18.3066 12.3074 18.0777L11.8462 13.9947C11.8371 13.9143 11.8116 13.8367 11.7711 13.7668L6.32415 4.3322C11.1236 4.5283 18.8705 6.89759 21.7802 11.7398ZM3.06531 5.55501L5.0208 4.42601L10.4448 13.8208L8.48944 14.9498L3.06531 5.55501ZM10.9942 16.9276L9.36237 15.8035L10.7751 14.9878L10.9942 16.9276ZM2.49757 2.3138C3.03667 2.00256 3.72853 2.188 4.03978 2.72709L4.43283 3.40778L2.47742 4.53679L2.08437 3.85601C1.77312 3.317 1.95848 2.62513 2.49757 2.3138ZM3.66496 36.0204V8.94529L5.10294 11.4359V33.578C5.10294 33.9027 5.36614 34.1659 5.69083 34.1659C9.77516 34.1659 16.5591 35.9321 20.284 39.6859C17.9085 38.5678 15.38 37.6957 12.7356 37.0862C9.83798 36.4183 6.78918 36.0603 3.66496 36.0204ZM41.0712 36.0204C37.947 36.0603 34.8982 36.4183 32.0005 37.0861C29.3561 37.6956 26.8277 38.5678 24.4522 39.6858C28.1771 35.932 34.9611 34.1659 39.0453 34.1659C39.37 34.1659 39.6332 33.9027 39.6332 33.578V7.71182C40.1102 7.6899 40.5909 7.67537 41.0712 7.66898V36.0204ZM20.3133 33.9109C20.1969 34.0485 20.031 34.1194 19.8639 34.1194C19.7299 34.1194 19.5952 34.0738 19.4848 33.9805C16.2611 31.2565 11.4993 29.8091 8.11781 29.3628C7.7959 29.3204 7.56947 29.025 7.61197 28.7031C7.65438 28.3813 7.94959 28.1544 8.27167 28.1973C12.8655 28.8036 17.3411 30.6298 20.2436 33.0826C20.4916 33.292 20.5228 33.6629 20.3133 33.9109ZM20.3133 29.9891C20.1969 30.1267 20.031 30.1975 19.8639 30.1975C19.7299 30.1975 19.5952 30.1519 19.4848 30.0587C16.2612 27.3347 11.4993 25.8873 8.11781 25.441C7.7959 25.3985 7.56947 25.1032 7.61197 24.7813C7.65438 24.4595 7.94959 24.2329 8.27167 24.2754C12.8656 24.8817 17.3411 26.708 20.2436 29.1607C20.4916 29.3701 20.5228 29.7411 20.3133 29.9891ZM19.4848 14.371C17.5346 12.723 14.7399 11.3384 11.6156 10.4724C11.3027 10.3856 11.1194 10.0617 11.2062 9.74877C11.2929 9.43585 11.6168 9.25276 11.9298 9.33935C14.2532 9.98343 17.5815 11.2234 20.2437 13.473C20.4917 13.6825 20.5229 14.0535 20.3133 14.3015C20.197 14.439 20.0311 14.5099 19.864 14.5099C19.7298 14.5099 19.5951 14.4643 19.4848 14.371ZM20.3133 26.0671C20.1969 26.2047 20.031 26.2756 19.8639 26.2756C19.7299 26.2756 19.5952 26.2299 19.4848 26.1367C16.2612 23.4127 11.4993 21.9653 8.11781 21.519C7.7959 21.4766 7.56947 21.1812 7.61197 20.8593C7.65438 20.5375 7.94959 20.3107 8.27167 20.3535C12.8656 20.9598 17.3411 22.786 20.2436 25.2388C20.4916 25.4482 20.5228 25.8191 20.3133 26.0671ZM20.3133 18.2233C20.1969 18.3609 20.031 18.4317 19.8639 18.4317C19.7299 18.4317 19.5952 18.3861 19.4848 18.2929C17.9699 17.0128 15.9503 15.8897 13.6441 15.0449C13.3393 14.9332 13.1827 14.5955 13.2944 14.2907C13.4061 13.9859 13.7438 13.8294 14.0485 13.9409C16.4825 14.8325 18.6248 16.0269 20.2436 17.3949C20.4916 17.6044 20.5228 17.9754 20.3133 18.2233ZM20.3133 22.1453C20.1969 22.2829 20.031 22.3537 19.8639 22.3537C19.7299 22.3537 19.5952 22.3081 19.4848 22.2149C18.0532 21.0052 16.2403 19.9698 14.0962 19.1373C13.7936 19.0198 13.6435 18.6792 13.761 18.3765C13.8785 18.0738 14.2191 17.9238 14.5218 18.0412C16.7874 18.9209 18.7125 20.0229 20.2436 21.3168C20.4916 21.5264 20.5228 21.8973 20.3133 22.1453ZM24.423 18.2233C24.2134 17.9753 24.2446 17.6043 24.4926 17.3948C27.3952 14.942 31.8707 13.1158 36.4646 12.5096C36.787 12.4671 37.0818 12.6936 37.1242 13.0154C37.1667 13.3373 36.9402 13.6327 36.6184 13.6752C33.2369 14.1214 28.475 15.5689 25.2515 18.2928C25.1411 18.3861 25.0063 18.4317 24.8723 18.4317C24.7052 18.4318 24.5393 18.361 24.423 18.2233ZM24.423 14.3015C24.2134 14.0535 24.2446 13.6826 24.4926 13.473C27.3952 11.0202 31.8706 9.19397 36.4646 8.58769C36.787 8.54536 37.0818 8.77162 37.1242 9.09353C37.1667 9.41544 36.9402 9.71081 36.6184 9.75331C33.2369 10.1995 28.475 11.647 25.2515 14.371C25.1411 14.4642 25.0063 14.5098 24.8723 14.5098C24.7052 14.5099 24.5393 14.439 24.423 14.3015ZM24.423 22.1453C24.2134 21.8973 24.2446 21.5264 24.4926 21.3168C27.3952 18.864 31.8706 17.0378 36.4646 16.4315C36.787 16.3889 37.0818 16.6155 37.1242 16.9373C37.1667 17.2592 36.9402 17.5546 36.6184 17.597C33.2369 18.0433 28.475 19.4907 25.2515 22.2147C25.1411 22.308 25.0063 22.3536 24.8723 22.3536C24.7052 22.3537 24.5393 22.2829 24.423 22.1453ZM24.423 33.9109C24.2134 33.6629 24.2446 33.2919 24.4926 33.0824C27.3952 30.6296 31.8707 28.8034 36.4646 28.1971C36.787 28.1545 37.0818 28.3811 37.1242 28.703C37.1667 29.0249 36.9402 29.3202 36.6184 29.3627C33.2369 29.8089 28.475 31.2563 25.2515 33.9804C25.1411 34.0736 25.0063 34.1192 24.8723 34.1192C24.7052 34.1194 24.5393 34.0486 24.423 33.9109ZM24.423 29.9891C24.2134 29.7411 24.2446 29.3702 24.4926 29.1606C27.3952 26.7078 31.8706 24.8816 36.4646 24.2753C36.787 24.2331 37.0818 24.4592 37.1242 24.7811C37.1667 25.103 36.9402 25.3984 36.6184 25.4408C33.2369 25.8871 28.475 27.3345 25.2515 30.0585C25.1411 30.1518 25.0063 30.1974 24.8723 30.1974C24.7052 30.1975 24.5393 30.1267 24.423 29.9891ZM24.423 26.0671C24.2134 25.8191 24.2446 25.4482 24.4926 25.2386C27.3952 22.7858 31.8706 20.9596 36.4646 20.3533C36.787 20.3109 37.0818 20.5372 37.1242 20.8591C37.1667 21.1811 36.9402 21.4764 36.6184 21.5188C33.2369 21.9651 28.475 23.4125 25.2515 26.1366C25.1411 26.2298 25.0063 26.2754 24.8723 26.2754C24.7052 26.2756 24.5393 26.2048 24.423 26.0671Z" fill="white"/>
</g>
<defs>
<clipPath id="clip0_726_2616">
<rect width="43" height="43" fill="white"/>
</clipPath>
</defs>
</svg>
