<svg width="22" height="20" viewBox="0 0 22 20" fill="none" xmlns="http://www.w3.org/2000/svg">
<path fill-rule="evenodd" clip-rule="evenodd" d="M13.6114 0.34283L21.1114 4.46783C21.2291 4.53253 21.3272 4.62763 21.3955 4.7432C21.4639 4.85877 21.5 4.99056 21.5 5.12483V14.8748C21.5 15.0091 21.4639 15.1409 21.3955 15.2565C21.3272 15.372 21.2291 15.4671 21.1114 15.5318L13.6114 19.6568C13.5007 19.7178 13.3764 19.7498 13.25 19.7498C13.1236 19.7498 12.9993 19.7178 12.8886 19.6568L9.5 17.7932L10.2229 16.4793L12.5 17.7313V9.69331L5.38858 5.78183C5.27099 5.71709 5.17293 5.62197 5.10463 5.50641C5.03634 5.39084 5.00031 5.25907 5.00031 5.12483C5.00031 4.99059 5.03634 4.85882 5.10463 4.74325C5.17293 4.62769 5.27099 4.53257 5.38858 4.46783L12.8886 0.34283C12.9993 0.281932 13.1236 0.25 13.25 0.25C13.3764 0.25 13.5007 0.281932 13.6114 0.34283ZM19.1936 5.12483L13.25 1.85603L7.3064 5.12483L13.25 8.39363L19.1936 5.12483ZM14 17.7314L20 14.4314V6.39331L14 9.69331V17.7314ZM6.5 9.99982H0.5V8.49982H6.5V9.99982ZM2 15.9998H8V14.4998H2V15.9998ZM9.5 12.9998H3.5V11.4998H9.5V12.9998Z" fill="#AB0101"/>
</svg>
