<svg width="54" height="54" viewBox="0 0 54 54" fill="none" xmlns="http://www.w3.org/2000/svg">
<path d="M48.8099 20.8988H35.6346V15.5121C35.6347 15.3856 35.6063 15.2607 35.5515 15.1467C35.4967 15.0326 35.417 14.9324 35.3182 14.8534L27.8464 8.8756V7.32057L30.7838 7.33744C31.0077 7.33621 31.2221 7.24707 31.3809 7.08925C31.5396 6.93142 31.63 6.71754 31.6325 6.49369V4.21875C31.6326 4.10794 31.6108 3.99821 31.5684 3.89583C31.526 3.79344 31.4638 3.70042 31.3855 3.62206C31.3071 3.54371 31.2141 3.48156 31.1117 3.43917C31.0093 3.39677 30.8996 3.37497 30.7888 3.375H27.0026C26.8918 3.37497 26.7821 3.39678 26.6797 3.43917C26.5773 3.48156 26.4843 3.54371 26.4059 3.62206C26.3276 3.70042 26.2654 3.79345 26.223 3.89583C26.1806 3.99821 26.1588 4.10794 26.1589 4.21875V8.8756L18.6871 14.8534C18.5883 14.9324 18.5085 15.0326 18.4537 15.1467C18.399 15.2607 18.3706 15.3856 18.3707 15.5121V20.8988H5.19531C5.0845 20.8988 4.97477 20.9206 4.87239 20.963C4.77001 21.0054 4.67698 21.0676 4.59863 21.1459C4.52027 21.2243 4.45812 21.3173 4.41573 21.4197C4.37334 21.5221 4.35153 21.6318 4.35156 21.7426V49.7812C4.35153 49.8921 4.37334 50.0018 4.41573 50.1042C4.45812 50.2066 4.52027 50.2996 4.59862 50.3779C4.67698 50.4563 4.77001 50.5184 4.87239 50.5608C4.97477 50.6032 5.0845 50.625 5.19531 50.625C13.9501 50.5808 48.8099 50.625 48.8099 50.625C48.9207 50.625 49.0305 50.6032 49.1329 50.5608C49.2352 50.5184 49.3283 50.4563 49.4066 50.3779C49.485 50.2996 49.5471 50.2066 49.5895 50.1042C49.6319 50.0018 49.6537 49.8921 49.6537 49.7812V21.7426C49.6537 21.6318 49.6319 21.5221 49.5895 21.4197C49.5471 21.3173 49.485 21.2243 49.4066 21.1459C49.3283 21.0676 49.2352 21.0054 49.1329 20.963C49.0305 20.9206 48.9207 20.8988 48.8099 20.8988ZM27.8464 5.0625H29.945V5.64505L27.8464 5.6331V5.0625ZM6.03906 22.5863H18.3707V48.9375H6.03906V22.5863ZM20.0582 15.9175L27.0026 10.3619L33.9471 15.9175C33.9416 19.4091 33.951 44.815 33.9471 48.9375H30.6265V41.6869C30.6265 41.5761 30.6047 41.4664 30.5623 41.364C30.5199 41.2616 30.4578 41.1686 30.3794 41.0902C30.301 41.0119 30.208 40.9497 30.1056 40.9074C30.0033 40.865 29.8935 40.8432 29.7827 40.8432H24.2225C24.1117 40.8432 24.002 40.865 23.8996 40.9074C23.7972 40.9497 23.7042 41.0119 23.6258 41.0902C23.5475 41.1686 23.4853 41.2616 23.4429 41.364C23.4006 41.4664 23.3788 41.5761 23.3788 41.6869V48.9375H20.0582V15.9175ZM25.0663 48.9375V42.5307H28.939V48.9375H25.0663ZM47.9662 48.9375H35.6346V22.5863H47.9662V48.9375Z" fill="#223874"/>
<path d="M14.8877 24.7935H9.51953C9.40872 24.7934 9.29899 24.8152 9.19661 24.8576C9.09423 24.9 9.0012 24.9622 8.92285 25.0405C8.84449 25.1189 8.78234 25.2119 8.73995 25.3143C8.69756 25.4167 8.67575 25.5264 8.67578 25.6372V30.31C8.67575 30.4208 8.69756 30.5305 8.73995 30.6329C8.78234 30.7353 8.84449 30.8283 8.92285 30.9066C9.0012 30.985 9.09423 31.0472 9.19661 31.0895C9.29899 31.1319 9.40872 31.1537 9.51953 31.1537H14.8877C14.9985 31.1537 15.1083 31.1319 15.2107 31.0895C15.313 31.0472 15.4061 30.985 15.4844 30.9066C15.5628 30.8283 15.6249 30.7353 15.6673 30.6329C15.7097 30.5305 15.7315 30.4208 15.7315 30.31V25.6372C15.7315 25.5264 15.7097 25.4167 15.6673 25.3143C15.6249 25.2119 15.5628 25.1189 15.4844 25.0405C15.4061 24.9622 15.313 24.9 15.2107 24.8576C15.1083 24.8152 14.9985 24.7934 14.8877 24.7935ZM14.044 29.4662H10.3633V26.481H14.044V29.4662Z" fill="#223874"/>
<path d="M14.8877 32.5815H9.51953C9.40872 32.5815 9.29899 32.6033 9.19661 32.6457C9.09423 32.6881 9.0012 32.7503 8.92285 32.8286C8.84449 32.907 8.78234 33 8.73995 33.1024C8.69756 33.2048 8.67575 33.3145 8.67578 33.4253V38.0985C8.67575 38.2093 8.69756 38.319 8.73995 38.4214C8.78234 38.5238 8.84449 38.6168 8.92285 38.6952C9.0012 38.7735 9.09423 38.8357 9.19661 38.8781C9.29899 38.9204 9.40872 38.9422 9.51953 38.9422H14.8877C14.9985 38.9422 15.1083 38.9204 15.2107 38.8781C15.313 38.8357 15.4061 38.7735 15.4844 38.6952C15.5628 38.6168 15.6249 38.5238 15.6673 38.4214C15.7097 38.319 15.7315 38.2093 15.7315 38.0985V33.4253C15.7315 33.3145 15.7097 33.2048 15.6673 33.1024C15.6249 33 15.5628 32.907 15.4844 32.8286C15.4061 32.7503 15.313 32.6881 15.2107 32.6457C15.1083 32.6033 14.9985 32.5815 14.8877 32.5815ZM14.044 37.2547H10.3633V34.269H14.044V37.2547Z" fill="#223874"/>
<path d="M14.8877 40.3701H9.51953C9.40872 40.3701 9.29899 40.3919 9.19661 40.4343C9.09423 40.4767 9.0012 40.5388 8.92285 40.6172C8.84449 40.6955 8.78234 40.7886 8.73995 40.8909C8.69756 40.9933 8.67575 41.1031 8.67578 41.2139V45.887C8.67575 45.9979 8.69756 46.1076 8.73995 46.21C8.78234 46.3123 8.84449 46.4054 8.92285 46.4837C9.0012 46.5621 9.09423 46.6242 9.19661 46.6666C9.29899 46.709 9.40872 46.7308 9.51953 46.7308H14.8877C14.9985 46.7308 15.1083 46.709 15.2107 46.6666C15.313 46.6242 15.4061 46.5621 15.4844 46.4837C15.5628 46.4054 15.6249 46.3123 15.6673 46.21C15.7097 46.1076 15.7315 45.9979 15.7315 45.887V41.2139C15.7315 41.1031 15.7097 40.9933 15.6673 40.8909C15.6249 40.7886 15.5628 40.6955 15.4844 40.6172C15.4061 40.5388 15.313 40.4767 15.2107 40.4343C15.1083 40.3919 14.9985 40.3701 14.8877 40.3701ZM14.044 45.0433H10.3633V42.0576H14.044V45.0433Z" fill="#223874"/>
<path d="M29.6854 24.7935H24.3164C24.2056 24.7934 24.0959 24.8152 23.9935 24.8576C23.8911 24.9 23.7981 24.9622 23.7197 25.0405C23.6414 25.1189 23.5792 25.2119 23.5368 25.3143C23.4944 25.4167 23.4726 25.5264 23.4727 25.6372V30.31C23.4726 30.4208 23.4944 30.5305 23.5368 30.6329C23.5792 30.7353 23.6414 30.8283 23.7197 30.9066C23.7981 30.985 23.8911 31.0472 23.9935 31.0895C24.0959 31.1319 24.2056 31.1537 24.3164 31.1537H29.6854C29.7962 31.1537 29.906 31.1319 30.0083 31.0895C30.1107 31.0472 30.2038 30.985 30.2821 30.9067C30.3605 30.8283 30.4226 30.7353 30.465 30.6329C30.5074 30.5305 30.5292 30.4208 30.5292 30.31V25.6372C30.5292 25.5264 30.5074 25.4167 30.465 25.3143C30.4226 25.2119 30.3605 25.1189 30.2821 25.0405C30.2038 24.9622 30.1107 24.9 30.0083 24.8576C29.906 24.8152 29.7962 24.7934 29.6854 24.7935ZM28.8417 29.4662H25.1602V26.481H28.8417V29.4662Z" fill="#223874"/>
<path d="M29.6854 32.5815H24.3164C24.2056 32.5815 24.0959 32.6033 23.9935 32.6457C23.8911 32.6881 23.7981 32.7503 23.7197 32.8286C23.6414 32.907 23.5792 33 23.5368 33.1024C23.4944 33.2048 23.4726 33.3145 23.4727 33.4253V38.0985C23.4726 38.2093 23.4944 38.319 23.5368 38.4214C23.5792 38.5238 23.6414 38.6168 23.7197 38.6952C23.7981 38.7735 23.8911 38.8357 23.9935 38.8781C24.0959 38.9204 24.2056 38.9422 24.3164 38.9422H29.6854C29.7962 38.9422 29.906 38.9204 30.0083 38.8781C30.1107 38.8357 30.2038 38.7735 30.2821 38.6952C30.3605 38.6168 30.4226 38.5238 30.465 38.4214C30.5074 38.319 30.5292 38.2093 30.5292 38.0985V33.4253C30.5292 33.3145 30.5074 33.2048 30.465 33.1024C30.4226 33 30.3605 32.907 30.2821 32.8286C30.2038 32.7503 30.1107 32.6881 30.0083 32.6457C29.906 32.6033 29.7962 32.5815 29.6854 32.5815ZM28.8417 37.2547H25.1602V34.269H28.8417V37.2547Z" fill="#223874"/>
<path d="M39.1133 31.1537H44.4815C44.5923 31.1537 44.702 31.1319 44.8044 31.0895C44.9068 31.0472 44.9998 30.985 45.0782 30.9066C45.1565 30.8283 45.2187 30.7353 45.2611 30.6329C45.3035 30.5305 45.3253 30.4208 45.3252 30.31V25.6372C45.3253 25.5264 45.3035 25.4167 45.2611 25.3143C45.2187 25.2119 45.1565 25.1189 45.0782 25.0405C44.9998 24.9622 44.9068 24.9 44.8044 24.8576C44.702 24.8152 44.5923 24.7934 44.4815 24.7935H39.1133C39.0025 24.7934 38.8927 24.8152 38.7904 24.8576C38.688 24.9 38.595 24.9622 38.5166 25.0405C38.4382 25.1189 38.3761 25.2119 38.3337 25.3143C38.2913 25.4167 38.2695 25.5264 38.2695 25.6372V30.31C38.2695 30.4208 38.2913 30.5305 38.3337 30.6329C38.3761 30.7353 38.4382 30.8283 38.5166 30.9066C38.595 30.985 38.688 31.0472 38.7904 31.0895C38.8927 31.1319 39.0025 31.1537 39.1133 31.1537ZM39.957 26.481H43.6377V29.4662H39.957V26.481Z" fill="#223874"/>
<path d="M39.1133 38.9422H44.4815C44.5923 38.9422 44.702 38.9204 44.8044 38.8781C44.9068 38.8357 44.9998 38.7735 45.0782 38.6952C45.1565 38.6168 45.2187 38.5238 45.2611 38.4214C45.3035 38.319 45.3253 38.2093 45.3252 38.0985V33.4253C45.3253 33.3145 45.3035 33.2048 45.2611 33.1024C45.2187 33 45.1565 32.907 45.0782 32.8286C44.9998 32.7503 44.9068 32.6881 44.8044 32.6457C44.702 32.6033 44.5923 32.5815 44.4815 32.5815H39.1133C39.0025 32.5815 38.8927 32.6033 38.7904 32.6457C38.688 32.6881 38.595 32.7503 38.5166 32.8286C38.4382 32.907 38.3761 33 38.3337 33.1024C38.2913 33.2048 38.2695 33.3145 38.2695 33.4253V38.0985C38.2695 38.2093 38.2913 38.319 38.3337 38.4214C38.3761 38.5238 38.4382 38.6168 38.5166 38.6952C38.595 38.7735 38.688 38.8357 38.7904 38.8781C38.8927 38.9204 39.0025 38.9422 39.1133 38.9422ZM39.957 34.269H43.6377V37.2547H39.957V34.269Z" fill="#223874"/>
<path d="M39.1133 46.7308H44.4815C44.5923 46.7308 44.702 46.709 44.8044 46.6666C44.9068 46.6242 44.9998 46.5621 45.0782 46.4837C45.1565 46.4054 45.2187 46.3123 45.2611 46.21C45.3035 46.1076 45.3253 45.9979 45.3252 45.887V41.2139C45.3253 41.1031 45.3035 40.9933 45.2611 40.8909C45.2187 40.7886 45.1565 40.6955 45.0782 40.6172C44.9998 40.5388 44.9068 40.4767 44.8044 40.4343C44.702 40.3919 44.5923 40.3701 44.4815 40.3701H39.1133C39.0025 40.3701 38.8927 40.3919 38.7904 40.4343C38.688 40.4767 38.595 40.5388 38.5166 40.6172C38.4382 40.6955 38.3761 40.7886 38.3337 40.8909C38.2913 40.9933 38.2695 41.1031 38.2695 41.2139V45.887C38.2695 45.9979 38.2913 46.1076 38.3337 46.21C38.3761 46.3123 38.4382 46.4054 38.5166 46.4837C38.595 46.5621 38.688 46.6242 38.7904 46.6666C38.8927 46.709 39.0025 46.7308 39.1133 46.7308ZM39.957 42.0576H43.6377V45.0433H39.957V42.0576Z" fill="#223874"/>
<path d="M27.0025 23.2573C33.1214 23.0627 33.1196 14.1909 27.0024 13.9971C20.8841 14.1918 20.8851 23.0636 27.0025 23.2573ZM27.0025 15.6846C27.7772 15.6934 28.5171 16.0073 29.0618 16.5582C29.6064 17.1091 29.9119 17.8526 29.9119 18.6272C29.9119 19.4019 29.6064 20.1454 29.0617 20.6963C28.517 21.2471 27.7771 21.561 27.0024 21.5698C26.2278 21.561 25.4879 21.2471 24.9432 20.6962C24.3986 20.1453 24.0931 19.4018 24.0931 18.6271C24.0931 17.8525 24.3986 17.109 24.9433 16.5581C25.488 16.0073 26.2279 15.6934 27.0025 15.6846Z" fill="#223874"/>
<path d="M25.7259 19.4713H27.0022C27.1131 19.4713 27.2228 19.4495 27.3252 19.4071C27.4275 19.3647 27.5206 19.3026 27.5989 19.2242C27.6773 19.1458 27.7394 19.0528 27.7818 18.9504C27.8242 18.8481 27.846 18.7383 27.846 18.6275V16.7727C27.8417 16.5518 27.7509 16.3414 27.5931 16.1867C27.4353 16.032 27.2232 15.9453 27.0022 15.9453C26.7812 15.9453 26.5691 16.032 26.4113 16.1867C26.2536 16.3414 26.1628 16.5519 26.1585 16.7728V17.7838H25.7259C25.505 17.7881 25.2945 17.8789 25.1398 18.0366C24.9851 18.1944 24.8984 18.4065 24.8984 18.6275C24.8984 18.8485 24.9851 19.0606 25.1398 19.2184C25.2945 19.3762 25.505 19.467 25.7259 19.4713Z" fill="#223874"/>
</svg>
