<svg width="44" height="44" viewBox="0 0 44 44" fill="none" xmlns="http://www.w3.org/2000/svg">
<g clip-path="url(#clip0_765_5575)">
<path d="M37.9641 32.2669C38.197 31.0306 38.191 29.761 37.9465 28.5269L41.3051 20.4214C41.3055 20.416 41.3055 20.4106 41.3051 20.4053C41.8494 18.9152 42.647 17.5303 43.6628 16.3118C43.9155 16.0448 44.0172 15.6687 43.9334 15.3108L42.5562 9.36347C42.5398 9.30129 42.5151 9.2416 42.4829 9.186C42.477 9.175 42.4748 9.1618 42.4689 9.15153C42.4631 9.14127 42.4374 9.11633 42.4227 9.09727C42.3927 9.05333 42.3581 9.01276 42.3193 8.97627C42.2938 8.95832 42.2671 8.94215 42.2394 8.92787C42.2036 8.90155 42.1656 8.87848 42.1257 8.85893C42.0705 8.83805 42.0128 8.82402 41.9541 8.81713C41.9373 8.81713 41.9226 8.80613 41.9057 8.80467C41.7652 8.7953 41.6249 8.82661 41.5017 8.89487C41.4907 8.90073 41.4775 8.90293 41.4665 8.90953H41.4591L36.2811 12.1413C35.9675 12.3355 35.7728 12.6746 35.7633 13.0433C35.6195 14.6267 35.2024 16.1732 34.5306 17.6142V17.6223L32.852 21.6798C32.0281 21.2418 31.1461 20.9233 30.2325 20.7338C30.5784 18.3467 30.7055 15.9331 30.6124 13.5229C31.9775 11.8851 32.6327 9.77021 32.4325 7.64747C31.9742 3.3736 28.1117 0.286999 27.9467 0.157199C27.6987 -0.038093 27.3536 -0.0527802 27.0899 0.120738C26.8262 0.294256 26.7032 0.617041 26.7844 0.922066C27.1621 2.34033 26.835 3.83707 24.0454 6.91487C22.7921 8.12508 22.3948 9.97295 23.04 11.5913C23.2867 12.2103 23.6401 12.7812 24.0843 13.278C23.9068 14.411 23.7675 15.4839 23.6714 16.5289C23.506 18.2573 23.4633 19.9952 23.5438 21.7297C22.8896 22.0844 22.2771 22.5111 21.7178 23.002L18.1611 7.79267C18.1611 7.77727 18.1465 7.76627 18.1421 7.75233C18.1301 7.70344 18.1129 7.65598 18.0907 7.6108L14.4578 0.901533C14.0942 0.23 13.3262 -0.115081 12.5826 0.0590576C11.8391 0.233196 11.3042 0.883459 11.2766 1.6466L11.0009 9.2696C11.001 9.32461 11.0072 9.37945 11.0192 9.43313C11.0192 9.44487 11.0192 9.45513 11.0192 9.46613L14.6477 24.9519C14.0753 24.9772 13.5071 25.062 12.9523 25.2049L8.96073 15.5653C8.64067 14.8284 7.79175 14.4807 7.04673 14.7813L0.946132 17.3069C0.199501 17.6186 -0.15532 18.4747 0.151932 19.2231L5.5654 32.2823C2.39264 32.4489 -0.0701416 35.1123 0.0117499 38.2884C0.0936413 41.4645 2.6904 43.9974 5.86753 44.0003H38.1342C40.2302 43.9699 42.1507 42.8236 43.1724 40.9933C44.194 39.1629 44.1616 36.9266 43.0873 35.1266C42.013 33.3266 40.06 32.2365 37.9641 32.2669ZM37.2168 13.2853L40.2909 11.3669L39.2027 13.9952C39.0476 14.3694 39.2252 14.7985 39.5994 14.9537C39.9736 15.1088 40.4028 14.9312 40.5579 14.5569L41.6461 11.9287L42.4609 15.4582C41.5892 16.5216 40.8731 17.7036 40.3342 18.9687C39.5696 19.3231 38.6917 19.3415 37.9129 19.0194C37.1342 18.6973 36.5257 18.0641 36.2349 17.2732C36.7499 15.9973 37.0805 14.6545 37.2168 13.2853ZM35.5301 19.0427C36.0153 19.6359 36.6449 20.0942 37.3583 20.3737C37.9255 20.6177 38.5355 20.7463 39.1528 20.7521C39.3013 20.7516 39.4497 20.7425 39.5972 20.725L37.2571 26.3717C36.5564 24.8268 35.4725 23.4866 34.1082 22.4784L35.5301 19.0427ZM25.4835 13.8053L29.1677 14.0304C29.1905 14.7153 29.1824 15.4237 29.1597 16.1431C27.9323 16.2308 26.6989 16.1712 25.4857 15.9657C25.3933 15.9525 25.3031 15.9422 25.2114 15.9297C25.2847 15.2389 25.3742 14.5393 25.482 13.8053H25.4835ZM25.1337 7.89973C27.0807 5.7518 28.0897 4.0996 28.3244 2.5464C29.7239 3.98633 30.6477 5.82114 30.971 7.80293C31.125 9.52817 30.5916 11.2444 29.4867 12.5784C28.0382 12.4904 26.6055 12.4024 25.1887 12.3144C24.5799 11.7453 24.2297 10.9524 24.219 10.1191C24.2084 9.28581 24.5382 8.48423 25.1322 7.89973H25.1337ZM25.0779 17.3913L25.2906 17.4191C26.2355 17.5653 27.1894 17.6464 28.1455 17.6619C28.4491 17.6619 28.7688 17.6377 29.0893 17.6127C29.0225 18.5565 28.9133 19.5421 28.7747 20.5607C28.5935 20.5512 28.4161 20.5336 28.2342 20.5336C27.127 20.5356 26.0282 20.7248 24.9841 21.0931C24.9503 19.8584 24.9811 18.6228 25.0765 17.3913H25.0779ZM19.4056 25.9669L17.3075 17.0297C17.2094 16.642 16.8188 16.4044 16.4294 16.4956C16.04 16.5868 15.7954 16.9732 15.8797 17.3641L17.7651 25.4081C17.2468 25.2227 16.7112 25.0893 16.1665 25.0099L12.9479 11.2745C13.3988 11.4798 13.8883 11.5863 14.3837 11.5869C14.4299 11.5869 14.4791 11.5803 14.526 11.5781L15.0445 13.7921C15.1003 14.0512 15.2917 14.26 15.545 14.3382C15.7983 14.4164 16.0741 14.3518 16.2663 14.1693C16.4585 13.9867 16.5373 13.7147 16.4723 13.4577L15.9531 11.2423C16.4506 11.022 16.8895 10.6879 17.2342 10.2669L20.5063 24.2582C20.0814 24.7882 19.7125 25.3608 19.4056 25.9669ZM14.9249 10.0535C13.9871 10.2354 13.0295 9.85199 12.4763 9.07307L12.5695 6.49027C12.8246 6.53792 13.0836 6.56247 13.3431 6.5636C13.5938 6.56465 13.8438 6.53685 14.0882 6.48073C14.5829 6.35081 15.0457 6.12068 15.4478 5.8046L16.6827 8.0838C16.5356 9.02945 15.8476 9.80094 14.9249 10.055V10.0535ZM12.9163 1.48673C13.0162 1.4636 13.1193 1.50975 13.1686 1.59967L14.7409 4.50733C14.4572 4.76392 14.1186 4.95207 13.7509 5.05733C13.3751 5.12631 12.9884 5.108 12.6208 5.0038L12.7403 1.6994C12.7443 1.59693 12.8164 1.50981 12.9163 1.48673ZM7.6092 16.1336L8.16947 17.4873L5.45613 18.6108C5.13446 18.7459 4.95249 19.0889 5.02102 19.431C5.08954 19.7731 5.38959 20.0195 5.73847 20.0203C5.83481 20.0201 5.9302 20.0011 6.01933 19.9645L8.73267 18.8403L9.29367 20.1955L7.93627 20.758C7.61275 20.8919 7.42901 21.2358 7.49753 21.5791C7.56606 21.9225 7.86775 22.1695 8.21787 22.1689C8.31396 22.1686 8.40909 22.1497 8.498 22.1132L9.8554 21.5507L10.4164 22.9059L7.70087 24.0316C7.37735 24.1655 7.19361 24.5094 7.26213 24.8527C7.33066 25.1961 7.63235 25.4431 7.98247 25.4425C8.07857 25.4423 8.17371 25.4233 8.2626 25.3868L10.9759 24.2633L11.5692 25.6955C9.17955 26.7863 7.42725 28.9191 6.82087 31.4749L1.50567 18.6592L7.6092 16.1336ZM38.1342 42.5336H5.86753C3.43748 42.5336 1.46753 40.5637 1.46753 38.1336C1.46753 35.7035 3.43748 33.7336 5.86753 33.7336C6.29245 33.7322 6.71524 33.7935 7.12227 33.9155C7.34215 33.9819 7.58045 33.9414 7.76611 33.8062C7.95177 33.6709 8.06333 33.4565 8.06753 33.2269C8.1197 30.6133 9.63055 28.2489 11.9803 27.1036C14.3301 25.9582 17.1233 26.2246 19.2142 27.7936C19.399 27.9311 19.6376 27.9738 19.8586 27.909C20.0796 27.8441 20.2573 27.6792 20.3384 27.4636C21.7711 23.6453 25.7309 21.3993 29.7433 22.1291C33.7558 22.8589 36.6711 26.3553 36.6675 30.4336C36.669 31.2723 36.5441 32.1064 36.2972 32.9079C36.2201 33.1572 36.2814 33.4288 36.4581 33.6209C36.6348 33.813 36.9003 33.8967 37.1552 33.8407C37.4767 33.7699 37.805 33.734 38.1342 33.7336C40.5643 33.7336 42.5342 35.7035 42.5342 38.1336C42.5342 40.5637 40.5643 42.5336 38.1342 42.5336Z" fill="#001244"/>
<path d="M28.3696 11.5137C28.5997 11.5146 28.817 11.4073 28.9562 11.224C29.8718 9.98488 30.2256 8.41853 29.9316 6.90616C29.869 6.64757 29.6713 6.44314 29.415 6.37196C29.1586 6.30079 28.8838 6.37404 28.6969 6.56337C28.51 6.7527 28.4403 7.02842 28.5148 7.28383C28.6903 8.35848 28.4284 9.4587 27.7873 10.3389C27.6206 10.5611 27.5938 10.8584 27.718 11.1069C27.8423 11.3553 28.0962 11.5122 28.374 11.5122L28.3696 11.5137Z" fill="#001244"/>
<path d="M27.405 33.7335C26.8597 33.7351 26.3219 33.8605 25.832 34.1001C24.5128 32.295 22.0496 31.7662 20.1057 32.8708C18.1618 33.9754 17.3554 36.3622 18.231 38.4195C18.3463 38.6899 18.6118 38.8653 18.9057 38.8653C19.0045 38.8656 19.1023 38.8456 19.1932 38.8067C19.3721 38.7304 19.5134 38.5862 19.586 38.4058C19.6587 38.2253 19.6566 38.0235 19.5804 37.8445C19.4207 37.4724 19.3384 37.0717 19.3384 36.6668C19.3384 35.0468 20.6517 33.7335 22.2717 33.7335C23.4095 33.7278 24.4458 34.3871 24.9227 35.4201C24.9386 35.444 24.9557 35.467 24.974 35.4891C24.9856 35.5142 24.9986 35.5387 25.0129 35.5624C25.0261 35.5785 25.0452 35.5859 25.0598 35.6013C25.0942 35.637 25.1323 35.6689 25.1735 35.6966C25.2101 35.7248 25.2494 35.7494 25.2908 35.7699C25.3334 35.7878 25.3776 35.8015 25.4228 35.811C25.4679 35.8228 25.5141 35.83 25.5607 35.8323C25.656 35.8315 25.7505 35.8157 25.8408 35.7853C25.8604 35.7817 25.8797 35.7771 25.8988 35.7714C25.9226 35.756 25.9453 35.7391 25.967 35.7208C25.9934 35.7091 26.0191 35.6958 26.044 35.6812C26.4292 35.3697 26.9096 35.1999 27.405 35.2001C28.2625 35.2015 29.041 35.701 29.3997 36.4798C29.5678 36.8483 30.0028 37.0109 30.3714 36.8428C30.7399 36.6747 30.9025 36.2397 30.7344 35.8711C30.1372 34.5696 28.837 33.7348 27.405 33.7335Z" fill="#001244"/>
<path d="M12.9692 28.6376C12.8584 28.6735 10.2676 29.5696 10.2676 32.2668C10.2676 32.6718 10.5959 33.0002 11.0009 33.0002C11.4059 33.0002 11.7342 32.6718 11.7342 32.2668C11.7941 31.2438 12.4672 30.3588 13.437 30.028C13.8218 29.8988 14.029 29.4821 13.8998 29.0974C13.7706 28.7126 13.3539 28.5054 12.9692 28.6346V28.6376Z" fill="#001244"/>
<path d="M23.2897 27.8448C23.3479 27.8596 23.4078 27.867 23.4679 27.8668C23.804 27.8665 24.0968 27.6377 24.1785 27.3117C24.516 25.9423 25.7283 24.9682 27.1382 24.9335C27.5432 24.9325 27.8707 24.6033 27.8697 24.1983C27.8687 23.7933 27.5395 23.4658 27.1345 23.4668C25.0502 23.4945 23.2489 24.9297 22.7565 26.9553C22.6581 27.3481 22.8968 27.7464 23.2897 27.8448Z" fill="#001244"/>
</g>
<defs>
<clipPath id="clip0_765_5575">
<rect width="44" height="44" fill="white"/>
</clipPath>
</defs>
</svg>
