<svg width="44" height="44" viewBox="0 0 44 44" fill="none" xmlns="http://www.w3.org/2000/svg">
<g clip-path="url(#clip0_726_2618)">
<path d="M37.9621 32.2669C38.195 31.0306 38.189 29.761 37.9445 28.5269L41.3032 20.4214C41.3035 20.416 41.3035 20.4106 41.3032 20.4053C41.8474 18.9152 42.6451 17.5303 43.6609 16.3118C43.9136 16.0448 44.0153 15.6687 43.9314 15.3108L42.5542 9.36347C42.5379 9.30129 42.5132 9.2416 42.4809 9.186C42.475 9.175 42.4728 9.1618 42.467 9.15153C42.4611 9.14127 42.4354 9.11633 42.4208 9.09727C42.3908 9.05333 42.3561 9.01276 42.3174 8.97627C42.2919 8.95832 42.2652 8.94215 42.2374 8.92787C42.2017 8.90155 42.1637 8.87848 42.1238 8.85893C42.0685 8.83805 42.0109 8.82402 41.9522 8.81713C41.9353 8.81713 41.9207 8.80613 41.9038 8.80467C41.7632 8.7953 41.6229 8.82661 41.4997 8.89487C41.4887 8.90073 41.4755 8.90293 41.4645 8.90953H41.4572L36.2791 12.1413C35.9655 12.3355 35.7709 12.6746 35.7614 13.0433C35.6175 14.6267 35.2005 16.1732 34.5286 17.6142V17.6223L32.85 21.6798C32.0262 21.2418 31.1442 20.9233 30.2306 20.7338C30.5764 18.3467 30.7036 15.9331 30.6104 13.5229C31.9756 11.8851 32.6307 9.77021 32.4306 7.64747C31.9722 3.3736 28.1098 0.286999 27.9448 0.157199C27.6968 -0.038093 27.3517 -0.0527802 27.088 0.120738C26.8243 0.294256 26.7012 0.617041 26.7824 0.922066C27.1601 2.34033 26.833 3.83707 24.0434 6.91487C22.7901 8.12508 22.3928 9.97295 23.038 11.5913C23.2847 12.2103 23.6382 12.7812 24.0823 13.278C23.9048 14.411 23.7655 15.4839 23.6694 16.5289C23.504 18.2573 23.4614 19.9952 23.5418 21.7297C22.8876 22.0844 22.2752 22.5111 21.7158 23.002L18.1592 7.79267C18.1592 7.77727 18.1445 7.76627 18.1401 7.75233C18.1282 7.70344 18.111 7.65598 18.0888 7.6108L14.4558 0.901533C14.0923 0.23 13.3242 -0.115081 12.5807 0.0590576C11.8372 0.233196 11.3022 0.883459 11.2746 1.6466L10.9989 9.2696C10.9991 9.32461 11.0052 9.37945 11.0172 9.43313C11.0172 9.44487 11.0172 9.45513 11.0172 9.46613L14.6458 24.9519C14.0734 24.9772 13.5052 25.062 12.9503 25.2049L8.95878 15.5653C8.63871 14.8284 7.7898 14.4807 7.04478 14.7813L0.944179 17.3069C0.197548 17.6186 -0.157273 18.4747 0.149979 19.2231L5.56345 32.2823C2.39068 32.4489 -0.0720947 35.1123 0.00979676 38.2884C0.0916882 41.4645 2.68845 43.9974 5.86558 44.0003H38.1322C40.2282 43.9699 42.1487 42.8236 43.1704 40.9933C44.1921 39.1629 44.1596 36.9266 43.0853 35.1266C42.011 33.3266 40.0581 32.2365 37.9621 32.2669ZM37.2148 13.2853L40.289 11.3669L39.2007 13.9952C39.0456 14.3694 39.2232 14.7985 39.5975 14.9537C39.9717 15.1088 40.4008 14.9312 40.5559 14.5569L41.6442 11.9287L42.4589 15.4582C41.5872 16.5216 40.8712 17.7036 40.3322 18.9687C39.5677 19.3231 38.6897 19.3415 37.911 19.0194C37.1323 18.6973 36.5238 18.0641 36.2329 17.2732C36.748 15.9973 37.0786 14.6545 37.2148 13.2853ZM35.5282 19.0427C36.0133 19.6359 36.6429 20.0942 37.3564 20.3737C37.9235 20.6177 38.5335 20.7463 39.1508 20.7521C39.2994 20.7516 39.4478 20.7425 39.5952 20.725L37.2552 26.3717C36.5545 24.8268 35.4705 23.4866 34.1062 22.4784L35.5282 19.0427ZM25.4815 13.8053L29.1658 14.0304C29.1885 14.7153 29.1804 15.4237 29.1577 16.1431C27.9304 16.2308 26.6969 16.1712 25.4837 15.9657C25.3913 15.9525 25.3011 15.9422 25.2094 15.9297C25.2828 15.2389 25.3722 14.5393 25.48 13.8053H25.4815ZM25.1317 7.89973C27.0787 5.7518 28.0878 4.0996 28.3224 2.5464C29.722 3.98633 30.6458 5.82114 30.969 7.80293C31.1231 9.52817 30.5896 11.2444 29.4848 12.5784C28.0362 12.4904 26.6035 12.4024 25.1867 12.3144C24.5779 11.7453 24.2277 10.9524 24.2171 10.1191C24.2064 9.28581 24.5362 8.48423 25.1302 7.89973H25.1317ZM25.076 17.3913L25.2886 17.4191C26.2336 17.5653 27.1875 17.6464 28.1435 17.6619C28.4471 17.6619 28.7668 17.6377 29.0873 17.6127C29.0206 18.5565 28.9113 19.5421 28.7727 20.5607C28.5916 20.5512 28.4141 20.5336 28.2322 20.5336C27.1251 20.5356 26.0262 20.7248 24.9821 21.0931C24.9483 19.8584 24.9791 18.6228 25.0745 17.3913H25.076ZM19.4036 25.9669L17.3056 17.0297C17.2075 16.642 16.8168 16.4044 16.4274 16.4956C16.038 16.5868 15.7935 16.9732 15.8778 17.3641L17.7632 25.4081C17.2448 25.2227 16.7093 25.0893 16.1645 25.0099L12.9459 11.2745C13.3968 11.4798 13.8864 11.5863 14.3818 11.5869C14.428 11.5869 14.4771 11.5803 14.524 11.5781L15.0425 13.7921C15.0984 14.0512 15.2898 14.26 15.5431 14.3382C15.7963 14.4164 16.0721 14.3518 16.2644 14.1693C16.4566 13.9867 16.5353 13.7147 16.4703 13.4577L15.9511 11.2423C16.4487 11.022 16.8875 10.6879 17.2322 10.2669L20.5044 24.2582C20.0795 24.7882 19.7106 25.3608 19.4036 25.9669ZM14.923 10.0535C13.9851 10.2354 13.0275 9.85199 12.4744 9.07307L12.5675 6.49027C12.8227 6.53792 13.0816 6.56247 13.3412 6.5636C13.5919 6.56465 13.8419 6.53685 14.0862 6.48073C14.581 6.35081 15.0437 6.12068 15.4458 5.8046L16.6808 8.0838C16.5336 9.02945 15.8457 9.80094 14.923 10.055V10.0535ZM12.9144 1.48673C13.0143 1.4636 13.1174 1.50975 13.1666 1.59967L14.7389 4.50733C14.4553 4.76392 14.1166 4.95207 13.7489 5.05733C13.3731 5.12631 12.9865 5.108 12.6188 5.0038L12.7384 1.6994C12.7424 1.59693 12.8145 1.50981 12.9144 1.48673ZM7.60725 16.1336L8.16751 17.4873L5.45418 18.6108C5.13251 18.7459 4.95054 19.0889 5.01907 19.431C5.08759 19.7731 5.38763 20.0195 5.73651 20.0203C5.83286 20.0201 5.92825 20.0011 6.01738 19.9645L8.73071 18.8403L9.29171 20.1955L7.93431 20.758C7.6108 20.8919 7.42705 21.2358 7.49558 21.5791C7.56411 21.9225 7.86579 22.1695 8.21591 22.1689C8.31201 22.1686 8.40714 22.1497 8.49605 22.1132L9.85345 21.5507L10.4144 22.9059L7.69891 24.0316C7.3754 24.1655 7.19165 24.5094 7.26018 24.8527C7.32871 25.1961 7.63039 25.4431 7.98051 25.4425C8.07662 25.4423 8.17176 25.4233 8.26065 25.3868L10.974 24.2633L11.5672 25.6955C9.1776 26.7863 7.4253 28.9191 6.81891 31.4749L1.50371 18.6592L7.60725 16.1336ZM38.1322 42.5336H5.86558C3.43553 42.5336 1.46558 40.5637 1.46558 38.1336C1.46558 35.7035 3.43553 33.7336 5.86558 33.7336C6.29049 33.7322 6.71329 33.7935 7.12031 33.9155C7.3402 33.9819 7.5785 33.9414 7.76416 33.8062C7.94982 33.6709 8.06138 33.4565 8.06558 33.2269C8.11775 30.6133 9.6286 28.2489 11.9784 27.1036C14.3282 25.9582 17.1214 26.2246 19.2122 27.7936C19.397 27.9311 19.6357 27.9738 19.8566 27.909C20.0777 27.8441 20.2553 27.6792 20.3364 27.4636C21.7692 23.6453 25.7289 21.3993 29.7414 22.1291C33.7538 22.8589 36.6691 26.3553 36.6656 30.4336C36.667 31.2723 36.5422 32.1064 36.2952 32.9079C36.2182 33.1572 36.2794 33.4288 36.4561 33.6209C36.6328 33.813 36.8983 33.8967 37.1532 33.8407C37.4748 33.7699 37.803 33.734 38.1322 33.7336C40.5623 33.7336 42.5322 35.7035 42.5322 38.1336C42.5322 40.5637 40.5623 42.5336 38.1322 42.5336Z" fill="white"/>
<path d="M28.3696 11.5137C28.5997 11.5146 28.817 11.4073 28.9562 11.224C29.8718 9.98488 30.2256 8.41853 29.9316 6.90616C29.869 6.64757 29.6713 6.44314 29.415 6.37196C29.1586 6.30079 28.8838 6.37404 28.6969 6.56337C28.51 6.7527 28.4403 7.02842 28.5148 7.28383C28.6903 8.35848 28.4284 9.4587 27.7873 10.3389C27.6206 10.5611 27.5938 10.8584 27.718 11.1069C27.8423 11.3553 28.0962 11.5122 28.374 11.5122L28.3696 11.5137Z" fill="white"/>
<path d="M27.4011 33.7335C26.8558 33.7351 26.318 33.8605 25.8281 34.1001C24.5089 32.295 22.0457 31.7662 20.1018 32.8708C18.1579 33.9754 17.3515 36.3622 18.2271 38.4195C18.3424 38.6899 18.6079 38.8653 18.9018 38.8653C19.0006 38.8656 19.0984 38.8456 19.1893 38.8067C19.3682 38.7304 19.5095 38.5862 19.5821 38.4058C19.6548 38.2253 19.6527 38.0235 19.5765 37.8445C19.4168 37.4724 19.3345 37.0717 19.3345 36.6668C19.3345 35.0468 20.6478 33.7335 22.2678 33.7335C23.4056 33.7278 24.4419 34.3871 24.9188 35.4201C24.9347 35.444 24.9518 35.467 24.9701 35.4891C24.9817 35.5142 24.9947 35.5387 25.009 35.5624C25.0222 35.5785 25.0413 35.5859 25.0559 35.6013C25.0903 35.637 25.1284 35.6689 25.1696 35.6966C25.2062 35.7248 25.2455 35.7494 25.2869 35.7699C25.3295 35.7878 25.3737 35.8015 25.4189 35.811C25.464 35.8228 25.5102 35.83 25.5568 35.8323C25.6521 35.8315 25.7466 35.8157 25.8369 35.7853C25.8565 35.7817 25.8758 35.7771 25.8949 35.7714C25.9187 35.756 25.9414 35.7391 25.9631 35.7208C25.9895 35.7091 26.0152 35.6958 26.0401 35.6812C26.4253 35.3697 26.9057 35.1999 27.4011 35.2001C28.2586 35.2015 29.0371 35.701 29.3958 36.4798C29.5639 36.8483 29.9989 37.0109 30.3675 36.8428C30.736 36.6747 30.8985 36.2397 30.7305 35.8711C30.1333 34.5696 28.8331 33.7348 27.4011 33.7335Z" fill="white"/>
<path d="M12.9672 28.6376C12.8565 28.6735 10.2656 29.5696 10.2656 32.2668C10.2656 32.6718 10.5939 33.0002 10.999 33.0002C11.404 33.0002 11.7323 32.6718 11.7323 32.2668C11.7922 31.2438 12.4652 30.3588 13.4351 30.028C13.8199 29.8988 14.027 29.4821 13.8978 29.0974C13.7686 28.7126 13.352 28.5054 12.9672 28.6346V28.6376Z" fill="white"/>
<path d="M23.2897 27.8448C23.3479 27.8596 23.4078 27.867 23.4679 27.8668C23.804 27.8665 24.0968 27.6377 24.1785 27.3117C24.516 25.9423 25.7283 24.9682 27.1382 24.9335C27.5432 24.9325 27.8707 24.6033 27.8697 24.1983C27.8687 23.7933 27.5395 23.4658 27.1345 23.4668C25.0502 23.4945 23.2489 24.9297 22.7565 26.9553C22.6581 27.3481 22.8968 27.7464 23.2897 27.8448Z" fill="white"/>
</g>
<defs>
<clipPath id="clip0_726_2618">
<rect width="44" height="44" fill="white"/>
</clipPath>
</defs>
</svg>
