<svg width="47" height="47" viewBox="0 0 47 47" fill="none" xmlns="http://www.w3.org/2000/svg">
<g clip-path="url(#clip0_723_2061)">
<path d="M17.6276 19.5833C12.2285 19.5833 7.83594 15.1908 7.83594 9.79167C7.83594 4.39254 12.2285 0 17.6276 0C23.0267 0 27.4193 4.39254 27.4193 9.79167C27.4193 15.1908 23.0267 19.5833 17.6276 19.5833ZM17.6276 1.95833C13.3075 1.95833 9.79427 5.47158 9.79427 9.79167C9.79427 14.1118 13.3075 17.625 17.6276 17.625C21.9477 17.625 25.4609 14.1118 25.4609 9.79167C25.4609 5.47158 21.9477 1.95833 17.6276 1.95833Z" fill="#223874"/>
<path d="M18.6042 41.125H0.979167C0.438667 41.125 0 40.6863 0 40.1458V32.3125C0 27.4539 3.95388 23.5 8.8125 23.5H26.4375C26.978 23.5 27.4167 23.9387 27.4167 24.4792C27.4167 25.0197 26.978 25.4583 26.4375 25.4583H8.8125C5.03292 25.4583 1.95833 28.5329 1.95833 32.3125V39.1667H18.6042C19.1447 39.1667 19.5833 39.6053 19.5833 40.1458C19.5833 40.6863 19.1447 41.125 18.6042 41.125Z" fill="#223874"/>
<path d="M33.2917 47C30.4893 47 27.6889 46.1697 24.9061 44.511C24.0366 43.994 23.5 43.0285 23.5 41.9925V36.2292C23.5 35.6887 23.9387 35.25 24.4792 35.25C25.0197 35.25 25.4583 35.6887 25.4583 36.2292V41.9925C25.4583 42.3372 25.6346 42.6662 25.9068 42.8288C30.877 45.7917 35.7083 45.7917 40.6746 42.8288C40.9488 42.6662 41.125 42.3372 41.125 41.9925V36.2292C41.125 35.6887 41.5637 35.25 42.1042 35.25C42.6447 35.25 43.0833 35.6887 43.0833 36.2292V41.9925C43.0833 43.0285 42.5467 43.994 41.6772 44.511C38.8945 46.1697 36.094 47 33.2917 47Z" fill="#223874"/>
<path d="M33.2943 41.1253C33.1552 41.1253 33.0142 41.096 32.883 41.0352L20.1539 35.1602C19.8072 34.9997 19.5859 34.653 19.5859 34.2712C19.5859 33.8893 19.8072 33.5427 20.1539 33.3821L32.883 27.5071C33.1474 27.3857 33.4411 27.3857 33.7055 27.5071L46.4347 33.3821C46.7813 33.5427 47.0026 33.8893 47.0026 34.2712C47.0026 34.653 46.7813 34.9997 46.4347 35.1602L33.7055 41.0352C33.5743 41.096 33.4333 41.1253 33.2943 41.1253ZM22.9014 34.2712L33.2943 39.0671L43.6871 34.2712L33.2943 29.4752L22.9014 34.2712Z" fill="#223874"/>
</g>
<defs>
<clipPath id="clip0_723_2061">
<rect width="47" height="47" fill="white"/>
</clipPath>
</defs>
</svg>
