<svg width="55" height="40" viewBox="0 0 55 40" fill="none" xmlns="http://www.w3.org/2000/svg">
<path d="M50.3824 21.092L45.1304 23.0002C44.9428 20.3414 44.6228 17.7402 44.177 15.2493L53.6874 12.1097C54.4848 11.8465 55 11.1347 55 10.2965C55 9.45825 54.4848 8.74643 53.6874 8.48328L28.4484 0.151522C27.8367 -0.0505072 27.163 -0.0505072 26.5515 0.151522L1.31259 8.48328C0.515196 8.74654 0 9.45825 0 10.2966C0 11.135 0.515196 11.8467 1.31259 12.1098L10.8214 15.2489C10.5815 16.5907 10.375 17.9868 10.2069 19.4072C10.1548 19.8484 10.4706 20.2481 10.9125 20.3002C10.9446 20.304 10.9765 20.3058 11.0081 20.3058C11.4108 20.3058 11.7587 20.0049 11.8071 19.5958C11.962 18.2869 12.1503 17 12.3675 15.7593L14.9294 16.6051V18.6055C13.6405 18.9591 12.6905 20.1384 12.6905 21.5358C12.6905 22.3783 13.0359 23.1416 13.5924 23.6926C13.1844 25.1817 12.8697 26.927 12.6495 28.9159C12.0999 28.6022 11.6903 28.3319 11.4165 28.1383C11.3357 28.0812 11.288 27.987 11.2888 27.8861C11.3005 26.2977 11.3638 24.6845 11.477 23.0911C11.5085 22.648 11.1742 22.2634 10.7303 22.232C10.2875 22.2011 9.90109 22.5343 9.86962 22.9773C9.75414 24.6045 9.68947 26.2521 9.67744 27.8741C9.67271 28.5005 9.97489 29.09 10.4854 29.4509C10.8891 29.7363 11.5545 30.1698 12.4852 30.6605C12.3486 32.402 12.2757 34.3049 12.2671 36.3628C12.2645 36.9766 12.6789 37.5125 13.2752 37.6659C13.803 37.8018 14.6583 37.9636 15.7351 37.9636C16.8118 37.9636 17.6671 37.8017 18.1949 37.6658C18.7911 37.5124 19.2056 36.9765 19.203 36.3628C19.1984 35.2406 19.1742 34.1654 19.1313 33.1364C20.2205 33.4101 21.3519 33.6413 22.5113 33.8263C22.5419 34.4582 22.6789 35.1256 22.9172 35.779C23.2954 36.8162 23.8909 37.7171 24.5943 38.3158C25.1833 38.8171 25.8263 39.0789 26.4347 39.0789C26.6464 39.0789 26.8534 39.0455 27.0529 38.9812C27.076 38.975 27.0989 38.9679 27.1218 38.9595L39.5744 34.4351L39.577 34.4341C40.0661 34.257 40.4908 34.2584 40.8755 34.4383C41.7534 34.8489 42.2781 36.086 42.4631 36.5992C42.5847 36.9361 42.8306 37.2053 43.1556 37.3572C43.3368 37.4419 43.5301 37.4845 43.7243 37.4845C43.8793 37.4845 44.0349 37.4574 44.185 37.4028L47.8824 36.0593C48.2474 35.9267 48.5373 35.6431 48.6773 35.281C48.8165 34.9217 48.7936 34.5206 48.6146 34.1807C48.0962 33.1964 47.2863 32.4615 46.2404 32.0129L47.5274 31.5452C47.9455 31.3933 48.1611 30.9317 48.0089 30.5144C47.8568 30.0969 47.3944 29.8816 46.9762 30.0337L44.7716 30.8347C44.8878 29.9837 44.7773 28.9846 44.4075 27.9706C44.051 26.9928 43.5011 26.1366 42.85 25.54L50.933 22.6032C51.4125 22.4286 52.4836 23.2073 53.0725 24.8223C53.3528 25.5911 53.4526 26.3938 53.3463 27.0247C53.2682 27.4879 53.0875 27.8133 52.8625 27.895L50.3412 28.811C49.9231 28.9629 49.7075 29.4245 49.8597 29.8418C50.0117 30.2591 50.4736 30.4744 50.8924 30.3225L53.4137 29.4066C54.2025 29.1199 54.7571 28.3491 54.9353 27.2916C55.0887 26.3816 54.9649 25.3093 54.5867 24.2721C53.737 21.9412 51.8903 20.5442 50.3824 21.092ZM15.7351 20.1051C16.5253 20.1051 17.1682 20.7469 17.1682 21.5357C17.1682 22.3246 16.5254 22.9664 15.7351 22.9664C14.9448 22.9664 14.3019 22.3246 14.3019 21.5357C14.3019 20.7469 14.9448 20.1051 15.7351 20.1051ZM15.7351 36.3552C14.933 36.3552 14.2803 36.2463 13.8796 36.1568C13.9172 30.3223 14.4981 26.6643 15.0475 24.4958C15.2687 24.5469 15.4986 24.5749 15.7351 24.5749C15.9716 24.5749 16.2015 24.5469 16.4227 24.4958C16.9713 26.6616 17.5528 30.3202 17.5906 36.1568C17.1897 36.2464 16.537 36.3552 15.7351 36.3552ZM17.8775 23.6926C18.4341 23.1416 18.7794 22.3782 18.7794 21.5358C18.7794 20.1384 17.8295 18.9591 16.5406 18.6055V17.1371L26.5513 20.4418C26.8572 20.5428 27.1784 20.5933 27.4998 20.5933C27.821 20.5933 28.1424 20.5428 28.4482 20.4418L34.9745 18.2874C35.397 18.148 35.6261 17.6931 35.4866 17.2712C35.3468 16.8496 34.8912 16.6204 34.4686 16.7601L27.9422 18.9146C27.6569 19.0088 27.3426 19.0088 27.0573 18.9146L17.5635 15.7803L25.0437 10.839C25.0771 10.8562 25.1101 10.8735 25.1448 10.8897C25.7431 11.169 26.532 11.3106 27.4894 11.3106C28.4469 11.3106 29.2357 11.1691 29.834 10.8897C30.6687 10.5001 31.1282 9.83443 31.1282 9.01516C31.1282 7.48 29.5299 6.27748 27.4894 6.27748C25.4489 6.27748 23.8506 7.48 23.8506 9.01516C23.8506 9.23327 23.8842 9.44023 23.9478 9.63422L15.6166 15.1377L1.81844 10.5827C1.63829 10.5232 1.61133 10.3779 1.61133 10.2966C1.61133 10.2153 1.63829 10.07 1.81844 10.0105L27.0575 1.67864C27.3428 1.58438 27.6571 1.58438 27.9424 1.67864L53.1814 10.0105C53.3616 10.07 53.3886 10.2153 53.3886 10.2966C53.3886 10.3779 53.3616 10.5232 53.1814 10.5827L37.863 15.6395C37.4405 15.7789 37.2113 16.2339 37.3509 16.6557C37.4906 17.0773 37.9464 17.3064 38.3688 17.1668L42.6326 15.7592C43.0674 18.2455 43.3841 20.9264 43.5554 23.5726L36.5431 26.1204L24.0903 30.6448L24.0868 30.6462C23.4391 30.8829 22.9502 31.4469 22.6981 32.2276C21.4362 32.024 20.2105 31.7637 19.0414 31.4517C18.8398 28.3826 18.4508 25.7848 17.8775 23.6926ZM25.4619 9.01516C25.4619 8.4821 26.3289 7.88599 27.4894 7.88599C28.6499 7.88599 29.5169 8.48221 29.5169 9.01516C29.5169 9.4871 28.4659 9.7021 27.4894 9.7021C26.513 9.7021 25.4619 9.4871 25.4619 9.01516ZM38.0252 27.9881C38.5129 28.4032 38.9533 29.0822 39.2336 29.8509C39.5138 30.6197 39.6137 31.4224 39.5074 32.0533C39.4293 32.5164 39.2485 32.8418 39.0236 32.9235L28.667 36.6865C28.7817 35.8117 28.6515 34.8029 28.295 33.8252C27.9384 32.8476 27.3887 31.9912 26.7377 31.3947L37.0943 27.6317C37.3186 27.5501 37.667 27.6833 38.0252 27.9881ZM24.4314 35.229C24.1512 34.4603 24.0513 33.6575 24.1576 33.0267C24.2356 32.5635 24.4164 32.2384 24.6411 32.1565C24.6846 32.1408 24.7334 32.1327 24.7852 32.1327C25.0015 32.1327 25.2837 32.2668 25.5723 32.5125C26.06 32.9276 26.5004 33.6066 26.7806 34.3753C27.0609 35.1441 27.1608 35.9469 27.0545 36.5777C26.9764 37.041 26.7956 37.3663 26.5706 37.448C26.3461 37.5297 25.9979 37.3966 25.6397 37.0918C25.1521 36.6768 24.7117 35.9978 24.4314 35.229ZM47.0282 34.6582L43.8831 35.801C43.6028 35.098 43.0971 34.12 42.2872 33.4496L43.1466 33.1373C43.5851 33.0939 45.9024 32.9534 47.0282 34.6582ZM41.6852 26.6583C42.1729 27.0734 42.6135 27.7524 42.8937 28.5211C43.4823 30.1356 43.1629 31.4188 42.6843 31.5936L41.1197 32.162C41.2344 31.2873 41.1042 30.2785 40.7477 29.3008C40.3912 28.3232 39.8416 27.4667 39.1906 26.8701L40.7543 26.3019C40.9795 26.2204 41.3272 26.3535 41.6852 26.6583Z" fill="white"/>
</svg>
