<svg width="50" height="50" viewBox="0 0 50 50" fill="none" xmlns="http://www.w3.org/2000/svg">
<path d="M30.418 18.7817C30.0773 18.7817 29.7442 18.8828 29.4609 19.0721C29.1776 19.2613 28.9568 19.5304 28.8264 19.8452C28.6961 20.1599 28.6619 20.5063 28.7284 20.8405C28.7949 21.1746 28.959 21.4816 29.1999 21.7225C29.4408 21.9634 29.7477 22.1275 30.0819 22.194C30.4161 22.2604 30.7624 22.2263 31.0772 22.0959C31.392 21.9655 31.661 21.7447 31.8503 21.4615C32.0396 21.1782 32.1406 20.8451 32.1406 20.5044C32.1401 20.0477 31.9585 19.6098 31.6355 19.2868C31.3126 18.9639 30.8747 18.7822 30.418 18.7817ZM30.418 21.0551C30.309 21.0551 30.2025 21.0228 30.112 20.9622C30.0214 20.9017 29.9508 20.8157 29.9091 20.715C29.8674 20.6144 29.8565 20.5037 29.8778 20.3968C29.899 20.29 29.9515 20.1918 30.0285 20.1148C30.1056 20.0378 30.2037 19.9853 30.3106 19.9641C30.4174 19.9428 30.5282 19.9538 30.6288 19.9955C30.7295 20.0372 30.8155 20.1078 30.876 20.1984C30.9365 20.289 30.9688 20.3955 30.9687 20.5044C30.9685 20.6503 30.9104 20.7902 30.8071 20.8934C30.7039 20.9966 30.5639 21.0546 30.418 21.0547V21.0551Z" fill="#001244"/>
<path d="M21.2676 20.1299C21.2676 19.7892 21.1665 19.4561 20.9773 19.1728C20.788 18.8895 20.5189 18.6687 20.2041 18.5383C19.8894 18.408 19.543 18.3739 19.2088 18.4403C18.8746 18.5068 18.5677 18.6709 18.3268 18.9118C18.0859 19.1527 17.9218 19.4597 17.8554 19.7939C17.7889 20.128 17.823 20.4744 17.9534 20.7892C18.0838 21.104 18.3046 21.373 18.5879 21.5623C18.8712 21.7515 19.2043 21.8526 19.545 21.8525C20.0017 21.852 20.4396 21.6704 20.7625 21.3474C21.0854 21.0245 21.2671 20.5866 21.2676 20.1299ZM19.545 20.6807C19.4361 20.6807 19.3296 20.6484 19.239 20.5879C19.1484 20.5274 19.0778 20.4414 19.0361 20.3407C18.9944 20.2401 18.9835 20.1293 19.0047 20.0225C19.026 19.9156 19.0784 19.8175 19.1554 19.7405C19.2325 19.6634 19.3306 19.611 19.4374 19.5897C19.5443 19.5684 19.655 19.5793 19.7557 19.621C19.8563 19.6627 19.9423 19.7333 20.0029 19.8239C20.0634 19.9145 20.0957 20.0209 20.0957 20.1299C20.0955 20.2759 20.0375 20.4159 19.9342 20.5191C19.831 20.6224 19.691 20.6805 19.545 20.6807Z" fill="#001244"/>
<path d="M29.7168 23.5215C29.5614 23.5215 29.4124 23.5832 29.3025 23.6931C29.1926 23.803 29.1309 23.952 29.1309 24.1074C29.1309 25.2082 28.6936 26.2638 27.9152 27.0422C27.1369 27.8205 26.0812 28.2578 24.9805 28.2578C23.8797 28.2578 22.824 27.8205 22.0457 27.0422C21.2674 26.2638 20.8301 25.2082 20.8301 24.1074C20.8301 23.952 20.7683 23.803 20.6585 23.6931C20.5486 23.5832 20.3995 23.5215 20.2441 23.5215C20.0887 23.5215 19.9397 23.5832 19.8298 23.6931C19.7199 23.803 19.6582 23.952 19.6582 24.1074C19.6582 25.519 20.2189 26.8727 21.2171 27.8708C22.2152 28.869 23.5689 29.4297 24.9805 29.4297C26.392 29.4297 27.7458 28.869 28.7439 27.8708C29.742 26.8727 30.3027 25.519 30.3027 24.1074C30.3027 23.952 30.241 23.803 30.1311 23.6931C30.0212 23.5832 29.8722 23.5215 29.7168 23.5215Z" fill="#001244"/>
<path d="M37.1543 14.8144C37.1549 15.1302 37.2433 15.4397 37.4095 15.7083C37.5757 15.9769 37.8133 16.194 38.0957 16.3355C38.3781 16.4769 38.6942 16.5372 39.0089 16.5095C39.3235 16.4817 39.6243 16.3672 39.8776 16.1785C40.1309 15.9899 40.3269 15.7345 40.4436 15.441C40.5603 15.1475 40.5932 14.8274 40.5386 14.5163C40.484 14.2052 40.344 13.9153 40.1343 13.6791C39.9246 13.4429 39.6534 13.2696 39.351 13.1785V8.08086L39.4773 8.03203C40.2309 7.74209 40.3434 7.27832 40.3434 7.02764C40.3434 6.77695 40.2309 6.31318 39.4773 6.02334L26.3816 0.984766C25.5971 0.682812 24.3675 0.682812 23.5828 0.984766L10.4871 6.02383C9.7335 6.31367 9.62109 6.77744 9.62109 7.02813C9.62109 7.27881 9.7335 7.74258 10.4871 8.03252L14.4142 9.54346V15.3562C14.4146 15.4961 14.4653 15.6313 14.557 15.737C14.2628 16.3422 14.0222 16.972 13.838 17.6192C13.1667 17.8359 12.5814 18.2599 12.1662 18.8301C11.751 19.4004 11.5273 20.0877 11.5273 20.7931C11.5273 21.4985 11.751 22.1857 12.1662 22.756C12.5814 23.3263 13.1667 23.7502 13.838 23.9669C14.5286 26.3884 15.9893 28.519 17.9991 30.036C20.0089 31.553 22.4583 32.3739 24.9763 32.3742C27.4944 32.3746 29.944 31.5545 31.9543 30.0381C33.9646 28.5217 35.426 26.3916 36.1173 23.9703C36.7907 23.7549 37.3783 23.3311 37.7952 22.7601C38.2121 22.189 38.4368 21.5003 38.4368 20.7932C38.4368 20.0862 38.2121 19.3974 37.7952 18.8264C37.3783 18.2553 36.7907 17.8315 36.1173 17.6161C35.919 16.9207 35.6555 16.2455 35.3304 15.5996C35.3658 15.5235 35.3843 15.4406 35.3847 15.3566V9.60674L38.1793 8.53145V13.2482C37.8748 13.3815 37.6157 13.6006 37.4337 13.8787C37.2516 14.1568 37.1546 14.482 37.1543 14.8144ZM39.3923 14.8144C39.3915 14.9196 39.3596 15.0223 39.3005 15.1094C39.2414 15.1966 39.1579 15.2643 39.0604 15.304C38.963 15.3438 38.8559 15.3537 38.7527 15.3327C38.6496 15.3117 38.555 15.2606 38.4808 15.1859C38.4067 15.1112 38.3563 15.0162 38.336 14.9129C38.3158 14.8096 38.3266 14.7026 38.3671 14.6054C38.4075 14.5082 38.4758 14.4252 38.5634 14.3668C38.651 14.3084 38.7539 14.2772 38.8592 14.2772C39.001 14.278 39.1368 14.3349 39.2368 14.4356C39.3367 14.5363 39.3926 14.6725 39.3923 14.8144ZM35.5258 18.6708C36.0162 18.7689 36.4574 19.0338 36.7745 19.4205C37.0915 19.8073 37.2648 20.2919 37.2648 20.792C37.2648 21.2921 37.0915 21.7767 36.7745 22.1635C36.4574 22.5502 36.0162 22.8151 35.5258 22.9132C35.4169 22.9347 35.3165 22.9867 35.236 23.0631C35.1556 23.1396 35.0985 23.2372 35.0714 23.3448C34.5028 25.5908 33.2012 27.5829 31.3729 29.0059C29.5446 30.4289 27.2938 31.2014 24.977 31.2012C22.6601 31.201 20.4096 30.428 18.5815 29.0046C16.7535 27.5813 15.4524 25.5889 14.8842 23.3428C14.8572 23.2355 14.8004 23.138 14.7203 23.0616C14.6402 22.9853 14.5401 22.9332 14.4316 22.9113C13.943 22.8119 13.5037 22.5466 13.1882 22.1604C12.8727 21.7742 12.7004 21.2909 12.7004 20.7922C12.7004 20.2935 12.8727 19.8102 13.1882 19.424C13.5037 19.0378 13.943 18.7725 14.4316 18.673C14.5401 18.6512 14.6402 18.5991 14.7203 18.5227C14.8004 18.4464 14.8572 18.3489 14.8842 18.2416C15.0644 17.5278 15.3204 16.8352 15.6477 16.1757C18.6484 17.0725 21.7644 17.5249 24.8964 17.5185C28.0782 17.5247 31.2433 17.058 34.288 16.1339C34.625 16.8052 34.8878 17.5112 35.0719 18.2394C35.0989 18.3469 35.156 18.4445 35.2363 18.5209C35.3167 18.5973 35.417 18.6494 35.5258 18.671V18.6708ZM15.586 14.9295V9.99385L23.5828 13.0706C24.4913 13.3726 25.4731 13.3726 26.3816 13.0706L34.2126 10.0576V14.9307C28.274 16.8192 21.5204 16.8212 15.586 14.9295ZM25.9608 11.977C25.4394 12.1774 24.5253 12.1774 24.0035 11.977L11.1401 7.02764L24.0035 2.07842C24.525 1.87783 25.4391 1.87783 25.9608 2.07842L38.8243 7.02764L25.9608 11.977Z" fill="#001244"/>
<path d="M5.7631 35.642C5.76823 35.6692 5.77525 35.6961 5.78409 35.7223C6.29784 37.233 7.28139 38.5396 8.59093 39.4512L13.3202 42.7097C13.3305 42.7169 13.341 42.7236 13.3518 42.7301C13.6675 42.9182 13.9037 43.2153 14.0158 43.5653L14.3748 48.4148C14.3833 48.5298 14.4256 48.6398 14.4963 48.7309C14.567 48.822 14.6631 48.8902 14.7724 48.9269L14.87 48.9596C17.0121 49.6847 19.3307 49.7008 21.4826 49.0055L21.7198 48.9295C21.838 48.8916 21.9411 48.8171 22.0143 48.7168C22.0874 48.6166 22.1269 48.4957 22.1269 48.3716V45.6532C22.1148 44.3905 22.0124 43.1304 21.8205 41.8823C21.8084 41.7977 21.7997 41.7112 21.7947 41.6252L21.7222 40.3745C21.7212 40.3585 21.7196 40.3425 21.7174 40.3265C21.5446 39.0811 21.0305 37.9077 20.232 36.9364C19.4335 35.9651 18.3818 35.2337 17.1933 34.8232L16.7867 34.6817C16.2342 34.4885 15.7321 34.1736 15.3176 33.7603L13.3547 31.7974L12.6841 29.5281C12.5201 28.9212 12.1783 28.3772 11.7027 27.9661C11.2271 27.5549 10.6394 27.2955 10.0151 27.221L9.91866 26.8987C9.9173 26.894 9.91573 26.8889 9.91427 26.8846C9.59464 25.9081 8.54708 25.2721 7.4673 25.318L7.4506 25.2623C7.24149 24.5597 6.76945 23.9649 6.13276 23.6017C5.49608 23.2384 4.74382 23.1348 4.03263 23.3123C3.88767 23.3483 3.76192 23.4383 3.6811 23.5639C3.60027 23.6895 3.57046 23.8412 3.59777 23.9881L5.7631 35.642ZM11.5541 29.8381C11.5554 29.8431 11.5568 29.8483 11.5584 29.8534L11.7331 30.4445C11.4685 30.3174 11.1883 30.2257 10.8997 30.1718L10.4062 28.5249C10.6851 28.6414 10.9336 28.8204 11.1325 29.0481C11.3315 29.2757 11.4755 29.546 11.5535 29.8381H11.5541ZM8.79845 27.2435L9.67433 30.1661C9.43562 30.2079 9.20215 30.2754 8.97804 30.3676L7.82355 26.5095C8.27228 26.5865 8.67111 26.8643 8.79845 27.2435ZM6.32775 25.5985L7.84142 30.6587L7.95607 31.029C7.93003 31.0532 7.90457 31.0779 7.8797 31.103C7.8237 31.159 7.77963 31.2257 7.75015 31.2992C7.72067 31.3727 7.70638 31.4514 7.70816 31.5306C7.70994 31.6097 7.72775 31.6877 7.7605 31.7598C7.79326 31.8319 7.84029 31.8966 7.89874 31.95L10.2681 34.1141C10.9543 34.7415 11.5819 35.43 12.1431 36.1714C12.1895 36.2327 12.2476 36.2843 12.314 36.3232C12.3804 36.3621 12.4538 36.3876 12.53 36.3981C12.6062 36.4087 12.6838 36.4041 12.7582 36.3847C12.8327 36.3652 12.9026 36.3313 12.9639 36.2849C13.0253 36.2384 13.0769 36.1804 13.1158 36.114C13.1547 36.0476 13.1802 35.9742 13.1907 35.898C13.2012 35.8217 13.1967 35.7442 13.1772 35.6697C13.1578 35.5953 13.1239 35.5254 13.0775 35.464C12.473 34.6658 11.797 33.9243 11.0579 33.2489L9.20597 31.5568C9.62527 31.3271 10.1077 31.2395 10.581 31.307C11.0543 31.3746 11.493 31.5937 11.8313 31.9316L14.4885 34.5889C15.0281 35.127 15.6817 35.537 16.401 35.7884L16.8076 35.93C17.7887 36.2688 18.6574 36.8715 19.3182 37.672C19.979 38.4724 20.4063 39.4396 20.5531 40.4671L20.6243 41.6933C20.6313 41.8119 20.6432 41.931 20.6599 42.0477C20.8438 43.241 20.9423 44.4459 20.9545 45.6532V47.9424C19.1804 48.4791 17.2868 48.4768 15.5141 47.9356L15.1796 43.4149C15.1767 43.3756 15.1698 43.3367 15.1591 43.2987C14.9755 42.6455 14.5507 42.0865 13.9705 41.7347L9.25714 38.4872C8.16623 37.7274 7.34376 36.6418 6.90753 35.386L4.8673 24.4063C5.20219 24.4357 5.5205 24.5651 5.78093 24.7777C6.04135 24.9903 6.23187 25.2763 6.32775 25.5985Z" fill="#001244"/>
<path d="M31.6957 49.4913C32.8116 49.4921 33.9207 49.3169 34.982 48.9722L35.1148 48.9288C35.2233 48.8935 35.3191 48.8273 35.3905 48.7384C35.4619 48.6494 35.5057 48.5416 35.5167 48.428L35.9829 43.5715C36.0942 43.2191 36.3311 42.9198 36.6485 42.7306C36.6593 42.7241 36.6698 42.7174 36.6801 42.7103L41.4107 39.4509C42.7195 38.5393 43.7024 37.233 44.2158 35.7229C44.2247 35.6967 44.2317 35.6698 44.2368 35.6426L46.4022 23.9892C46.4296 23.8423 46.3997 23.6906 46.3189 23.565C46.2381 23.4394 46.1123 23.3494 45.9674 23.3134C45.2562 23.1357 44.5039 23.2393 43.8672 23.6025C43.2304 23.9658 42.7584 24.5607 42.5494 25.2633L42.5326 25.3192C41.4524 25.2735 40.4054 25.9089 40.0856 26.8857C40.0842 26.8904 40.0826 26.8955 40.0813 26.8998L39.9848 27.2221C39.3605 27.2966 38.7728 27.556 38.2972 27.9672C37.8216 28.3783 37.4798 28.9223 37.3158 29.5292L36.6452 31.7985L34.6823 33.7614C34.2678 34.1748 33.7657 34.4896 33.2132 34.6828L32.8067 34.8243C31.6182 35.2348 30.5665 35.9662 29.768 36.9375C28.9695 37.9088 28.4553 39.0822 28.2825 40.3276C28.2803 40.3436 28.2787 40.3596 28.2777 40.3756L28.2052 41.6256C28.2002 41.7119 28.1915 41.7984 28.1795 41.8828C27.9875 43.1309 27.8851 44.3912 27.873 45.6539V48.3723C27.8733 48.4945 27.9117 48.6136 27.983 48.7129C28.0543 48.8122 28.1548 48.8868 28.2706 48.9261C29.3736 49.3012 30.5307 49.4921 31.6957 49.4913ZM41.2015 27.2438C41.3289 26.8645 41.7282 26.5864 42.1766 26.5096L41.0391 30.3128L41.0219 30.3682C40.7978 30.276 40.5643 30.2084 40.3256 30.1666L41.2015 27.2438ZM38.4419 29.8538C38.4435 29.8487 38.4449 29.844 38.4462 29.8385C38.5243 29.5463 38.6684 29.276 38.8674 29.0484C39.0665 28.8207 39.3151 28.6418 39.5941 28.5253L39.1007 30.1721C38.8121 30.2259 38.5319 30.3176 38.2673 30.4447L38.4419 29.8538ZM29.0454 45.6536C29.0576 44.4462 29.1561 43.2413 29.3401 42.0479C29.3567 41.9314 29.3687 41.8123 29.3756 41.6936L29.4468 40.4675C29.5936 39.44 30.021 38.4728 30.6818 37.6724C31.3426 36.8719 32.2113 36.2692 33.1924 35.9304L33.5989 35.7889C34.3183 35.5374 34.9719 35.1274 35.5114 34.5894L38.1687 31.932C38.5069 31.5942 38.9456 31.375 39.4189 31.3075C39.8922 31.2399 40.3746 31.3275 40.7939 31.5572L38.9415 33.2491C38.2024 33.9246 37.5264 34.666 36.922 35.4643C36.8755 35.5256 36.8416 35.5955 36.8222 35.67C36.8028 35.7444 36.7982 35.822 36.8087 35.8982C36.8193 35.9744 36.8447 36.0478 36.8836 36.1142C36.9225 36.1806 36.9741 36.2387 37.0355 36.2851C37.0969 36.3316 37.1667 36.3655 37.2412 36.3849C37.3157 36.4043 37.3932 36.4089 37.4694 36.3983C37.5457 36.3878 37.6191 36.3624 37.6854 36.3234C37.7518 36.2845 37.8099 36.2329 37.8563 36.1716C38.4175 35.4303 39.0451 34.7417 39.7313 34.1144L42.1007 31.9502C42.1591 31.8968 42.2062 31.8321 42.2389 31.76C42.2717 31.6879 42.2895 31.6099 42.2913 31.5308C42.293 31.4516 42.2788 31.3729 42.2493 31.2994C42.2198 31.226 42.1757 31.1592 42.1197 31.1032C42.0946 31.0782 42.0691 31.0535 42.0434 31.0291L42.1597 30.6536L43.6718 25.5985C43.7676 25.2763 43.9581 24.9904 44.2185 24.7778C44.479 24.5653 44.7973 24.4359 45.1321 24.4065L43.0924 35.3862C42.6564 36.6416 41.8344 37.7268 40.7441 38.4866L36.0293 41.7351C35.4492 42.0869 35.0244 42.6459 34.8408 43.299C34.8312 43.3329 34.8247 43.3675 34.8213 43.4025L34.3868 47.93C32.6441 48.4452 30.7901 48.4495 29.045 47.9425L29.0454 45.6536Z" fill="#001244"/>
</svg>
