<svg width="50" height="50" viewBox="0 0 50 50" fill="none" xmlns="http://www.w3.org/2000/svg">
<path d="M38.9311 34.4394C43.1726 30.1979 45.5085 24.5583 45.5085 18.5596C45.5085 12.5608 43.1726 6.92132 38.9311 2.67981C37.7892 1.5379 35.9308 1.5378 34.7885 2.67981C34.4944 2.9739 34.2766 3.31574 34.134 3.68043C28.2016 -0.747181 20.1034 -1.26712 13.5938 2.59515C13.13 2.87031 12.9771 3.46933 13.2522 3.93312C13.5273 4.39701 14.1265 4.54992 14.5902 4.27467C16.8304 2.94549 19.281 2.19649 21.7508 2.00345L21.3468 3.44082C21.0154 4.62071 20.9015 4.86442 20.0697 5.60981C19.765 5.88291 19.4601 6.16216 19.1654 6.43224C18.8751 6.69831 18.5748 6.97336 18.2787 7.23865C18.2654 7.25056 18.2525 7.26277 18.2399 7.27536C17.5277 7.98755 17.3094 8.91436 17.6412 9.81812C18.0958 11.0568 19.5719 12.0837 21.0748 12.2069L26.8088 12.6768C28.33 12.8013 29.1849 12.6307 30.2282 11.2895C30.3718 11.1049 30.5709 10.9882 30.7744 10.9692C30.9919 10.9489 31.2119 11.0365 31.4303 11.2294L34.3147 13.7774C35.0594 14.4353 35.818 15.0124 36.7778 15.0123C37.175 15.0123 37.6069 14.9134 38.0864 14.6804L39.0654 14.2047C40.5657 19.7586 39.1403 25.9452 34.7885 30.2969C34.4248 30.6606 34.0477 31.0026 33.6599 31.3254L32.7118 30.4143C31.6407 29.3848 30.6403 29.242 29.4665 29.3447L24.3895 29.7888C23.4215 29.8737 23.3677 29.7641 23.1086 29.2383L22.6598 28.3276C22.6263 28.2597 22.6229 28.1702 22.651 28.0994C22.6735 28.0429 22.71 28.0089 22.7731 27.9853L24.5404 27.3278C25.9575 26.8006 26.3695 26.0227 26.67 24.681L27.4337 21.2733C27.6293 20.4006 27.4362 19.5418 26.904 18.9171C26.3902 18.3138 25.6359 18.0099 24.7812 18.0626L21.9231 18.2371C20.5331 18.3219 19.6596 18.9391 19.1744 20.1796L18.5438 21.7923C18.2349 22.5818 18.0891 22.7013 17.2422 22.8575L15.8015 23.1233C15.6766 23.1465 15.2968 23.2163 15.0661 22.5786L14.23 20.2685C13.7463 18.9318 12.7722 18.2175 11.2523 18.0846L6.46867 17.6663C6.608 15.0594 7.36393 12.462 8.76595 10.0989C9.04111 9.63514 8.8882 9.03611 8.42441 8.76096C7.96061 8.48581 7.36159 8.63862 7.08644 9.10251C3.22436 15.612 3.7443 23.7099 8.17201 29.6423C7.80732 29.7849 7.46548 30.0027 7.17139 30.2968C6.02928 31.4389 6.02928 33.2972 7.17139 34.4394C11.1819 38.4498 16.4425 40.7553 22.0746 40.9947V43.6532H15.2398C13.6246 43.6532 12.3106 44.9673 12.3106 46.5824V49.0235C12.3106 49.5627 12.7477 49.9999 13.287 49.9999H36.7207C37.2598 49.9999 37.6971 49.5627 37.6971 49.0235V46.5824C37.6971 44.9673 36.3831 43.6532 34.7679 43.6532H27.9331V40.4869C32.0681 39.5751 35.865 37.5055 38.9311 34.4394ZM37.2328 12.924C36.8066 13.1312 36.63 13.2171 35.6075 12.3138L32.723 9.76588C32.1024 9.21763 31.3458 8.95459 30.5927 9.02498C29.8545 9.09392 29.1598 9.48233 28.6867 10.0906C28.1531 10.7766 28.0411 10.8184 26.9681 10.7307L21.2343 10.2607C20.4373 10.1954 19.6478 9.61796 19.4744 9.14547C19.4271 9.01668 19.4018 8.88331 19.6047 8.6727C19.9013 8.40663 20.1977 8.13509 20.4846 7.87224C20.7755 7.60578 21.0762 7.33014 21.3728 7.06436C22.575 5.98709 22.836 5.35995 23.2267 3.96925L23.7885 1.96996C27.824 2.15148 31.77 3.80424 34.7884 6.8227C36.4137 8.44793 37.6305 10.3293 38.4395 12.3378L37.2328 12.924ZM12.3939 20.9329L13.23 23.2429C13.7121 24.5757 14.861 25.2827 16.156 25.0436L17.5967 24.7778C19.1087 24.4989 19.8067 23.9249 20.3625 22.5035L20.9932 20.8909C21.1756 20.4245 21.3216 20.2302 22.0421 20.1863L24.9002 20.0118C25.1337 19.9974 25.3082 20.0552 25.4175 20.1835C25.5459 20.3343 25.5873 20.5821 25.5281 20.8463L24.7644 24.254C24.5509 25.2067 24.4653 25.2722 23.8593 25.4975L22.092 26.1551C21.5096 26.3718 21.0636 26.806 20.8362 27.3779C20.6031 27.9642 20.6292 28.6249 20.9079 29.1906L21.3567 30.1016C22.1091 31.6287 23.14 31.8586 24.5595 31.7342L29.6364 31.2901C30.4269 31.2211 30.8057 31.2909 31.3584 31.8223L32.0633 32.4997C25.6351 36.6574 16.9407 35.9237 11.3139 30.2968C8.37793 27.3608 6.73396 23.5473 6.47931 19.6275L11.082 20.03C11.9371 20.1047 12.2028 20.4049 12.3939 20.9329ZM8.55241 31.6777C8.93292 31.2971 9.55216 31.297 9.93286 31.6773C9.93295 31.6774 9.93305 31.6776 9.93325 31.6777C13.55 35.2943 18.3006 37.1027 23.0514 37.1027C27.802 37.1027 32.5528 35.2943 36.1695 31.6777C43.4027 24.4444 43.4027 12.6749 36.1695 5.44157C35.985 5.25713 35.8835 5.01196 35.8835 4.75116C35.8835 4.49036 35.985 4.24518 36.1695 4.06074C36.5502 3.68004 37.1697 3.68014 37.5503 4.06074C45.545 12.0555 45.545 25.0638 37.5503 33.0585C29.5557 41.0533 16.5473 41.0533 8.55251 33.0585C8.17171 32.6778 8.17171 32.0584 8.55241 31.6777ZM35.7444 46.5825V48.0472H14.2636V46.5825C14.2636 46.0442 14.7016 45.6061 15.24 45.6061H34.7681C35.3065 45.6061 35.7444 46.0442 35.7444 46.5825ZM25.9805 43.6533H24.0276V40.9948C24.6841 40.9668 25.3355 40.9109 25.9805 40.8274V43.6533Z" fill="white"/>
<path d="M10.6238 7.10906C11.163 7.10906 11.6002 6.67193 11.6002 6.13266C11.6002 5.59339 11.163 5.15625 10.6238 5.15625H10.623C10.0837 5.15625 9.64697 5.59339 9.64697 6.13266C9.64697 6.67193 10.0845 7.10906 10.6238 7.10906Z" fill="white"/>
</svg>
