<svg width="41" height="45" viewBox="0 0 41 45" fill="none" xmlns="http://www.w3.org/2000/svg">
<path d="M39.3992 16.4283H36.7173V16.1271C36.7173 15.3774 36.1074 14.7676 35.3577 14.7676H30.0682C29.7037 14.7676 29.4081 15.063 29.4081 15.4277C29.4081 15.7923 29.7037 16.0878 30.0682 16.0878H35.3577C35.3794 16.0878 35.3971 16.1054 35.3971 16.1271V24.1758C35.3971 24.5405 35.6926 24.836 36.0572 24.836C36.4217 24.836 36.7173 24.5405 36.7173 24.1758V17.7486H39.3992C39.4885 17.7486 39.5611 17.8212 39.5611 17.9104V40.9402C39.5611 42.4508 38.3321 43.6798 36.8215 43.6798H4.17696C2.66636 43.6798 1.43741 42.4508 1.43741 40.9402V17.9104C1.43741 17.8212 1.51002 17.7486 1.59927 17.7486H4.36919V40.3255C4.36919 41.2564 5.12647 42.0137 6.0574 42.0137H35.029C35.9599 42.0137 36.7172 41.2565 36.7172 40.3255V26.9914C36.7172 26.6267 36.4217 26.3312 36.0571 26.3312C35.6925 26.3312 35.397 26.6267 35.397 26.9914V36.4909H24.7169C23.3337 36.4909 22.0853 37.0758 21.2034 38.0102V29.4714C21.2034 29.1068 20.9078 28.8113 20.5432 28.8113C20.1787 28.8113 19.8831 29.1068 19.8831 29.4714V38.0103C19.0012 37.0759 17.7527 36.491 16.3696 36.491H13.37C13.0055 36.491 12.7099 36.7864 12.7099 37.1511C12.7099 37.5157 13.0055 37.8112 13.37 37.8112H16.3696C18.0914 37.8112 19.5269 39.0565 19.8253 40.6935H6.0574C5.85444 40.6935 5.68941 40.5285 5.68941 40.3255V37.8112H10.5544C10.919 37.8112 11.2145 37.5157 11.2145 37.1511C11.2145 36.7864 10.919 36.491 10.5544 36.491H5.68941V16.1271C5.68941 16.1054 5.7071 16.0878 5.72884 16.0878H11.0183C11.3828 16.0878 11.6784 15.7923 11.6784 15.4277C11.6784 15.063 11.3828 14.7676 11.0183 14.7676H5.72884C4.97913 14.7676 4.36919 15.3775 4.36919 16.1271V16.4283H1.59927C0.782052 16.4283 0.117188 17.0932 0.117188 17.9104V40.9402C0.117188 43.1788 1.93839 45 4.17696 45H36.8213C39.0599 45 40.8811 43.1788 40.8811 40.9402V17.9104C40.8812 17.0932 40.2164 16.4283 39.3992 16.4283ZM24.7169 37.8111H35.397V40.3255C35.397 40.5285 35.232 40.6935 35.029 40.6935H21.2613C21.5596 39.0564 22.9951 37.8111 24.7169 37.8111Z" fill="#001244"/>
<path d="M11.7427 9.2619C12.105 9.29552 12.4276 9.02963 12.4618 8.66665C12.6506 6.66484 13.575 4.81142 15.0649 3.4479C16.564 2.07592 18.5098 1.32022 20.5438 1.32022C25.0205 1.32022 28.6626 4.96228 28.6626 9.43889C28.6626 11.1234 28.1513 12.7388 27.1841 14.1108C27.1786 14.1186 27.1734 14.1265 27.1682 14.1344L22.944 20.7107C22.8756 20.8172 22.8392 20.9409 22.8392 21.0675V21.9227C22.8392 22.0962 22.6981 22.2374 22.5245 22.2374H22.4814L22.9019 15.1016H23.6539C24.73 15.1016 25.6054 14.2262 25.6054 13.1502V13.0701C25.6054 11.9941 24.73 11.1187 23.6539 11.1187C22.6223 11.1187 21.7666 11.9255 21.7059 12.9554L21.6572 13.7814H19.3423L19.2936 12.9554C19.233 11.9255 18.3772 11.1187 17.3456 11.1187C16.2695 11.1187 15.3941 11.9941 15.3941 13.0701V13.1502C15.3941 14.2262 16.2695 15.1016 17.3456 15.1016H18.0976L18.5179 22.2328C18.3659 22.2106 18.2484 22.0807 18.2484 21.9227V21.0675C18.2484 20.9409 18.212 20.8172 18.1437 20.7107L13.9194 14.1344C13.9143 14.1265 13.9091 14.1186 13.9036 14.1108C13.2962 13.2491 12.8685 12.2916 12.6325 11.2648C12.5507 10.9094 12.196 10.6877 11.8412 10.7693C11.4859 10.8511 11.2641 11.2053 11.3458 11.5606C11.6194 12.7505 12.1141 13.8603 12.8163 14.8596L16.9283 21.2611V21.9225C16.9283 22.589 17.3298 23.1628 17.9032 23.4171V24.5334C17.9032 25.708 18.8588 26.6636 20.0334 26.6636H21.0547C22.2293 26.6636 23.185 25.708 23.185 24.5334V23.4171C23.7583 23.1628 24.1598 22.5891 24.1598 21.9225V21.2611L28.2718 14.8596C29.3913 13.2664 29.9831 11.3922 29.9831 9.43881C29.9827 4.23422 25.7484 0 20.5438 0C18.179 0 15.9167 0.878653 14.1735 2.47401C12.4417 4.05916 11.367 6.21429 11.1475 8.54273C11.1132 8.90579 11.3797 9.22775 11.7427 9.2619ZM23.0238 13.033C23.0434 12.6998 23.3202 12.4389 23.6539 12.4389C24.002 12.4389 24.2851 12.722 24.2851 13.07V13.1501C24.2851 13.4981 24.002 13.7813 23.6539 13.7813H22.9797L23.0238 13.033ZM17.3456 13.7813C16.9975 13.7813 16.7144 13.4981 16.7144 13.1501V13.07C16.7144 12.722 16.9975 12.4389 17.3456 12.4389C17.6794 12.4389 17.9561 12.6998 17.9757 13.033L18.0198 13.7813H17.3456ZM21.5794 15.1015L21.1589 22.2373H19.8407L19.4202 15.1015H21.5794ZM21.8644 24.5335C21.8644 24.98 21.5011 25.3435 21.0544 25.3435H20.0331C19.5865 25.3435 19.2231 24.98 19.2231 24.5335V23.5575H21.8643V24.5335H21.8644Z" fill="#001244"/>
<path d="M32.1057 5.0125C32.2603 5.0125 32.4156 4.95846 32.5409 4.84844L33.9812 3.58385C34.2552 3.34339 34.2822 2.9262 34.0417 2.6523C33.8013 2.37839 33.3842 2.35128 33.1102 2.59174L31.6699 3.85634C31.3959 4.0968 31.3689 4.51399 31.6093 4.78789C31.7399 4.93655 31.9223 5.0125 32.1057 5.0125Z" fill="#001244"/>
<path d="M31.6699 8.99361L33.1101 10.2583C33.2355 10.3684 33.3907 10.4224 33.5455 10.4224C33.7288 10.4224 33.9113 10.3464 34.0418 10.1977C34.2823 9.92384 34.2552 9.50674 33.9813 9.2662L32.541 8.00151C32.2671 7.76088 31.85 7.78807 31.6095 8.06206C31.3689 8.33597 31.3959 8.75298 31.6699 8.99361Z" fill="#001244"/>
<path d="M7.10549 3.58395L8.54576 4.84854C8.6711 4.95865 8.82635 5.0126 8.981 5.0126C9.16433 5.0126 9.34679 4.93665 9.47731 4.78799C9.71786 4.51409 9.69075 4.0969 9.41676 3.85644L7.97648 2.59184C7.70258 2.35121 7.28539 2.37841 7.04493 2.6524C6.80439 2.9263 6.8315 3.3434 7.10549 3.58395Z" fill="#001244"/>
<path d="M7.54117 10.4227C7.69581 10.4227 7.85107 10.3687 7.97649 10.2587L9.41677 8.994C9.69067 8.75346 9.71778 8.33635 9.47723 8.06245C9.23678 7.78855 8.81967 7.76144 8.54568 8.0019L7.10541 9.26658C6.8315 9.50713 6.8044 9.92423 7.04494 10.1981C7.17538 10.3468 7.35774 10.4227 7.54117 10.4227Z" fill="#001244"/>
<path d="M14.7035 22.8974C14.7035 22.5328 14.408 22.2373 14.0434 22.2373H7.54097C7.17641 22.2373 6.88086 22.5328 6.88086 22.8974C6.88086 23.2621 7.17641 23.5575 7.54097 23.5575H14.0434C14.408 23.5575 14.7035 23.2621 14.7035 22.8974Z" fill="#001244"/>
<path d="M16.0534 25.5952H8.73238C8.36782 25.5952 8.07227 25.8907 8.07227 26.2553C8.07227 26.62 8.36782 26.9154 8.73238 26.9154H16.0534C16.4179 26.9154 16.7135 26.62 16.7135 26.2553C16.7135 25.8907 16.4179 25.5952 16.0534 25.5952Z" fill="#001244"/>
<path d="M16.0534 28.8115H8.73238C8.36782 28.8115 8.07227 29.107 8.07227 29.4716C8.07227 29.8363 8.36782 30.1317 8.73238 30.1317H16.0534C16.4179 30.1317 16.7135 29.8363 16.7135 29.4716C16.7135 29.107 16.4179 28.8115 16.0534 28.8115Z" fill="#001244"/>
<path d="M16.0534 32.0273H8.73238C8.36782 32.0273 8.07227 32.3228 8.07227 32.6875C8.07227 33.0521 8.36782 33.3476 8.73238 33.3476H16.0534C16.4179 33.3476 16.7135 33.0521 16.7135 32.6875C16.7135 32.3228 16.4179 32.0273 16.0534 32.0273Z" fill="#001244"/>
<path d="M34.2055 22.8974C34.2055 22.5328 33.9099 22.2373 33.5454 22.2373H27.0429C26.6784 22.2373 26.3828 22.5328 26.3828 22.8974C26.3828 23.2621 26.6784 23.5575 27.0429 23.5575H33.5454C33.9099 23.5575 34.2055 23.2621 34.2055 22.8974Z" fill="#001244"/>
<path d="M32.3541 25.5952H25.0332C24.6686 25.5952 24.373 25.8907 24.373 26.2553C24.373 26.62 24.6686 26.9154 25.0332 26.9154H32.3541C32.7187 26.9154 33.0143 26.62 33.0143 26.2553C33.0143 25.8907 32.7187 25.5952 32.3541 25.5952Z" fill="#001244"/>
<path d="M32.3541 28.8115H25.0332C24.6686 28.8115 24.373 29.107 24.373 29.4716C24.373 29.8363 24.6686 30.1317 25.0332 30.1317H32.3541C32.7187 30.1317 33.0143 29.8363 33.0143 29.4716C33.0143 29.107 32.7187 28.8115 32.3541 28.8115Z" fill="#001244"/>
<path d="M32.3541 32.0273H25.0332C24.6686 32.0273 24.373 32.3228 24.373 32.6875C24.373 33.0521 24.6686 33.3476 25.0332 33.3476H32.3541C32.7187 33.3476 33.0143 33.0521 33.0143 32.6875C33.0143 32.3228 32.7187 32.0273 32.3541 32.0273Z" fill="#001244"/>
</svg>
