<svg width="45" height="45" viewBox="0 0 45 45" fill="none" xmlns="http://www.w3.org/2000/svg">
<path d="M41.3992 16.4283H38.7173V16.1271C38.7173 15.3774 38.1074 14.7676 37.3577 14.7676H32.0682C31.7037 14.7676 31.4081 15.063 31.4081 15.4277C31.4081 15.7923 31.7037 16.0878 32.0682 16.0878H37.3577C37.3794 16.0878 37.3971 16.1054 37.3971 16.1271V24.1758C37.3971 24.5405 37.6926 24.836 38.0572 24.836C38.4217 24.836 38.7173 24.5405 38.7173 24.1758V17.7486H41.3992C41.4885 17.7486 41.5611 17.8212 41.5611 17.9104V40.9402C41.5611 42.4508 40.3321 43.6798 38.8215 43.6798H6.17696C4.66636 43.6798 3.43741 42.4508 3.43741 40.9402V17.9104C3.43741 17.8212 3.51002 17.7486 3.59927 17.7486H6.36919V40.3255C6.36919 41.2564 7.12647 42.0137 8.0574 42.0137H37.029C37.9599 42.0137 38.7172 41.2565 38.7172 40.3255V26.9914C38.7172 26.6267 38.4217 26.3312 38.0571 26.3312C37.6925 26.3312 37.397 26.6267 37.397 26.9914V36.4909H26.7169C25.3337 36.4909 24.0853 37.0758 23.2034 38.0102V29.4714C23.2034 29.1068 22.9078 28.8113 22.5432 28.8113C22.1787 28.8113 21.8831 29.1068 21.8831 29.4714V38.0103C21.0012 37.0759 19.7527 36.491 18.3696 36.491H15.37C15.0055 36.491 14.7099 36.7864 14.7099 37.1511C14.7099 37.5157 15.0055 37.8112 15.37 37.8112H18.3696C20.0914 37.8112 21.5269 39.0565 21.8253 40.6935H8.0574C7.85444 40.6935 7.68941 40.5285 7.68941 40.3255V37.8112H12.5544C12.919 37.8112 13.2145 37.5157 13.2145 37.1511C13.2145 36.7864 12.919 36.491 12.5544 36.491H7.68941V16.1271C7.68941 16.1054 7.7071 16.0878 7.72884 16.0878H13.0183C13.3828 16.0878 13.6784 15.7923 13.6784 15.4277C13.6784 15.063 13.3828 14.7676 13.0183 14.7676H7.72884C6.97913 14.7676 6.36919 15.3775 6.36919 16.1271V16.4283H3.59927C2.78205 16.4283 2.11719 17.0932 2.11719 17.9104V40.9402C2.11719 43.1788 3.93839 45 6.17696 45H38.8213C41.0599 45 42.8811 43.1788 42.8811 40.9402V17.9104C42.8812 17.0932 42.2164 16.4283 41.3992 16.4283ZM26.7169 37.8111H37.397V40.3255C37.397 40.5285 37.232 40.6935 37.029 40.6935H23.2613C23.5596 39.0564 24.9951 37.8111 26.7169 37.8111Z" fill="white"/>
<path d="M13.7427 9.2619C14.105 9.29552 14.4276 9.02963 14.4618 8.66665C14.6506 6.66484 15.575 4.81142 17.0649 3.4479C18.564 2.07592 20.5098 1.32022 22.5438 1.32022C27.0205 1.32022 30.6626 4.96228 30.6626 9.43889C30.6626 11.1234 30.1513 12.7388 29.1841 14.1108C29.1786 14.1186 29.1734 14.1265 29.1682 14.1344L24.944 20.7107C24.8756 20.8172 24.8392 20.9409 24.8392 21.0675V21.9227C24.8392 22.0962 24.6981 22.2374 24.5245 22.2374H24.4814L24.9019 15.1016H25.6539C26.73 15.1016 27.6054 14.2262 27.6054 13.1502V13.0701C27.6054 11.9941 26.73 11.1187 25.6539 11.1187C24.6223 11.1187 23.7666 11.9255 23.7059 12.9554L23.6572 13.7814H21.3423L21.2936 12.9554C21.233 11.9255 20.3772 11.1187 19.3456 11.1187C18.2695 11.1187 17.3941 11.9941 17.3941 13.0701V13.1502C17.3941 14.2262 18.2695 15.1016 19.3456 15.1016H20.0976L20.5179 22.2328C20.3659 22.2106 20.2484 22.0807 20.2484 21.9227V21.0675C20.2484 20.9409 20.212 20.8172 20.1437 20.7107L15.9194 14.1344C15.9143 14.1265 15.9091 14.1186 15.9036 14.1108C15.2962 13.2491 14.8685 12.2916 14.6325 11.2648C14.5507 10.9094 14.196 10.6877 13.8412 10.7693C13.4859 10.8511 13.2641 11.2053 13.3458 11.5606C13.6194 12.7505 14.1141 13.8603 14.8163 14.8596L18.9283 21.2611V21.9225C18.9283 22.589 19.3298 23.1628 19.9032 23.4171V24.5334C19.9032 25.708 20.8588 26.6636 22.0334 26.6636H23.0547C24.2293 26.6636 25.185 25.708 25.185 24.5334V23.4171C25.7583 23.1628 26.1598 22.5891 26.1598 21.9225V21.2611L30.2718 14.8596C31.3913 13.2664 31.9831 11.3922 31.9831 9.43881C31.9827 4.23422 27.7484 0 22.5438 0C20.179 0 17.9167 0.878653 16.1735 2.47401C14.4417 4.05916 13.367 6.21429 13.1475 8.54273C13.1132 8.90579 13.3797 9.22775 13.7427 9.2619ZM25.0238 13.033C25.0434 12.6998 25.3202 12.4389 25.6539 12.4389C26.002 12.4389 26.2851 12.722 26.2851 13.07V13.1501C26.2851 13.4981 26.002 13.7813 25.6539 13.7813H24.9797L25.0238 13.033ZM19.3456 13.7813C18.9975 13.7813 18.7144 13.4981 18.7144 13.1501V13.07C18.7144 12.722 18.9975 12.4389 19.3456 12.4389C19.6794 12.4389 19.9561 12.6998 19.9757 13.033L20.0198 13.7813H19.3456ZM23.5794 15.1015L23.1589 22.2373H21.8407L21.4202 15.1015H23.5794ZM23.8644 24.5335C23.8644 24.98 23.5011 25.3435 23.0544 25.3435H22.0331C21.5865 25.3435 21.2231 24.98 21.2231 24.5335V23.5575H23.8643V24.5335H23.8644Z" fill="white"/>
<path d="M34.1057 5.0125C34.2603 5.0125 34.4156 4.95846 34.5409 4.84844L35.9812 3.58385C36.2552 3.34339 36.2822 2.9262 36.0417 2.6523C35.8013 2.37839 35.3842 2.35128 35.1102 2.59174L33.6699 3.85634C33.3959 4.0968 33.3689 4.51399 33.6093 4.78789C33.7399 4.93655 33.9223 5.0125 34.1057 5.0125Z" fill="white"/>
<path d="M33.6699 8.99361L35.1101 10.2583C35.2355 10.3684 35.3907 10.4224 35.5455 10.4224C35.7288 10.4224 35.9113 10.3464 36.0418 10.1977C36.2823 9.92384 36.2552 9.50674 35.9813 9.2662L34.541 8.00151C34.2671 7.76088 33.85 7.78807 33.6095 8.06206C33.3689 8.33597 33.3959 8.75298 33.6699 8.99361Z" fill="white"/>
<path d="M9.10744 3.58395L10.5477 4.84854C10.673 4.95865 10.8283 5.0126 10.9829 5.0126C11.1663 5.0126 11.3487 4.93665 11.4793 4.78799C11.7198 4.51409 11.6927 4.0969 11.4187 3.85644L9.97843 2.59184C9.70453 2.35121 9.28734 2.37841 9.04688 2.6524C8.80634 2.9263 8.83345 3.3434 9.10744 3.58395Z" fill="white"/>
<path d="M9.54312 10.4227C9.69776 10.4227 9.85302 10.3687 9.97844 10.2587L11.4187 8.994C11.6926 8.75346 11.7197 8.33635 11.4792 8.06245C11.2387 7.78855 10.8216 7.76144 10.5476 8.0019L9.10736 9.26658C8.83346 9.50713 8.80635 9.92423 9.04689 10.1981C9.17733 10.3468 9.3597 10.4227 9.54312 10.4227Z" fill="white"/>
<path d="M16.7055 22.8974C16.7055 22.5328 16.4099 22.2373 16.0454 22.2373H9.54292C9.17837 22.2373 8.88281 22.5328 8.88281 22.8974C8.88281 23.2621 9.17837 23.5575 9.54292 23.5575H16.0454C16.4099 23.5575 16.7055 23.2621 16.7055 22.8974Z" fill="white"/>
<path d="M18.0514 25.5952H10.7304C10.3659 25.5952 10.0703 25.8907 10.0703 26.2553C10.0703 26.62 10.3659 26.9154 10.7304 26.9154H18.0514C18.416 26.9154 18.7115 26.62 18.7115 26.2553C18.7115 25.8907 18.416 25.5952 18.0514 25.5952Z" fill="white"/>
<path d="M18.0514 28.8115H10.7304C10.3659 28.8115 10.0703 29.107 10.0703 29.4716C10.0703 29.8363 10.3659 30.1317 10.7304 30.1317H18.0514C18.416 30.1317 18.7115 29.8363 18.7115 29.4716C18.7115 29.107 18.416 28.8115 18.0514 28.8115Z" fill="white"/>
<path d="M18.0514 32.0273H10.7304C10.3659 32.0273 10.0703 32.3228 10.0703 32.6875C10.0703 33.0521 10.3659 33.3476 10.7304 33.3476H18.0514C18.416 33.3476 18.7115 33.0521 18.7115 32.6875C18.7115 32.3228 18.416 32.0273 18.0514 32.0273Z" fill="white"/>
<path d="M36.2055 22.8974C36.2055 22.5328 35.9099 22.2373 35.5454 22.2373H29.0429C28.6784 22.2373 28.3828 22.5328 28.3828 22.8974C28.3828 23.2621 28.6784 23.5575 29.0429 23.5575H35.5454C35.9099 23.5575 36.2055 23.2621 36.2055 22.8974Z" fill="white"/>
<path d="M34.3561 25.5952H27.0351C26.6706 25.5952 26.375 25.8907 26.375 26.2553C26.375 26.62 26.6706 26.9154 27.0351 26.9154H34.3561C34.7207 26.9154 35.0162 26.62 35.0162 26.2553C35.0162 25.8907 34.7207 25.5952 34.3561 25.5952Z" fill="white"/>
<path d="M34.3561 28.8115H27.0351C26.6706 28.8115 26.375 29.107 26.375 29.4716C26.375 29.8363 26.6706 30.1317 27.0351 30.1317H34.3561C34.7207 30.1317 35.0162 29.8363 35.0162 29.4716C35.0162 29.107 34.7207 28.8115 34.3561 28.8115Z" fill="white"/>
<path d="M34.3561 32.0273H27.0351C26.6706 32.0273 26.375 32.3228 26.375 32.6875C26.375 33.0521 26.6706 33.3476 27.0351 33.3476H34.3561C34.7207 33.3476 35.0162 33.0521 35.0162 32.6875C35.0162 32.3228 34.7207 32.0273 34.3561 32.0273Z" fill="white"/>
</svg>
