<svg width="44" height="44" viewBox="0 0 44 44" fill="none" xmlns="http://www.w3.org/2000/svg">
<path d="M21.6228 9.31105L18.9956 10.3619C18.99 10.3641 18.985 10.3674 18.9795 10.3698C18.9718 10.3731 18.9638 10.3755 18.9561 10.3791L13.1678 13.1258C12.7079 13.3336 12.3485 13.7145 12.1678 14.1858C11.987 14.657 11.9995 15.1805 12.2026 15.6426C12.4056 16.1046 12.7827 16.4679 13.2521 16.6536C13.7214 16.8392 14.245 16.8321 14.7092 16.6339C14.716 16.6309 14.723 16.6279 14.7298 16.6247L19.5251 14.381L21.5676 13.5641L19.2861 20.4078C19.2517 20.5112 19.2423 20.6212 19.2587 20.7289C19.2751 20.8366 19.3169 20.9389 19.3806 21.0272C19.4443 21.1156 19.5281 21.1876 19.6251 21.2372C19.7221 21.2869 19.8294 21.3127 19.9384 21.3127V22.6877C19.9382 23.1306 20.024 23.5693 20.1911 23.9795L17.3407 29.1104L10.6282 34.4804L9.16319 35.213C8.67856 35.4563 8.28711 35.8518 8.04886 36.339C7.81062 36.8261 7.73873 37.378 7.84422 37.9099L8.2642 40.0101C8.28183 40.0981 8.31654 40.1819 8.36638 40.2566L9.74138 42.3191C9.80416 42.4133 9.88922 42.4905 9.989 42.5439C10.0888 42.5973 10.2002 42.6252 10.3134 42.6252H11.7426C12.0038 42.6252 12.2615 42.5656 12.4962 42.4511C12.7309 42.3365 12.9365 42.17 13.0972 41.9641C13.2579 41.7582 13.3696 41.5185 13.4237 41.263C13.4779 41.0075 13.4731 40.743 13.4098 40.4896L13.0634 39.1031V37.469L20.6609 31.7706C20.9732 31.5371 21.2432 31.2518 21.4591 30.9272C21.4591 30.9272 22.5849 29.2383 22.5904 29.229L24.4527 26.1252H28.1846H28.1881H28.1904H28.3491L24.947 31.7955C23.9902 32.3284 23.2685 33.2013 22.925 34.2413C22.8224 34.552 22.8171 34.8866 22.9098 35.2004C23.0025 35.5142 23.1887 35.7922 23.4437 35.9973L26.3837 38.3496C26.5057 38.4472 26.6572 38.5003 26.8134 38.5002H27.2927C27.7037 38.5002 28.107 38.3887 28.4596 38.1775C28.8122 37.9663 29.1008 37.6633 29.2947 37.301C29.4886 36.9386 29.5806 36.5304 29.5607 36.1199C29.5409 35.7094 29.41 35.312 29.182 34.97L28.3385 33.7049L33.0637 27.208C33.471 26.6505 33.6899 25.9774 33.6884 25.2869V25.1207C33.6905 24.4676 33.4958 23.8289 33.1296 23.2881C32.7634 22.7472 32.2427 22.3292 31.6355 22.0887L26.9831 20.2277L27.8683 17.5715L29.1328 18.4146C29.1431 18.4259 29.1531 18.4374 29.164 18.4484C29.6373 18.9205 30.273 19.1941 30.9413 19.2133C31.6095 19.2324 32.2598 18.9957 32.7594 18.5515L36.7604 14.9519C37.1804 14.5725 37.4351 14.0437 37.47 13.4788C37.505 12.9139 37.3174 12.3577 36.9475 11.9294C36.5775 11.5011 36.0545 11.2346 35.4905 11.187C34.9265 11.1395 34.3663 11.3146 33.9299 11.6749L30.9758 14.1909L29.0492 12.2643C29.6463 12.107 30.1905 11.7929 30.6254 11.3546C31.0603 10.9163 31.3701 10.3696 31.5228 9.77133C32.1649 9.63178 32.7359 9.2669 33.1322 8.74276C33.5286 8.21862 33.7242 7.56987 33.6835 6.91399C33.6429 6.25811 33.3687 5.63847 32.9107 5.16726C32.4527 4.69606 31.841 4.40445 31.1866 4.34523C31.1826 4.31659 31.1783 4.28794 31.1736 4.2593C31.087 3.73043 30.878 3.22911 30.5633 2.79539C30.2485 2.36167 29.8367 2.00755 29.3607 1.76131C28.8847 1.51507 28.3577 1.38353 27.8219 1.37719C27.286 1.37086 26.7561 1.4899 26.2744 1.72481C25.7927 1.95972 25.3726 2.304 25.0477 2.73016C24.7228 3.15632 24.5019 3.65254 24.4029 4.17922C24.3039 4.7059 24.3294 5.24844 24.4773 5.76351C24.6253 6.27859 24.8916 6.75194 25.2551 7.14577C24.9248 7.68508 24.7503 8.30532 24.7509 8.93773C24.7509 8.98371 24.7531 9.0296 24.7549 9.07523C24.3636 8.98391 23.963 8.93778 23.5612 8.93773C22.8971 8.93716 22.2391 9.06388 21.6228 9.31105ZM18.5634 13.3129L14.1593 15.3735C14.0437 15.4207 13.9154 15.4265 13.796 15.39C13.6767 15.3534 13.5736 15.2767 13.5043 15.1729C13.4607 15.1074 13.4319 15.0331 13.42 14.9552C13.408 14.8774 13.4132 14.7979 13.4351 14.7222C13.4571 14.6466 13.4952 14.5767 13.547 14.5173C13.5987 14.4579 13.6628 14.4106 13.7347 14.3785L13.7503 14.3714L18.5634 12.0874V13.3129ZM12.0135 41.1181C11.9816 41.1595 11.9406 41.1931 11.8936 41.216C11.8466 41.2389 11.7949 41.2507 11.7426 41.2502H10.6813L9.58583 39.607L9.1925 37.6403C9.14565 37.4041 9.17757 37.159 9.28336 36.9427C9.38914 36.7264 9.56296 36.5508 9.77816 36.4427L10.7655 35.9491L11.6884 37.3334V39.1877C11.6884 39.2439 11.6953 39.2999 11.7089 39.3545L12.0761 40.8231C12.0892 40.8738 12.0904 40.9268 12.0795 40.978C12.0686 41.0291 12.046 41.0771 12.0135 41.1181ZM12.5448 36.1392L11.9226 35.2058L14.2823 33.3182L14.9569 34.3302L12.5448 36.1392ZM20.3148 30.165C20.1852 30.3595 20.0234 30.5305 19.8362 30.6705L16.0586 33.5037L15.3601 32.4558L18.3056 30.0996C18.3755 30.0438 18.4339 29.9748 18.4774 29.8966L19.3534 28.3198L20.9974 29.1419L20.3148 30.165ZM21.7389 27.9756L20.0212 27.1167L21.0678 25.2329C21.5709 25.6905 22.1988 25.9882 22.8715 26.0879L21.7389 27.9756ZM27.2927 37.1252H27.0546L24.3025 34.9237C24.2666 34.8947 24.2404 34.8555 24.2273 34.8113C24.2143 34.767 24.215 34.7198 24.2295 34.676C24.4393 34.0405 24.8556 33.4933 25.4121 33.1215L27.0051 34.1835L28.038 35.733C28.1278 35.8679 28.1794 36.0247 28.1871 36.1865C28.1949 36.3484 28.1586 36.5094 28.0821 36.6522C28.0056 36.7951 27.8918 36.9146 27.7528 36.9979C27.6138 37.0812 27.4548 37.1252 27.2927 37.1252ZM27.333 32.7496L26.8491 32.4269L26.3651 32.1043L28.2106 29.0287L29.442 29.8498L27.333 32.7496ZM30.1617 25.0991C30.1017 24.9932 30.0148 24.9051 29.9097 24.8438C29.8045 24.7825 29.6851 24.7502 29.5634 24.7502H29.2038L29.9464 22.894L31.1249 23.3654C31.4764 23.5047 31.7778 23.7467 31.9898 24.0598C32.2018 24.3729 32.3145 24.7426 32.3134 25.1207V25.2869C32.3142 25.6866 32.1875 26.0761 31.9518 26.3989L30.2514 28.7369L28.9188 27.8484L30.153 25.7915C30.2156 25.6871 30.2493 25.5681 30.2509 25.4464C30.2524 25.3248 30.2216 25.2049 30.1617 25.0991ZM28.6697 22.3834L27.7229 24.7502H23.3759C22.8291 24.7496 22.3048 24.5321 21.9181 24.1455C21.5315 23.7588 21.314 23.2346 21.3134 22.6877V21.3127H25.9935L28.6697 22.3834ZM31.4903 15.5589L34.8161 12.7263C34.9762 12.5977 35.1801 12.5364 35.3846 12.5555C35.5891 12.5746 35.7781 12.6725 35.9117 12.8285C36.0453 12.9845 36.1129 13.1864 36.1003 13.3914C36.0876 13.5964 35.9957 13.7884 35.844 13.9268L31.843 17.5264C31.6519 17.6959 31.4133 17.8026 31.1595 17.8321C30.9058 17.8615 30.6491 17.8122 30.4243 17.6909L31.4903 15.5589ZM28.1884 11.0002C28.0361 11.0003 27.8843 10.9835 27.7357 10.9502L27.2519 10.4665C26.9562 10.1707 26.6263 9.91123 26.2691 9.69364C26.1586 9.4131 26.1111 9.11171 26.1299 8.81078C26.1487 8.50985 26.2334 8.21672 26.3779 7.95212C26.991 8.22746 27.6717 8.31568 28.3347 8.20572C28.363 8.20119 28.3912 8.19624 28.4194 8.19085C28.5771 8.54772 28.8086 8.86716 29.0986 9.12815C29.3886 9.38915 29.7306 9.5858 30.102 9.70516C29.9476 10.0865 29.6831 10.4134 29.3423 10.644C29.0016 10.8746 28.5999 10.9986 28.1884 11.0002ZM27.4486 2.77756C27.7594 2.72722 28.0776 2.74861 28.3789 2.8401C28.6801 2.93159 28.9564 3.09076 29.1868 3.30543C29.4171 3.5201 29.5952 3.78459 29.7076 4.07868C29.82 4.37277 29.8637 4.68867 29.8353 5.00223C29.8255 5.10915 29.8409 5.21689 29.8803 5.31679C29.9196 5.41669 29.9818 5.50599 30.0619 5.57752C30.142 5.64906 30.2377 5.70084 30.3414 5.72873C30.4451 5.75662 30.5538 5.75983 30.659 5.73811C30.678 5.73416 30.6969 5.73029 30.7161 5.72711C30.9845 5.68329 31.2599 5.72004 31.5074 5.8327C31.7549 5.94536 31.9634 6.12888 32.1066 6.36004C32.2498 6.59121 32.3212 6.85965 32.3119 7.13142C32.3025 7.4032 32.2128 7.66609 32.0541 7.88687C31.8953 8.10765 31.6747 8.2764 31.42 8.37178C31.1653 8.46716 30.8881 8.4849 30.6234 8.42274C30.3587 8.36058 30.1183 8.22132 29.9327 8.02256C29.7471 7.82381 29.6246 7.57449 29.5807 7.30613C29.5776 7.28688 29.5752 7.26763 29.5729 7.24838C29.5602 7.14173 29.5226 7.03955 29.4632 6.95003C29.4039 6.86052 29.3244 6.78615 29.2311 6.73291C29.1378 6.67966 29.0333 6.64901 28.9261 6.64342C28.8188 6.63783 28.7117 6.65744 28.6134 6.7007C28.4535 6.77094 28.2853 6.82066 28.1128 6.84868C27.8455 6.89232 27.5722 6.88287 27.3086 6.82089C27.0449 6.75891 26.796 6.6456 26.5762 6.48743C26.3563 6.32927 26.1697 6.12935 26.0271 5.89908C25.8845 5.66881 25.7886 5.41271 25.745 5.1454C25.7014 4.87809 25.7108 4.60479 25.7728 4.34113C25.8348 4.07747 25.9481 3.82859 26.1062 3.60872C26.2644 3.38885 26.4643 3.20228 26.6946 3.05967C26.9249 2.91706 27.181 2.8212 27.4483 2.77756H27.4486ZM25.3679 10.7618C25.3828 10.7711 25.3982 10.7789 25.4137 10.7875C25.7315 10.9628 26.0231 11.182 26.2796 11.4388L26.8871 12.0463L26.8903 12.0494L30.1019 15.261L29.675 16.1146L29.2969 16.8709L27.8824 15.9279C27.7945 15.8692 27.6942 15.8317 27.5893 15.8181C27.4845 15.8045 27.3779 15.8153 27.2779 15.8496C27.1779 15.8839 27.0872 15.9408 27.0128 16.0159C26.9383 16.0909 26.8822 16.1822 26.8488 16.2825L25.6304 19.9377H20.8923L23.3406 12.5927C23.3821 12.4683 23.3872 12.3346 23.3552 12.2075C23.3232 12.0803 23.2555 11.9649 23.1601 11.875C23.0647 11.785 22.9456 11.7242 22.8167 11.6998C22.6879 11.6753 22.5548 11.6882 22.4331 11.7369L19.9384 12.7348V11.4658L22.1333 10.5877C22.6528 10.3802 23.2112 10.2882 23.7698 10.3183C24.3284 10.3483 24.8737 10.4997 25.3679 10.7618Z" fill="white"/>
<path d="M16.5 23.375C16.5 23.1927 16.4276 23.0178 16.2986 22.8889C16.1697 22.7599 15.9948 22.6875 15.8125 22.6875H13.0625C12.8802 22.6875 12.7053 22.7599 12.5764 22.8889C12.4474 23.0178 12.375 23.1927 12.375 23.375C12.375 23.5573 12.4474 23.7322 12.5764 23.8611C12.7053 23.9901 12.8802 24.0625 13.0625 24.0625H15.8125C15.9948 24.0625 16.1697 23.9901 16.2986 23.8611C16.4276 23.7322 16.5 23.5573 16.5 23.375Z" fill="white"/>
<path d="M10.3125 24.0625C10.4948 24.0625 10.6697 23.9901 10.7986 23.8611C10.9276 23.7322 11 23.5573 11 23.375C11 23.1927 10.9276 23.0178 10.7986 22.8889C10.6697 22.7599 10.4948 22.6875 10.3125 22.6875H8.9375C8.75516 22.6875 8.5803 22.7599 8.45136 22.8889C8.32243 23.0178 8.25 23.1927 8.25 23.375C8.25 23.5573 8.32243 23.7322 8.45136 23.8611C8.5803 23.9901 8.75516 24.0625 8.9375 24.0625H10.3125Z" fill="white"/>
<path d="M11 17.875H6.875C6.69266 17.875 6.5178 17.9474 6.38886 18.0764C6.25993 18.2053 6.1875 18.3802 6.1875 18.5625C6.1875 18.7448 6.25993 18.9197 6.38886 19.0486C6.5178 19.1776 6.69266 19.25 6.875 19.25H11C11.1823 19.25 11.3572 19.1776 11.4861 19.0486C11.6151 18.9197 11.6875 18.7448 11.6875 18.5625C11.6875 18.3802 11.6151 18.2053 11.4861 18.0764C11.3572 17.9474 11.1823 17.875 11 17.875Z" fill="white"/>
<path d="M4.125 17.875H2.75C2.56766 17.875 2.3928 17.9474 2.26386 18.0764C2.13493 18.2053 2.0625 18.3802 2.0625 18.5625C2.0625 18.7448 2.13493 18.9197 2.26386 19.0486C2.3928 19.1776 2.56766 19.25 2.75 19.25H4.125C4.30734 19.25 4.4822 19.1776 4.61114 19.0486C4.74007 18.9197 4.8125 18.7448 4.8125 18.5625C4.8125 18.3802 4.74007 18.2053 4.61114 18.0764C4.4822 17.9474 4.30734 17.875 4.125 17.875Z" fill="white"/>
<path d="M7.5625 27.5C7.5625 27.6823 7.63493 27.8572 7.76386 27.9861C7.8928 28.1151 8.06766 28.1875 8.25 28.1875H12.375C12.5573 28.1875 12.7322 28.1151 12.8611 27.9861C12.9901 27.8572 13.0625 27.6823 13.0625 27.5C13.0625 27.3177 12.9901 27.1428 12.8611 27.0139C12.7322 26.8849 12.5573 26.8125 12.375 26.8125H8.25C8.06766 26.8125 7.8928 26.8849 7.76386 27.0139C7.63493 27.1428 7.5625 27.3177 7.5625 27.5Z" fill="white"/>
<path d="M3.4375 27.5C3.4375 27.6823 3.50993 27.8572 3.63886 27.9861C3.7678 28.1151 3.94266 28.1875 4.125 28.1875H5.5C5.68234 28.1875 5.8572 28.1151 5.98614 27.9861C6.11507 27.8572 6.1875 27.6823 6.1875 27.5C6.1875 27.3177 6.11507 27.1428 5.98614 27.0139C5.8572 26.8849 5.68234 26.8125 5.5 26.8125H4.125C3.94266 26.8125 3.7678 26.8849 3.63886 27.0139C3.50993 27.1428 3.4375 27.3177 3.4375 27.5Z" fill="white"/>
</svg>
