<svg width="47" height="47" viewBox="0 0 47 47" fill="none" xmlns="http://www.w3.org/2000/svg">
<path d="M31.198 30.5102H30.1147V29.0706C30.9551 28.1868 31.6179 27.148 32.0662 26.0069C33.5025 25.6812 34.9708 24.3112 35.4215 22.7971C36.061 20.6488 34.8307 19.0206 33.3486 18.5794C33.1399 18.5172 32.9292 18.4873 32.7242 18.491V14.5478L39.1677 11.8659V17.3798L36.8736 26.4201C36.78 26.7893 37.0033 27.1647 37.3726 27.2583C37.4295 27.2727 37.4865 27.2797 37.5427 27.2797C37.8508 27.2797 38.1315 27.0717 38.2108 26.7594L39.1677 22.9884V26.5955C39.1677 26.9765 39.4765 27.2853 39.8575 27.2853C40.2384 27.2853 40.5473 26.9765 40.5473 26.5955V22.9884L41.5042 26.7595C41.5835 27.0718 41.8642 27.2798 42.1722 27.2798C42.2284 27.2798 42.2855 27.2729 42.3424 27.2584C42.7116 27.1647 42.935 26.7894 42.8414 26.4202L40.5473 17.3799V11.2918L43.3299 10.1336C43.945 9.87765 44.3338 9.2818 44.3206 8.61572C44.3074 7.94955 43.895 7.36967 43.2701 7.13834L24.435 0.167656C23.8313 -0.0559617 23.1663 -0.0557781 22.5626 0.167564L3.72744 7.13825C3.10258 7.36949 2.69022 7.94946 2.67701 8.61554C2.6637 9.28162 3.05264 9.87738 3.66768 10.1334L7.86546 11.8807C8.21704 12.0272 8.62095 11.8607 8.76736 11.509C8.91369 11.1573 8.74726 10.7536 8.39558 10.6072L4.19771 8.8599C4.07819 8.81015 4.05479 8.7145 4.05625 8.64308C4.05772 8.57157 4.08489 8.47692 4.20625 8.43204L23.0414 1.46126C23.3363 1.35211 23.661 1.35202 23.9561 1.46135L42.7911 8.43194C42.9127 8.47692 42.9398 8.57157 42.9413 8.64308C42.9427 8.7145 42.9193 8.81015 42.7998 8.8599L40.5157 9.81064C40.4279 9.53066 40.1665 9.32751 39.8575 9.32751C39.4765 9.32751 39.1677 9.63632 39.1677 10.0173V10.3718L32.7242 13.0537V11.3824C32.7242 9.56472 31.2455 8.08596 29.4278 8.08596H17.5698C15.7521 8.08596 14.2733 9.56472 14.2733 11.3824V13.0537L11.0922 11.7297C10.7407 11.5832 10.3368 11.7498 10.1904 12.1014C10.0441 12.4531 10.2105 12.8568 10.5622 13.0032L14.2733 14.5479V18.4911C14.0673 18.4881 13.8576 18.5174 13.649 18.5794C12.1668 19.0207 10.9366 20.6489 11.5762 22.7971C12.027 24.3112 13.4951 25.6814 14.9314 26.007C15.3799 27.148 16.0426 28.1869 16.883 29.0707V30.5104H15.7996C12.6055 30.5104 9.57169 31.5229 7.02625 33.4384C4.56463 35.2906 2.71776 37.9256 1.82559 40.8578C1.7147 41.2222 1.92023 41.6075 2.28467 41.7184C2.35159 41.7388 2.41915 41.7485 2.4857 41.7485C2.78129 41.7485 3.05475 41.5568 3.14535 41.2593C3.4951 40.1099 3.98713 39.0381 4.59877 38.06L22.6231 44.7769C22.9055 44.8821 23.2021 44.9347 23.4987 44.9347C23.7954 44.9347 24.092 44.8821 24.3744 44.7769L29.3155 42.9355C29.6724 42.8024 29.854 42.4053 29.721 42.0483C29.588 41.6913 29.1909 41.51 28.8338 41.6429L23.8926 43.4842C23.6386 43.579 23.3588 43.579 23.1048 43.4842L5.43614 36.8998C7.12227 34.7755 9.42307 33.2127 12.0173 32.4395L22.1372 38.9841C22.9644 39.519 24.0334 39.519 24.8607 38.9841L34.978 32.4411C35.2453 32.5209 35.5102 32.6089 35.7719 32.7054C38.0653 33.5534 40.061 35.0202 41.5561 36.9018L31.7282 40.5642C31.3713 40.6973 31.1898 41.0944 31.3228 41.4514C31.4559 41.8085 31.8532 41.9898 32.2101 41.8568L42.3831 38.0658C43.6744 40.1076 44.4231 42.5251 44.4231 45.1145C44.4231 45.3934 44.1962 45.6203 43.9173 45.6203H3.08064C2.80176 45.6203 2.57484 45.3934 2.57484 45.1144C2.57484 44.7738 2.58787 44.4301 2.61367 44.0929C2.64267 43.7131 2.35829 43.3816 1.97843 43.3526C1.59885 43.3238 1.2671 43.6081 1.23818 43.9878C1.20972 44.3598 1.19531 44.7389 1.19531 45.1145C1.19531 46.1541 2.04104 46.9999 3.08064 46.9999H43.917C44.9566 46.9999 45.8024 46.1541 45.8024 45.1144C45.8024 37.0617 39.2508 30.5102 31.198 30.5102ZM18.2625 32.2855V30.2914L19.8242 31.559C20.8888 32.423 22.1938 32.855 23.4988 32.855C24.8038 32.855 26.1089 32.423 27.1735 31.559L28.7352 30.2915V32.2855C28.7352 33.6963 27.5874 34.844 26.1766 34.844H20.8209C19.4102 34.844 18.2625 33.6963 18.2625 32.2855ZM17.5698 9.46539H29.4278C30.4849 9.46539 31.3447 10.3253 31.3447 11.3824V15.9094H15.6529V11.3824C15.6529 10.3253 16.5128 9.46539 17.5698 9.46539ZM15.4814 24.6979C14.6044 24.6426 13.2566 23.6069 12.8984 22.4034C12.5104 21.1001 13.1804 20.1583 14.0427 19.9014C14.2426 19.842 14.4152 19.8665 14.6023 19.9815C14.8151 20.1121 15.0821 20.1174 15.3 19.9955C15.5179 19.8736 15.6529 19.6434 15.6529 19.3936V17.2889H31.3448V19.3936C31.3448 19.6434 31.4797 19.8735 31.6977 19.9955C31.9156 20.1175 32.1823 20.1121 32.3953 19.9815C32.5826 19.8666 32.7552 19.8421 32.955 19.9015C33.8174 20.1582 34.4873 21.1 34.0993 22.4034C33.7411 23.6068 32.3933 24.6426 31.5163 24.6979C31.238 24.7155 30.9975 24.8989 30.9071 25.1628C30.4139 26.603 29.5287 27.8709 28.3475 28.8296L26.3041 30.4879C24.6788 31.8071 22.3191 31.8071 20.6935 30.4879L18.6502 28.8296C17.4691 27.871 16.584 26.603 16.0905 25.1628C16.0001 24.8988 15.7597 24.7154 15.4814 24.6979ZM16.8829 31.8897V32.2855C16.8829 33.0232 17.0873 33.7138 17.4416 34.3047L13.9116 32.0218C14.5294 31.9347 15.1598 31.8898 15.7996 31.8898H16.8829V31.8897ZM24.1115 37.8258C23.7393 38.0665 23.2583 38.0665 22.8862 37.8258L20.3669 36.1966H26.6307L24.1115 37.8258ZM29.556 34.3046C29.9104 33.7138 30.1147 33.0231 30.1147 32.2855V31.8897H31.198C31.8375 31.8897 32.4662 31.9363 33.0817 32.0245L29.556 34.3046Z" fill="#223874"/>
<path d="M20.7567 21.1189C20.9858 20.5661 20.7234 19.9322 20.1706 19.703C19.6178 19.4739 18.9839 19.7363 18.7547 20.2891C18.5256 20.8419 18.788 21.4758 19.3408 21.7049C19.8936 21.9341 20.5275 21.6717 20.7567 21.1189Z" fill="#223874"/>
<path d="M27.4198 21.7722C28.0103 21.6765 28.4114 21.1202 28.3157 20.5297C28.2199 19.9392 27.6636 19.5381 27.0731 19.6338C26.4826 19.7295 26.0815 20.2858 26.1772 20.8763C26.273 21.4669 26.8293 21.868 27.4198 21.7722Z" fill="#223874"/>
<path d="M26.4087 23.5645H20.5875C20.2129 23.5645 19.8681 23.7522 19.6652 24.0666C19.4607 24.3834 19.4317 24.7782 19.5874 25.1228C20.2807 26.6564 21.8157 27.6472 23.4981 27.6472C25.1806 27.6472 26.7156 26.6564 27.409 25.1226C27.5647 24.778 27.5356 24.3833 27.3311 24.0666C27.1282 23.7522 26.7834 23.5645 26.4087 23.5645ZM23.4981 26.2678C22.5061 26.2678 21.5895 25.76 21.0577 24.9441H25.9387C25.4066 25.76 24.4901 26.2678 23.4981 26.2678Z" fill="#223874"/>
</svg>
