<svg width="47" height="47" viewBox="0 0 47 47" fill="none" xmlns="http://www.w3.org/2000/svg">
<path d="M31.2 30.5102H30.1167V29.0706C30.9571 28.1868 31.6199 27.148 32.0682 26.0069C33.5044 25.6812 34.9727 24.3112 35.4235 22.7971C36.0629 20.6488 34.8326 19.0206 33.3506 18.5794C33.1418 18.5172 32.9312 18.4873 32.7262 18.491V14.5478L39.1697 11.8659V17.3798L36.8756 26.4201C36.782 26.7893 37.0053 27.1647 37.3745 27.2583C37.4314 27.2727 37.4884 27.2797 37.5447 27.2797C37.8528 27.2797 38.1335 27.0717 38.2127 26.7594L39.1697 22.9884V26.5955C39.1697 26.9765 39.4785 27.2853 39.8594 27.2853C40.2404 27.2853 40.5492 26.9765 40.5492 26.5955V22.9884L41.5062 26.7595C41.5854 27.0718 41.8661 27.2798 42.1742 27.2798C42.2304 27.2798 42.2875 27.2729 42.3444 27.2584C42.7136 27.1647 42.9369 26.7894 42.8433 26.4202L40.5492 17.3799V11.2918L43.3318 10.1336C43.947 9.87765 44.3357 9.2818 44.3225 8.61572C44.3093 7.94955 43.8969 7.36967 43.2721 7.13834L24.4369 0.167656C23.8333 -0.0559617 23.1682 -0.0557781 22.5645 0.167564L3.72939 7.13825C3.10453 7.36949 2.69218 7.94946 2.67896 8.61554C2.66565 9.28162 3.05459 9.87738 3.66963 10.1334L7.86741 11.8807C8.21899 12.0272 8.6229 11.8607 8.76931 11.509C8.91564 11.1573 8.74921 10.7536 8.39754 10.6072L4.19967 8.8599C4.08015 8.81015 4.05674 8.7145 4.05821 8.64308C4.05968 8.57157 4.08685 8.47692 4.2082 8.43204L23.0434 1.46126C23.3382 1.35211 23.663 1.35202 23.958 1.46135L42.7931 8.43194C42.9146 8.47692 42.9418 8.57157 42.9433 8.64308C42.9446 8.7145 42.9212 8.81015 42.8017 8.8599L40.5176 9.81064C40.4299 9.53066 40.1684 9.32751 39.8594 9.32751C39.4785 9.32751 39.1697 9.63632 39.1697 10.0173V10.3718L32.7262 13.0537V11.3824C32.7262 9.56472 31.2474 8.08596 29.4298 8.08596H17.5717C15.754 8.08596 14.2753 9.56472 14.2753 11.3824V13.0537L11.0942 11.7297C10.7427 11.5832 10.3388 11.7498 10.1923 12.1014C10.046 12.4531 10.2125 12.8568 10.5641 13.0032L14.2753 14.5479V18.4911C14.0692 18.4881 13.8595 18.5174 13.651 18.5794C12.1687 19.0207 10.9386 20.6489 11.5781 22.7971C12.0289 24.3112 13.497 25.6814 14.9334 26.007C15.3818 27.148 16.0446 28.1869 16.885 29.0707V30.5104H15.8016C12.6074 30.5104 9.57364 31.5229 7.0282 33.4384C4.56658 35.2906 2.71972 37.9256 1.82754 40.8578C1.71665 41.2222 1.92219 41.6075 2.28662 41.7184C2.35354 41.7388 2.4211 41.7485 2.48765 41.7485C2.78324 41.7485 3.0567 41.5568 3.14731 41.2593C3.49705 40.1099 3.98908 39.0381 4.60073 38.06L22.625 44.7769C22.9074 44.8821 23.2041 44.9347 23.5007 44.9347C23.7974 44.9347 24.094 44.8821 24.3763 44.7769L29.3175 42.9355C29.6744 42.8024 29.856 42.4053 29.723 42.0483C29.5899 41.6913 29.1928 41.51 28.8357 41.6429L23.8946 43.4842C23.6406 43.579 23.3608 43.579 23.1068 43.4842L5.4381 36.8998C7.12422 34.7755 9.42502 33.2127 12.0193 32.4395L22.1392 38.9841C22.9663 39.519 24.0353 39.519 24.8627 38.9841L34.98 32.4411C35.2472 32.5209 35.5121 32.6089 35.7738 32.7054C38.0673 33.5534 40.063 35.0202 41.5581 36.9018L31.7302 40.5642C31.3733 40.6973 31.1917 41.0944 31.3247 41.4514C31.4578 41.8085 31.8551 41.9898 32.212 41.8568L42.3851 38.0658C43.6764 40.1076 44.4251 42.5251 44.4251 45.1145C44.4251 45.3934 44.1981 45.6203 43.9193 45.6203H3.08259C2.80371 45.6203 2.57679 45.3934 2.57679 45.1144C2.57679 44.7738 2.58982 44.4301 2.61562 44.0929C2.64463 43.7131 2.36024 43.3816 1.98038 43.3526C1.6008 43.3238 1.26905 43.6081 1.24013 43.9878C1.21168 44.3598 1.19727 44.7389 1.19727 45.1145C1.19727 46.1541 2.04299 46.9999 3.08259 46.9999H43.919C44.9586 46.9999 45.8043 46.1541 45.8043 45.1144C45.8043 37.0617 39.2528 30.5102 31.2 30.5102ZM18.2644 32.2855V30.2914L19.8262 31.559C20.8907 32.423 22.1957 32.855 23.5008 32.855C24.8058 32.855 26.1108 32.423 27.1754 31.559L28.7372 30.2915V32.2855C28.7372 33.6963 27.5893 34.844 26.1786 34.844H20.8229C19.4122 34.844 18.2644 33.6963 18.2644 32.2855ZM17.5717 9.46539H29.4298C30.4868 9.46539 31.3467 10.3253 31.3467 11.3824V15.9094H15.6548V11.3824C15.6548 10.3253 16.5148 9.46539 17.5717 9.46539ZM15.4833 24.6979C14.6063 24.6426 13.2585 23.6069 12.9004 22.4034C12.5123 21.1001 13.1824 20.1583 14.0447 19.9014C14.2445 19.842 14.4171 19.8665 14.6043 19.9815C14.8171 20.1121 15.084 20.1174 15.3019 19.9955C15.5199 19.8736 15.6548 19.6434 15.6548 19.3936V17.2889H31.3468V19.3936C31.3468 19.6434 31.4817 19.8735 31.6996 19.9955C31.9175 20.1175 32.1842 20.1121 32.3973 19.9815C32.5845 19.8666 32.7571 19.8421 32.957 19.9015C33.8193 20.1582 34.4892 21.1 34.1013 22.4034C33.743 23.6068 32.3953 24.6426 31.5182 24.6979C31.2399 24.7155 30.9995 24.8989 30.9091 25.1628C30.4158 26.603 29.5306 27.8709 28.3494 28.8296L26.3061 30.4879C24.6807 31.8071 22.321 31.8071 20.6955 30.4879L18.6522 28.8296C17.471 27.871 16.5859 26.603 16.0924 25.1628C16.0021 24.8988 15.7617 24.7154 15.4833 24.6979ZM16.8849 31.8897V32.2855C16.8849 33.0232 17.0892 33.7138 17.4436 34.3047L13.9135 32.0218C14.5313 31.9347 15.1618 31.8898 15.8015 31.8898H16.8849V31.8897ZM24.1134 37.8258C23.7412 38.0665 23.2603 38.0665 22.8881 37.8258L20.3689 36.1966H26.6326L24.1134 37.8258ZM29.558 34.3046C29.9123 33.7138 30.1167 33.0231 30.1167 32.2855V31.8897H31.2C31.8394 31.8897 32.4681 31.9363 33.0836 32.0245L29.558 34.3046Z" fill="#223874"/>
<path d="M20.7567 21.1189C20.9858 20.5661 20.7234 19.9322 20.1706 19.703C19.6178 19.4739 18.9839 19.7363 18.7547 20.2891C18.5256 20.8419 18.788 21.4758 19.3408 21.7049C19.8936 21.9341 20.5275 21.6717 20.7567 21.1189Z" fill="#223874"/>
<path d="M27.4198 21.7722C28.0103 21.6765 28.4114 21.1202 28.3157 20.5297C28.2199 19.9392 27.6636 19.5381 27.0731 19.6338C26.4826 19.7295 26.0815 20.2858 26.1772 20.8763C26.273 21.4669 26.8293 21.868 27.4198 21.7722Z" fill="#223874"/>
<path d="M26.4107 23.5645H20.5895C20.2149 23.5645 19.8701 23.7522 19.6671 24.0666C19.4627 24.3834 19.4337 24.7782 19.5894 25.1228C20.2826 26.6564 21.8176 27.6472 23.5001 27.6472C25.1826 27.6472 26.7176 26.6564 27.4109 25.1226C27.5666 24.778 27.5375 24.3833 27.3331 24.0666C27.1301 23.7522 26.7853 23.5645 26.4107 23.5645ZM23.5001 26.2678C22.508 26.2678 21.5915 25.76 21.0597 24.9441H25.9406C25.4086 25.76 24.4921 26.2678 23.5001 26.2678Z" fill="#223874"/>
</svg>
