<svg width="47" height="47" viewBox="0 0 47 47" fill="none" xmlns="http://www.w3.org/2000/svg">
<path d="M3.53424 35.9347H11.096C12.1269 35.9347 12.9656 35.0948 12.9656 34.0624V25.5061L17.1145 23.3559C17.3737 23.4039 17.6378 23.4288 17.9032 23.4288H38.5223C40.9077 23.4288 42.8484 21.4881 42.8484 19.1028V6.93015C42.8484 4.54334 40.9077 2.60156 38.5223 2.60156H17.9032C15.5164 2.60156 13.5746 4.54334 13.5746 6.93015V19.1029C13.5746 19.1441 13.5759 19.1856 13.5772 19.2271L12.6007 19.7335C12.1089 18.4352 11.1604 17.3798 9.96773 16.7425C11.2474 15.8852 12.0914 14.4266 12.0914 12.7745C12.0914 10.1409 9.94882 7.9983 7.31517 7.9983C4.68152 7.9983 2.53898 10.1408 2.53898 12.7745C2.53898 14.4256 3.38195 15.8835 4.66031 16.7409C2.87771 17.6932 1.66204 19.5727 1.66204 21.7309V34.0624C1.66204 35.0947 2.50189 35.9347 3.53424 35.9347ZM15.0447 6.93015C15.0447 5.354 16.3271 4.07169 17.9032 4.07169H38.5223C40.097 4.07169 41.3781 5.354 41.3781 6.93015V19.1029C41.3781 20.6776 40.097 21.9587 38.5223 21.9587H19.4006C20.0334 21.2339 20.1311 20.2809 19.8522 19.458L24.2899 12.26C24.5029 11.9144 24.3955 11.4615 24.0499 11.2485C23.7043 11.0354 23.2515 11.1429 23.0384 11.4884L18.9354 18.1438C18.213 17.5635 17.1963 17.3509 16.1231 17.9065L15.0447 18.4658L15.0447 6.93015ZM4.0092 12.7745C4.0092 10.9516 5.49227 9.46852 7.31517 9.46852C9.13807 9.46852 10.6211 10.9516 10.6211 12.7745C10.6211 14.5974 9.13807 16.0779 7.31517 16.0779C5.49227 16.0779 4.0092 14.596 4.0092 12.7745ZM3.13226 21.7309C3.13226 19.4245 5.00868 17.548 7.31517 17.548C9.31221 17.548 11.0387 18.9744 11.4205 20.9395C11.4647 21.1671 11.6136 21.3603 11.8222 21.4612C12.0308 21.5621 12.2749 21.5586 12.4806 21.4519L16.7995 19.2117C17.6124 18.791 18.1746 19.3449 18.3785 19.7385C18.4677 19.9105 18.8624 20.7941 17.8825 21.302L11.8924 24.4063C11.8915 24.4068 11.8905 24.4073 11.8897 24.4078L9.44376 25.6788C9.16965 25.821 8.83661 25.8453 8.52973 25.7456C8.23121 25.6485 7.99364 25.4488 7.86081 25.183C7.73257 24.9266 7.69521 24.6503 7.75267 24.3842C7.83841 23.9874 7.58625 23.5961 7.18941 23.5104C6.79257 23.4249 6.40133 23.6767 6.31559 24.0737C6.18846 24.662 6.27025 25.2895 6.54573 25.8405C6.856 26.461 7.39907 26.9239 8.07488 27.1436C8.75344 27.3644 9.49893 27.3062 10.1208 26.9837L11.4954 26.2695V34.0624C11.4954 34.2841 11.3162 34.4644 11.096 34.4644H3.53424C3.31255 34.4644 3.13226 34.2841 3.13226 34.0624V21.7309ZM20.1345 7.38813C20.1345 6.98211 20.4636 6.65302 20.8696 6.65302H30.1019C30.5079 6.65302 30.837 6.98211 30.837 7.38813C30.837 7.79414 30.5079 8.12324 30.1019 8.12324H20.8696C20.4636 8.12324 20.1345 7.79414 20.1345 7.38813ZM32.276 7.38813C32.276 6.98211 32.6051 6.65302 33.0111 6.65302H35.5534C35.9594 6.65302 36.2885 6.98211 36.2885 7.38813C36.2885 7.79414 35.9594 8.12324 35.5534 8.12324H33.0111C32.6051 8.12324 32.276 7.79414 32.276 7.38813ZM36.2234 11.1403C36.2234 11.5463 35.8943 11.8754 35.4883 11.8754H26.2586C25.8525 11.8754 25.5234 11.5463 25.5234 11.1403C25.5234 10.7343 25.8525 10.4052 26.2586 10.4052H35.4883C35.8943 10.4052 36.2234 10.7343 36.2234 11.1403ZM24.2979 14.8926C24.2979 14.4866 24.627 14.1575 25.033 14.1575H31.2703C31.6763 14.1575 32.0054 14.4866 32.0054 14.8926C32.0054 15.2986 31.6763 15.6277 31.2703 15.6277H25.033C24.627 15.6277 24.2979 15.2986 24.2979 14.8926ZM36.2234 14.8926C36.2234 15.2986 35.8943 15.6277 35.4883 15.6277H33.5211C33.115 15.6277 32.786 15.2986 32.786 14.8926C32.786 14.4866 33.115 14.1575 33.5211 14.1575H35.4883C35.8943 14.1575 36.2234 14.4866 36.2234 14.8926ZM36.2884 18.6448C36.2884 19.0508 35.9593 19.3799 35.5533 19.3799H27.445C27.039 19.3799 26.7099 19.0508 26.7099 18.6448C26.7099 18.2388 27.039 17.9097 27.445 17.9097H35.5533C35.9593 17.9097 36.2884 18.2388 36.2884 18.6448ZM25.6249 18.6448C25.6249 19.0508 25.2958 19.3799 24.8898 19.3799H22.6572C22.2512 19.3799 21.9221 19.0508 21.9221 18.6448C21.9221 18.2388 22.2512 17.9097 22.6572 17.9097H24.8898C25.2958 17.9097 25.6249 18.2388 25.6249 18.6448ZM44.5618 38.5653H44.0892C43.8214 36.1626 42.2586 34.1455 40.1158 33.2312C40.9887 32.4948 41.5447 31.3936 41.5447 30.1643C41.5447 27.9539 39.7465 26.1557 37.5362 26.1557C35.3259 26.1557 33.525 27.9539 33.525 30.1643C33.525 31.3937 34.0814 32.495 34.955 33.2314C34.6292 33.3704 34.3176 33.536 34.0211 33.7234C33.2983 32.5687 32.2337 31.6743 31.0014 31.1474C31.877 30.411 32.4348 29.3083 32.4348 28.0774C32.4348 25.867 30.6354 24.0688 28.4237 24.0688C26.2119 24.0688 24.4152 25.867 24.4152 28.0774C24.4152 29.3062 24.9707 30.4071 25.8431 31.1434C24.6083 31.6695 23.5476 32.5661 22.8246 33.7263C22.5282 33.5388 22.2167 33.3732 21.891 33.2341C22.7638 32.4981 23.3196 31.3977 23.3196 30.1694C23.3196 27.9591 21.5214 26.1609 19.3111 26.1609C17.1008 26.1609 15.3025 27.9591 15.3025 30.1694C15.3025 31.3978 15.8583 32.4982 16.7311 33.2341C14.59 34.1482 13.0284 36.164 12.7607 38.5651H2.46481C1.5171 38.5651 0.746094 39.336 0.746094 40.2838V42.7168C0.746094 43.6631 1.5171 44.4328 2.46481 44.4328H44.5618C45.5096 44.4328 46.2806 43.663 46.2806 42.7168V40.2838C46.2806 39.3361 45.5096 38.5651 44.5618 38.5651V38.5653ZM34.9951 30.1643C34.9951 28.7647 36.135 27.6259 37.5362 27.6259C38.9374 27.6259 40.0745 28.7647 40.0745 30.1643C40.0745 31.5639 38.9358 32.7053 37.5362 32.7053C36.1365 32.7053 34.9951 31.5654 34.9951 30.1643ZM42.6075 38.5653H32.4622C32.8201 36.0866 34.9586 34.1756 37.5362 34.1756C40.1137 34.1756 42.2498 36.0866 42.6075 38.5653ZM25.8851 28.0775C25.8851 26.6779 27.0239 25.5391 28.4235 25.5391C29.8231 25.5391 30.9645 26.6779 30.9645 28.0775C30.9645 29.4585 29.8568 30.5849 28.4833 30.6169C28.4633 30.6167 28.4435 30.6158 28.4235 30.6158C28.4037 30.6158 28.3839 30.6167 28.3641 30.6169C26.9919 30.5851 25.8851 29.4586 25.8851 28.0775ZM28.3641 32.0871C28.3839 32.0874 28.4036 32.0886 28.4235 32.0886C28.4435 32.0886 28.4632 32.0874 28.4833 32.087C30.2881 32.1085 31.964 33.098 32.863 34.6497C31.8373 35.6795 31.15 37.0452 30.9805 38.5652H25.8614C25.6921 37.0469 25.0059 35.6825 23.9822 34.6534C24.8802 33.0957 26.5451 32.108 28.3641 32.0869V32.0871ZM16.7725 30.1695C16.7725 28.7699 17.9113 27.6312 19.3109 27.6312C20.7105 27.6312 21.8493 28.7699 21.8493 30.1695C21.8493 31.5692 20.7105 32.7079 19.3109 32.7079C17.9113 32.7079 16.7725 31.5692 16.7725 30.1695ZM19.3109 34.1781C21.8857 34.1781 24.0219 36.088 24.3797 38.5653H14.2422C14.5998 36.088 16.7361 34.1781 19.3109 34.1781ZM44.8103 42.717C44.8103 42.8503 44.6965 42.9629 44.5618 42.9629H2.46481C2.33014 42.9629 2.21631 42.8503 2.21631 42.717V40.284C2.21631 40.1492 2.33014 40.0355 2.46481 40.0355H44.5618C44.6965 40.0355 44.8103 40.1492 44.8103 40.284V42.717Z" fill="#223874"/>
</svg>
