<svg width="50" height="50" viewBox="0 0 50 50" fill="none" xmlns="http://www.w3.org/2000/svg">
<g clip-path="url(#clip0_990_11218)">
<path d="M39.4338 32.6659L36.4994 31.8043L30.115 27.6343V26.6788C31.9634 25.2846 33.2328 23.1534 33.4687 20.7106C34.3958 20.5614 35.106 19.7558 35.106 18.7874V16.16C35.106 16.1498 35.1049 16.1399 35.1044 16.1297V12.8014C35.4738 12.5369 35.7082 12.1062 35.7082 11.623V8.57708L40.1141 7.82659C40.8382 7.70325 41.3589 7.12815 41.4101 6.39543C41.4611 5.66272 41.0252 5.02092 40.3253 4.79836L25.4721 0.0739502C25.1622 -0.0246826 24.8348 -0.024585 24.525 0.0738525L9.67163 4.79836C8.97173 5.02092 8.53579 5.66272 8.58687 6.39534C8.61929 6.86086 8.84175 7.26223 9.18511 7.52512V11.5082H9.14878C8.31235 11.5082 7.63188 12.1887 7.63188 13.0251V15.0023L6.65269 20.7495C6.48345 21.7436 7.24907 22.6534 8.25981 22.6534H11.5751C12.5836 22.6534 13.3519 21.7457 13.1823 20.7494L12.2031 15.0023V13.0251C12.2031 12.1887 11.5226 11.5082 10.6862 11.5082H10.65V7.95715L14.2919 8.57747V11.623C14.2919 12.1041 14.5252 12.5342 14.8928 12.799L14.8942 16.1603V18.7874C14.8942 19.7559 15.6044 20.5614 16.5315 20.7106C16.7673 23.1521 18.0353 25.2823 19.882 26.6766V27.6365L13.499 31.8058L10.5668 32.6664C7.42925 33.5873 5.21382 36.4679 5.21382 39.8163V41.9991C5.21382 42.4036 5.54165 42.7316 5.94624 42.7316C6.35083 42.7316 6.67866 42.4037 6.67866 41.9991V39.8163C6.67866 37.1773 8.44712 34.8151 10.9794 34.0719L13.7115 33.2699L24.6261 39.7556C24.8477 39.8872 25.1409 39.8943 25.3744 39.7556L36.2897 33.2696L39.0214 34.0715C41.5534 34.8149 43.3218 37.177 43.3218 39.8158V46.8899C43.3218 47.7972 42.5836 48.5354 41.6763 48.5354H38.4481V45.3783C38.4481 44.9739 38.1203 44.6459 37.7157 44.6459C37.3112 44.6459 36.9833 44.9738 36.9833 45.3783V48.5354H13.0137V45.3783C13.0137 44.9739 12.6859 44.6459 12.2813 44.6459C11.8767 44.6459 11.5489 44.9738 11.5489 45.3783V48.5354H8.32397C7.41665 48.5354 6.67847 47.7972 6.67847 46.8899V45.4229C6.67847 45.0184 6.35063 44.6905 5.94604 44.6905C5.54146 44.6905 5.21362 45.0183 5.21362 45.4229V46.8898C5.21362 48.6048 6.60884 50 8.32388 50H41.6761C43.3912 50 44.7864 48.6048 44.7864 46.8898V39.8158C44.7864 36.5462 42.6465 33.6092 39.4338 32.6659ZM11.575 21.1886H8.25981C8.15737 21.1886 8.07925 21.0971 8.09663 20.9954L8.98237 15.7966H10.8525L11.7382 20.9953C11.7555 21.0968 11.678 21.1886 11.575 21.1886ZM10.7382 13.0251V14.3319H9.09653V13.0251C9.09653 12.9963 9.11987 12.973 9.14868 12.973H10.686C10.7149 12.9729 10.7382 12.9963 10.7382 13.0251ZM22.3806 36.4425L22.6721 36.8906L15.1947 32.4475L19.9409 29.3474C20.1561 31.8728 20.9885 34.303 22.3806 36.4425ZM22.3755 33.2809C24.0995 33.5258 25.8997 33.526 27.6246 33.2809C27.2913 34.101 26.8805 34.8924 26.3918 35.6438L25 37.7828L23.6083 35.6438C23.1196 34.8924 22.7088 34.101 22.3755 33.2809ZM27.6195 36.4425C29.0116 34.303 29.844 31.8728 30.0591 29.3474L34.8053 32.4474L27.328 36.8906L27.6195 36.4425ZM31.9038 13.0741H33.6397V15.4275H32.7781C32.2959 15.4275 31.9037 15.0353 31.9037 14.5532V13.0741H31.9038ZM10.1156 6.19426L24.9692 1.46965C24.9882 1.4636 25.0087 1.4635 25.0281 1.46975L39.8816 6.19426C39.9123 6.20403 39.9543 6.21731 39.949 6.29358C39.9436 6.36975 39.9001 6.37708 39.8683 6.38254L34.9574 7.21897L33.1136 6.99094C32.7125 6.94124 32.3466 7.22659 32.2969 7.62795C32.2473 8.02942 32.5326 8.39504 32.9339 8.44465L34.2435 8.60667V11.6094L15.7567 11.6087V8.60657L23.3355 7.66878C24.4394 7.53235 25.5585 7.53235 26.6617 7.66878L29.5301 8.02356C29.9315 8.07327 30.2972 7.78801 30.3469 7.38665C30.3966 6.98518 30.1114 6.61956 29.71 6.56985L26.8416 6.21506C25.6192 6.06379 24.379 6.06379 23.1557 6.21506L15.0411 7.21917L10.1287 6.38254C10.0968 6.37708 10.0534 6.36975 10.048 6.29358C10.0427 6.21731 10.0848 6.20393 10.1156 6.19426ZM16.3585 15.4275L16.3576 13.0741H18.0963V14.5532C18.0963 15.0353 17.7042 15.4276 17.2219 15.4276L16.3585 15.4275ZM17.9706 20.3341C17.9329 19.7377 17.4372 19.2705 16.8421 19.2705C16.5756 19.2705 16.3588 19.0537 16.3588 18.7873V16.8923H17.2219C18.5117 16.8923 19.5611 15.843 19.5611 14.5532V13.0741H30.4389V14.5532C30.4389 15.843 31.4883 16.8923 32.7781 16.8923H33.6412V18.7873C33.6412 19.0537 33.4244 19.2705 33.1579 19.2705C32.5628 19.2705 32.0671 19.7377 32.0294 20.3342C31.7961 24.0324 28.7084 26.9293 25 26.9293C21.2915 26.9293 18.2039 24.0323 17.9706 20.3341ZM25 28.3941C26.3027 28.3941 27.5408 28.0962 28.6502 27.5666V28.0308C28.6502 29.283 28.4813 30.5183 28.156 31.7097C26.1656 32.0892 23.9153 32.1045 21.8441 31.7097C21.5188 30.5184 21.3499 29.2831 21.3499 28.0308C21.3499 28.0153 21.3477 28.0001 21.3467 27.9848C21.3465 27.9818 21.3468 27.9787 21.3466 27.9757V27.5652C22.4569 28.0956 23.6961 28.3941 25 28.3941Z" fill="white"/>
</g>
<defs>
<clipPath id="clip0_990_11218">
<rect width="50" height="50" fill="white"/>
</clipPath>
</defs>
</svg>
