<svg width="50" height="46" viewBox="0 0 50 46" fill="none" xmlns="http://www.w3.org/2000/svg">
<path d="M49.1379 21.0603H38.1121V18.931C38.1115 18.62 37.9435 18.3334 37.6724 18.181L25.8621 11.5431V8.16379H28.1983V9.44828C28.1983 9.92435 28.5843 10.3103 29.0603 10.3103H36.1034C36.5795 10.3101 36.9653 9.92403 36.9652 9.44795C36.9652 9.34817 36.9477 9.24914 36.9138 9.15517L36.2069 7.14655L36.9224 5.18103C37.0843 4.7333 36.8526 4.23912 36.4049 4.07726C36.311 4.04332 36.212 4.02597 36.1121 4.02586H32.9052V2.77586C32.9052 2.29978 32.5192 1.91379 32.0431 1.91379H25.8621V0.862069C25.8621 0.385991 25.4761 0 25 0C24.5239 0 24.1379 0.385991 24.1379 0.862069V11.5431L12.3276 18.1724C12.0565 18.3248 11.8885 18.6114 11.8879 18.9224V21.0517H0.862069C0.385991 21.0517 0 21.4377 0 21.9138V44.4655C0 44.9416 0.385991 45.3276 0.862069 45.3276H49.1379C49.614 45.3276 50 44.9416 50 44.4655V21.9224C50 21.4463 49.614 21.0603 49.1379 21.0603ZM32.9052 7.30172L32.8707 7.26724V5.78448H34.8362L34.4828 6.88793C34.4122 7.07996 34.4122 7.29073 34.4828 7.48276L34.8879 8.58621H29.9224V8.16379H32.0431C32.5192 8.16379 32.9052 7.7778 32.9052 7.30172ZM25.8621 3.63793H31.181V4.92241V6.43966H25.8621V3.63793ZM11.8879 43.6035H1.72414V22.7845H11.8879V43.6035ZM24.1379 43.6035H19.6121V33.7586H24.1379V43.6035ZM30.3879 43.6035H25.8621V33.7586H30.3879V43.6035ZM36.4224 43.6035H32.1121V32.8965C32.1121 32.4205 31.7261 32.0345 31.25 32.0345H18.75C18.2739 32.0345 17.8879 32.4205 17.8879 32.8965V43.6035H13.5776V19.4655L25 13.0345L36.3879 19.431L36.4224 21.9138V43.6035ZM48.2759 43.6035H38.1121V22.7845H48.2759V43.6035Z" fill="white"/>
<path d="M25 15.6719C23.0037 15.6766 21.3879 17.2962 21.3879 19.2926C21.3927 21.2875 23.0137 22.9008 25.0086 22.896C27.0036 22.8913 28.6168 21.2703 28.6121 19.2753C28.6073 17.2838 26.9915 15.6719 25 15.6719ZM25 21.1719C23.9573 21.1671 23.116 20.318 23.1207 19.2753C23.1254 18.2394 23.964 17.4008 25 17.396C26.0441 17.4008 26.8879 18.2485 26.8879 19.2926H26.8966C26.8918 20.3352 26.0427 21.1766 25 21.1719Z" fill="white"/>
<path d="M5.52577 24.6797H3.80164V28.128H5.52577V24.6797Z" fill="white"/>
<path d="M9.7759 24.6797H8.05176V28.128H9.7759V24.6797Z" fill="white"/>
<path d="M19.6466 24.6797H16.1984V26.4038H19.6466V24.6797Z" fill="white"/>
<path d="M26.7241 24.6797H23.2758V26.4038H26.7241V24.6797Z" fill="white"/>
<path d="M33.8017 24.6797H30.3534V26.4038H33.8017V24.6797Z" fill="white"/>
<path d="M19.6466 28.6992H16.1984V30.4234H19.6466V28.6992Z" fill="white"/>
<path d="M26.7241 28.6992H23.2758V30.4234H26.7241V28.6992Z" fill="white"/>
<path d="M33.8017 28.6992H30.3534V30.4234H33.8017V28.6992Z" fill="white"/>
<path d="M5.52577 31.4648H3.80164V34.9131H5.52577V31.4648Z" fill="white"/>
<path d="M9.7759 31.4648H8.05176V34.9131H9.7759V31.4648Z" fill="white"/>
<path d="M5.52577 38.2598H3.80164V41.708H5.52577V38.2598Z" fill="white"/>
<path d="M9.7759 38.2598H8.05176V41.708H9.7759V38.2598Z" fill="white"/>
<path d="M41.9484 24.6797H40.2242V28.128H41.9484V24.6797Z" fill="white"/>
<path d="M46.1983 24.6797H44.4741V28.128H46.1983V24.6797Z" fill="white"/>
<path d="M41.9484 31.4648H40.2242V34.9131H41.9484V31.4648Z" fill="white"/>
<path d="M46.1983 31.4648H44.4741V34.9131H46.1983V31.4648Z" fill="white"/>
<path d="M41.9484 38.2598H40.2242V41.708H41.9484V38.2598Z" fill="white"/>
<path d="M46.1983 38.2598H44.4741V41.708H46.1983V38.2598Z" fill="white"/>
</svg>
